<?xml version="1.0" standalone="no"?>
<!DOCTYPE svg PUBLIC "-//W3C//DTD SVG 1.1//EN" "http://www.w3.org/Graphics/SVG/1.1/DTD/svg11.dtd" >
<svg>
<metadata>
Created by FontForge 20090622 at Sat Aug 17 18:25:11 2019
 By deploy user
DmitriyChirkov
</metadata>
<defs>
<font id="Lauren-Regular" horiz-adv-x="389" >
  <font-face 
    font-family="Lauren"
    font-weight="400"
    font-style="italic"
    font-stretch="normal"
    units-per-em="1000"
    panose-1="0 0 5 0 0 0 0 0 0 0"
    ascent="800"
    descent="-200"
    x-height="309"
    cap-height="552"
    bbox="-806 -380 1289.4 800"
    underline-thickness="50"
    underline-position="-50"
    slope="-15"
    unicode-range="U+0020-U+2260"
  />
<missing-glyph horiz-adv-x="590" 
d="M484 -380h-374v1180h374v-1180zM198 721v-39h77v-44h-78v-39h196v39h-78v44h78v39h-195zM197 569v-123h196v40h-78v83h-118zM275 486h-39v43h39v-43zM197 414v-39h78v-43h-78v-39h118v82h78v39h-196zM354 343v-78h-157v-40h196v118h-39zM275 199v-66h40v27h39v-55h-118
v94h-39v-133h196v133h-118zM197 -5v-133h196v133h-196zM354 -99h-118v55h118v-55zM197 -165v-39h83l-83 -56v-39h196v39h-120l82 56h38v39h-196z" />
    <glyph glyph-name=".notdef" horiz-adv-x="590" 
d="M484 -380h-374v1180h374v-1180zM198 721v-39h77v-44h-78v-39h196v39h-78v44h78v39h-195zM197 569v-123h196v40h-78v83h-118zM275 486h-39v43h39v-43zM197 414v-39h78v-43h-78v-39h118v82h78v39h-196zM354 343v-78h-157v-40h196v118h-39zM275 199v-66h40v27h39v-55h-118
v94h-39v-133h196v133h-118zM197 -5v-133h196v133h-196zM354 -99h-118v55h118v-55zM197 -165v-39h83l-83 -56v-39h196v39h-120l82 56h38v39h-196z" />
    <glyph glyph-name="space" unicode=" " horiz-adv-x="200" 
 />
    <glyph glyph-name="A" unicode="A" horiz-adv-x="470" 
d="M178 25q-9 13 -11 32q-1 8 -1 26q0 50 16 111q8 35 18 69q1 3 1 7q0 8 -10 9l-58 7l-8 1q-7 0 -10 -3.5t-8 -15.5q-23 -58 -48 -133q-19 -49 -40 -77q-10 -15 -27 -15h-24.5t-29 3t-20.5 11q-9 9 -12 16q-5 14 -5 33q0 31 15.5 63t44.5 58q14 14 37 14q11 0 20.5 -4.5
t13.5 -11.5q8 -13 8 -26q0 -12 -7 -25q0 20 -11 42q-7 16 -21 16q-11 0 -18 -7t-14 -21q-6 -14 -5 -25q6 -40 10 -61.5t14 -42.5q1 -2 1 -4.5t2 -5.5q11 8 17.5 16.5t15.5 22.5q27 53 41 95q7 20 13 34q7 16 11 29q5 10 5 16q0 4 -3 5.5t-13 3.5h-5q-6 0 -9.5 1t-4.5 6
q5 5 12 5l11 -1h8q7 0 9 2.5t7 14.5q28 79 76 150q14 24 39 46q19 16 36 16q5 0 13 -2q28 -8 41.5 -25.5t13.5 -47.5q0 -14 -1 -21q-8 -65 -31 -145q-2 -8 -2 -12q0 -11 11 -18q34 -22 34 -76q0 -55 -24 -121q-10 -26 -36 -42.5t-51 -16.5q-13 0 -21 4q-17 8 -26 21z
M197 288q13 0 17 15q2 6 12 38l6 19q23 72 34 100q1 7 3.5 16.5t1.5 16.5q-1 19 -11 19q-9 0 -20 -7q-14 -7 -24 -17.5t-23 -27.5q-17 -25 -49 -87l-14 -27q-4 -8 -7 -19.5t-5 -18.5v-3q0 -7 7 -7q48 -7 67 -10h5zM280 45q38 60 38 116l-1 15q-7 45 -32 66q-8 -12 -11.5 -27
t-5.5 -22q-18 -53 -31 -144l-1 -12q0 -17 12 -18q17 0 32 26z" />
    <glyph glyph-name="B" unicode="B" horiz-adv-x="437" 
d="M-38 0q-11 0 -16 16q-2 8 -2 14q0 9 1 15t2 10q14 101 64 189q24 42 35 64q8 14 10 32q4 35 10 115v10q-1 12 -8 12q-5 0 -13 -4q-16 -8 -26 -22q-39 -58 -39 -103q0 -15 2 -22l9 -52q-9 1 -12 5.5t-6 13.5q-9 26 -9 50q0 51 37 108q26 38 59 38q18 0 33 -12
q18 -15 25 -33q0 -1 2 -4.5t7 -4.5l33 35q20 20 35 28q25 14 46 14q23 0 42 -19q23 -21 23 -58q0 -23 -11 -46t-33 -41l-49 -43q39 -14 55 -23q46 -27 46 -78q0 -46 -36 -102q-22 -34 -57 -50.5t-73 -21.5q-7 0 -11 4q-8 9 -13 24t-5 32q0 35 16 60q11 17 26 27t29 9
q12 0 11 -9q-24 -2 -37 -11.5t-17 -27.5q-4 -22 -4 -33q0 -15 6 -29q9 -14 12 -16q5 -5 8 -5q6 0 13 9q20 26 26 43l7 21q24 70 29 105q1 17 -0.5 28.5t-8.5 20.5q-6 12 -24 9q-3 -1 -18.5 -4.5t-28.5 -12.5q-3 -3 -12 -4t-12 -5q-6 -8 -6.5 -19t-0.5 -14q-7 -67 -38 -136
q-35 -78 -127 -95zM200 343q34 57 48 119q3 14 3 21q0 15 -12 15q-7 0 -29 -10q-20 -10 -36 -24t-41 -39q-7 -7 -4 -17q8 -25 10 -52.5t2 -71.5q42 29 59 59zM-17.5 22.5q2.5 4.5 2.5 5.5q10 22 14 33q13 37 20.5 73.5t16.5 92.5q1 9 4.5 27.5t3.5 31.5q-7 -6 -11 -15
t-7 -14q-48 -84 -64 -180q-2 -14 -2 -20q0 -17 6 -32q3 -7 8 -7q6 0 8.5 4.5z" />
    <glyph glyph-name="C" unicode="C" horiz-adv-x="272" 
d="M-78 57q-6 36 -6 74q0 82 33 156q29 72 75 124q38 45 83 65q19 9 40 9q25 0 42 -13q15 -12 11 -31q-7 -35 -19.5 -63.5t-36.5 -52.5q-15 -13 -26 -18q-10 -4 -14 -4q-8 0 -12.5 5t-5.5 14q10 -6 17 -6q5 0 11.5 5t14.5 13q41 40 52 106l1 9q0 24 -21 24q-13 0 -35 -11
q-33 -16 -52 -58q-27 -59 -56 -162q-13 -48 -13 -96q0 -30 8 -88q1 -8 5 -17t6 -13q6 -8 11 -8t13 8q23 20 44 54q28 47 36 90q3 12 3 18q0 9 -6 13t-22 6q16 8 26 8t15.5 -6t5.5 -16q0 -6 -1 -9q-21 -93 -71 -155q-20 -26 -49 -29q-24 -2 -34 -2t-15 1q-50 4 -58 56z" />
    <glyph glyph-name="D" unicode="D" horiz-adv-x="423" 
d="M-34 0q-12 0 -12 16q0 11 1 19q10 63 40 131q27 60 70 135q12 22 17 44t12 60q5 25 5 46q0 39 -18 39q-10 0 -23 -8q-35 -22 -49 -51q-29 -58 -29 -101q0 -24 8 -43q1 -4 3 -14t10 -16q-8 -2 -10 -2q-10 0 -17 11q-14 27 -14 60q0 40 18 79.5t46 66.5q30 30 60 30
q19 0 34 -11q23 -15 32 -42q2 -9 7 -9t10 4l-6.5 -12.5t-1.5 -16.5q5 -28 5 -52q0 -31 -5 -63.5t-15 -79.5q-2 -5 -6 -13.5t-4 -13.5q0 -7 7 -11q1 0 -2 -6q-12 -16 -15 -31t-2.5 -29t0.5 -19q0 -17 11 -27q6 -8 10 -8t13 12q20 29 31 58q48 114 69 230q1 7 6 35.5t5 53.5
q0 21 -4.5 30.5t-15.5 9.5q-12 0 -35 -13l-21 -15q-4 -3 -10 -8t-15 -11q13 22 46 46q20 14 41 14q27 0 48 -21q33 -37 33 -106q0 -105 -45 -201q-31 -63 -88 -107q-18 -14 -39 -19.5t-48 -6.5h-2q-7 0 -9 9q-2 4 -13 30q-12 -15 -20 -27q-22 -32 -63 -45q-4 -1 -7 -2l-6 -2
q-20 -6 -28 -6zM34.5 159.5q28.5 95.5 26.5 119.5q-14 -18 -32 -54q-43 -87 -47 -161v-11q0 -12 7 -17q17 28 45.5 123.5z" />
    <glyph glyph-name="E" unicode="E" horiz-adv-x="310" 
d="M-13 0q-25 0 -44 9q-31 15 -39 54q-4 16 -4 37q0 71 58 146q37 46 86 59q1 0 13 5q2 0 9 5q-15 2 -21.5 9.5t-13.5 22.5q-19 38 -19 78q0 73 59 122q32 28 78 28q22 0 39 -7.5t27 -22.5q7 -11 7 -27q-3 -41 -22 -73q-12 -25 -52 -41q-8 -3 -14 -3q-20 0 -17 39
q6 -4 8 -12t4 -12q3 -6 8 -6q2 0 8 3q47 24 55 63q2 8 4 15t4 13q1 4 1 12q0 18 -10.5 31t-27.5 14l-10 1q-42 0 -63 -44q-20 -39 -20 -78q0 -8 2 -24q7 -41 23 -64q1 -2 8 -13t10 -26q-15 -1 -31 -6.5l-22 -7.5q-41 -14 -56 -49q-28 -62 -28 -114q0 -38 17 -77q2 -4 5 -8
q17 -21 34 -21q23 0 51 33q59 70 81 135q8 23 8 48q-1 14 -8.5 22t-19.5 8q-11 0 -24 -7l-10 -6q-37 -26 -37 -62q0 -28 28 -28q6 0 10 1q-16 -10 -32 -10q-15 0 -24 9.5t-7 25.5q6 42 49 68q24 15 46 15q17 0 30 -7q12 -6 12 -20q2 -14 2 -22q0 -31 -16 -68
q-18 -37 -47 -85q-22 -38 -54 -55.5t-75 -23.5q-5 -1 -16 -1z" />
    <glyph glyph-name="F" unicode="F" horiz-adv-x="325" 
d="M-9 0q-8 0 -17 7q-20 18 -18 51q8 116 87 209q33 41 33 79l1 51q0 17 -1 25l1 10q0 18 -15 18q-13 0 -33 -18q-39 -37 -50 -91q-3 -19 -3 -40q0 -32 9 -62h-4q-14 0 -16 13q-9 30 -9 59q0 57 40 111q30 41 70 41q29 0 50 -21q15 -15 20 -37l8 -32q6 3 30 17t46 22
q4 2 20.5 9.5t30.5 7.5q13 0 23 -7q-44 -11 -66 -21q-37 -15 -66 -31q-17 -10 -14 -24q5 -30 5 -57q0 -19 -1 -28v-5q0 -6 1.5 -8t5.5 -2l13 2l41 11q10 2 16 2q10 0 18 -5q-9 -2 -32.5 -9t-43.5 -11q-16 -3 -19 -6.5t-5 -18.5q-3 -31 -14.5 -62.5t-30.5 -70.5
q-31 -59 -104 -77q-2 -1 -7 -1zM4 24q6 0 14 18q4 8 5 12q15 44 23 87t17 108l3 23q-2 4 -3 9q-47 -50 -76 -114q-14 -31 -14 -67q0 -19 3 -39q1 -12 15 -28q7 -9 13 -9z" />
    <glyph glyph-name="G" unicode="G" horiz-adv-x="329" 
d="M47 -70q-29 0 -29 27l1 9q3 25 17 43.5t39 34.5q10 6 13.5 10t3.5 8q0 5 -3 15q-28 -24 -67 -24q-35 0 -62.5 17t-32.5 42q-6 26 -6 53q0 29 6 59q25 115 90 197q26 31 52.5 51.5t58.5 28.5q6 2 17 2q12 0 20 -4q29 -11 41 -22t12 -26q0 -12 -5.5 -27t-19.5 -45t-52 -48
q-10 -5 -19 -5q-6 0 -9 1q-6 2 -8 4t-2 6q0 5 5 18q4 -2 4.5 -6t0.5 -6q2 -9 12 -5q44 20 58 54q9 25 13 40q3 11 3 19q0 21 -21 31q-8 4 -18 4q-17 0 -41 -17q-32 -25 -49 -62q-55 -119 -65 -212q-5 -33 -5 -60q-3 -34 19 -60q6 -6 11 -6q3 0 13 4q11 6 37 28q6 5 7 10.5
t0 13.5q-2 24 -2 36q0 15 2 45q2 31 33 67q14 17 33 17q9 0 16 -5.5t9 -15.5q2 -6 2 -17q0 -20 -13 -52q-7 -14 -7 -28q0 -10 4 -18q10 -23 13 -57q1 -8 4 -11.5t12 -2.5q9 0 14.5 -1.5t9.5 -6.5q-6 -5 -13 -5q-4 0 -10 2q-2 1 -5 1q-11 0 -13 -15l-3 -12q-12 -62 -86 -105
q-11 -6 -27 -10q-4 -1 -13 -1zM167 252q0 11 -3 21q-4 8 -11 7q-8 -2 -10 -12q-6 -22 -6 -32q0 -23 16 -39q14 35 14 55zM62 -56q5 4 9 9t6 7q3 6 3 7q12 27 12 54q0 11 -1 17q-55 -29 -55 -76q0 -19 15 -21q6 -1 11 3z" />
    <glyph glyph-name="H" unicode="H" horiz-adv-x="458" 
d="M-43 0q-12 0 -17 6t-5 22q0 73 46 120l6 7q29 26 45 56.5t25 70.5q7 35 13 59q13 65 19 88q3 14 3 26q0 7 -2 21q-2 10 -5.5 14t-10.5 4q-6 0 -16 -3q-22 -7 -40 -25t-24 -39q-6 -20 -6 -49t6 -56h-4q-10 0 -12 14q-4 26 -4 41q0 23 6 47q8 34 38 58q25 22 55 22
q14 0 25.5 -6t18.5 -18q19 -32 22 -75l3 -85v-5q0 -5 4 -7q16 12 46 40q5 5 7 13l3 12q24 78 77 137q22 23 48 35q9 3 17 3q6 0 9 -1q21 -4 21 -20q0 -8 -4 -19q-5 -16 -15 -28.5t-30 -33.5q-7 -8 -19 -17q-15 -12 -18 -33l-12 -68q-23 -128 -24 -136q-10 -54 -8 -129
q0 -2 0.5 -7.5t7.5 -8.5q40 47 57 99q3 9 6.5 22l5.5 21l8 30q2 5 2 16q0 7 -2 21q-2 11 -6 17t-14 6q-6 0 -17 -3q19 13 33 13q15 0 20 -16q4 -9 4 -23q0 -16 -4 -28q-14 -54 -22 -81q-7 -24 -19 -45.5t-35 -59.5q-2 -4 -7 -9q-17 -14 -46 -14q-16 0 -28.5 4.5t-16.5 13.5
q-11 19 -13.5 40.5t-3.5 59.5q0 34 6.5 70t18.5 86l3.5 13.5t0.5 16.5q-23 -10 -33.5 -22.5t-12.5 -31.5q-5 -63 -34 -144q-17 -47 -65 -95q-8 -8 -17.5 -11.5t-23.5 -6.5q-6 -3 -13 -3q-17 -3 -27 -3zM337 482.5q16 21.5 20 39.5q1 2 1 6q0 8 -7 8q-3 0 -9 -3
q-22 -13 -30 -36q-11 -28 -13 -51q22 15 38 36.5zM-23 27q5 9 13 27q25 55 39 134q-11 -9 -38 -38l-14 -15q-28 -31 -28 -72q0 -21 8 -40q4 -8 10 -8q6 1 10 12z" />
    <glyph glyph-name="I" unicode="I" horiz-adv-x="362" 
d="M-40 44q0 12 6 25q15 31 51 35q17 3 34 3q20 0 33 -5q2 -1 6 -1q8 0 14 12q8 18 9 28l8 43q16 81 20 124q8 64 23 103q2 8 2 10q0 6 -8 9q-48 15 -99 15q-27 0 -39 -6t-20 -23q-11 -20 -11 -38q0 -16 9 -25q6 -7 16 -7q8 0 24 6q23 8 30 29q1 3 1 9t4 10q11 -8 11 -21
q0 -15 -17 -28q-21 -15 -44 -15q-22 0 -37 12.5t-15 32.5q0 18 11 38q12 24 26 31t48 7q53 -2 99 -13q8 -3 12 -3t8 4.5t8 12.5q24 40 70 71q32 23 69 23q24 0 40 -10l19 -15q11 -8 11 -23q0 -19 -23 -36q-36 -26 -86 -38q-8 -2 -22 -4t-16.5 -8.5t-6.5 -29.5
q-3 -21 -4.5 -47t-2.5 -36q0 -36 -4 -67q-6 -45 -28 -124q-1 -5 -10 -19q-9 -15 -9 -20q0 -3 3 -6t8 -7q30 -23 60 -23q9 0 10 -4q-4 -6 -8 -6h-5q-40 1 -73 21q-9 6 -12 6t-8.5 -4.5t-8.5 -6.5q-23 -20 -54.5 -32.5t-61.5 -12.5q-32 0 -54 15q-16 10 -16 29zM354 487
q15 12 15 26t-13 18q-8 4 -20 4q-15 0 -29.5 -8.5t-24.5 -23.5q-14 -19 -29 -57q51 4 101 41zM90 89q-17 8 -40 8q-18 0 -36 -3q-12 -2 -20 -10t-11 -20q-3 -9 -3 -17q0 -14 12 -22q11 -9 21 -9t17 5q41 25 60 68z" />
    <glyph glyph-name="J" unicode="J" horiz-adv-x="463" 
d="M50.5 19.5q-27.5 19.5 -27.5 55.5q0 6 2 18q8 46 23.5 84.5t42.5 73.5q16 20 34.5 32.5t46.5 26.5q9 4 20 4h13h10q9 0 11 3.5t4 17.5q5 30 5 53q1 16 9 50q1 6 4 18.5t4 22.5l1 6q0 7 -3.5 9.5t-11.5 1.5q-14 -1 -34 5q-17 4 -23 5l-31 6q-34 8 -51 8q-43 0 -69 -23
t-23 -58q3 -26 20 -43q6 -7 24 -7q19 0 41 8t31 19q8 12 8 27l-1 13q0 8 3 14q2 -5 5 -14t4 -15q2 -8 2 -11q0 -13 -8.5 -23.5t-24.5 -15.5q-28 -12 -57 -12q-12 0 -24 3q-20 4 -31 22t-11 41q0 19 9 37q20 33 49 42q21 7 44 7q9 0 27 -2q17 -2 29.5 -4.5t21.5 -4.5
q50 -10 76 -12h4q8 0 12.5 3t7.5 12l17 34l11 23q12 24 40.5 43t53.5 15l40 -5q25 -3 32 -22q2 -3 4.5 -7.5t6.5 -9.5q9 -12 9 -20q0 -9 -13 -25q-16 -21 -38.5 -31.5t-51.5 -16.5q-10 -2 -36 -4q-15 0 -16 -14q-2 -18 -2 -25v-35q0 -97 -7 -234q-4 -71 -70 -145
q-25 -27 -67 -35l-21 -3q-28 -6 -44 -6q-38 0 -65.5 19.5zM417 537q22 13 35 37q2 6 2 8q0 5 -4.5 11t-5.5 9l-2 4q-4 20 -28 17q-50 0 -65 -47l-14 -50q-1 -3 -1 -7q0 -8 13 -7q33 4 70 25zM131 26q14 0 24 15q39 61 53 113q7 32 10 77l6 49l1 11q0 8 -4 10t-18 3h-7
q-11 0 -22 -4q-41 -18 -66 -48q-56 -69 -52 -129l-1 -20q0 -35 17.5 -53.5t53.5 -23.5h5z" />
    <glyph glyph-name="K" unicode="K" horiz-adv-x="392" 
d="M241 -22q-25 0 -50 10.5t-36 25.5q-14 20 -16 53q-1 5 -1 16q0 24 10 74q11 53 29 112l21 81l3 10q2 6 2 15q0 12 -10 12q-16 0 -27.5 -9.5t-13.5 -23.5q-2 -11 -4 -35l-3 -35q-3 -22 -13 -68q-6 -24 -8 -36q-5 -25 -19 -49t-37 -51q-20 -24 -55 -34q-16 -4 -35 -4
q-14 0 -21 1q-12 1 -16.5 10t-5.5 23q-1 44 28 95q38 66 84 112q18 17 25 47q6 23 12 71q1 8 4.5 32.5t9.5 45.5q2 7 2 17q0 13 -11 13q-9 0 -27 -9q-29 -15 -48.5 -44.5t-20.5 -57.5v-35q-3 1 -5.5 1.5t-3.5 1.5q-7 21 -7 36q0 24 14 46q25 41 62 62q18 11 38 11t31 -11
q23 -21 26 -57q0 -8 0.5 -27.5t4.5 -34.5h3q6 0 13 9q68 66 97 103q23 29 38 68q1 2 2 5t1 6q0 4 -4 7q-2 2 -6 2q-5 0 -13 -4q-20 -9 -29 -27q-7 -13 -6 -22q0 -5 2.5 -6t6 -0.5t6.5 -0.5q8 -2 6 -8q-1 -5 -11 -7q-14 -1 -23 7.5t-9 21.5q0 4 2 12q6 17 19.5 29.5
t30.5 16.5q8 2 11 2q10 0 16.5 -5t16.5 -16q3 -3 3 -6q0 -1 -3 -13q-14 -41 -41 -72q-39 -45 -68 -71l-20 -20l15 -8.5t18 -8.5q29 -15 30 -48q5 -91 -26 -183q-12 -33 -24 -73q-6 -16 -6 -34q0 -15 6 -32q8 -22 26 -22q9 0 28 8q13 5 18 5q6 0 6 -5t-6.5 -11.5t-13.5 -8.5
q-10 -3 -24 -3zM-24 60q6 0 12 8l6 10q20 36 31.5 70.5t27.5 96.5l8 35q-4 -3 -7 -4.5t-5 -3.5q-50 -51 -79 -116q-12 -27 -12 -55q0 -11 1 -17q1 -9 10 -20q3 -4 7 -4z" />
    <glyph glyph-name="L" unicode="L" horiz-adv-x="274" 
d="M223 -100q-19 0 -32 4q-47 9 -79 33l-25 17q-33 20 -51 38q-3 4 -6 4q-5 0 -12 -9q-19 -23 -53 -45q-28 -18 -69 -18h-3q-14 0 -17 12l-7 42q-1 31 33 64q12 10 22 10q21 0 31 -1l13 -1q7 0 10.5 4t7.5 16l14 43q28 84 45.5 141t26.5 102q7 37 7 63l-1 17q-2 18 -6 25.5
t-18 7.5q-15 1 -32.5 -11t-25.5 -27q-24 -47 -23 -86q0 -6 1.5 -23t4 -31t8.5 -26q-12 3 -14 13q-8 34 -8 63q0 46 21 89q9 19 29.5 33t40.5 14q9 0 16 -3q54 -20 59 -80q3 -25 3 -51q0 -81 -25 -163q-19 -59 -32.5 -95.5t-30.5 -60.5q-3 -4 -3 -9q0 -3 5 -8q19 -17 40 -31
l41.5 -26.5l27.5 -16.5q31 -18 74 -23q27 -3 45 23q17 22 17 37q0 7 -3 13q-6 13 -15 13t-23 -15q-2 -2 -5 -6t-7 -3q-7 0 -7 5q0 9 10 16q17 10 38 10q12 0 19 -5q13 -10 13 -26q0 -13 -7 -27q-17 -35 -52 -42q-16 -3 -31 -3zM-59.5 -24.5q12.5 19.5 26.5 50.5q3 5 1 10
q-7 10 -27 10q-23 0 -36 -13q-16 -15 -19 -35q-1 -4 -1 -11q0 -10 3.5 -18.5t9 -16.5t7.5 -12q23 16 35.5 35.5z" />
    <glyph glyph-name="M" unicode="M" horiz-adv-x="636" 
d="M310 29q0 7 2 25q6 34 28 104l84 240l18 56l1 8q0 5 -4 8q-2 1 -5 1q-6 0 -14 -6q-12 -8 -29 -29q-29 -36 -48.5 -68t-28.5 -66q-8 -26 -15 -58q-3 -27 -29 -34q-14 -4 -20 -4q-14 0 -23 10q-10 13 -10 29q0 6 2 18q19 82 26 154l1 8q2 27 -17 27q-8 0 -22 -6
q-17 -6 -31 -17.5t-31 -29.5q-1 -2 -5 -6q-14 -16 -14 -27q0 -7 5 -15q2 -3 3 -7t3 -7q18 -36 18 -84q0 -51 -20 -118q-19 -64 -88 -94q-12 -5 -28 -5q-12 0 -18 1q-12 2 -13 11q-5 14 -3 26q4 23 5 32q5 34 10 56t16 45l11 24q2 5 12.5 28t23.5 42q14 23 14 49q0 12 -4 36
q0 2 -1.5 4t-2.5 4q-7 19 -18 19q-9 0 -27 -12q-49 -33 -60 -91q-3 -15 -3 -31q0 -10 1 -16q-8 0 -10 3t-2.5 7t-0.5 5q-3 64 44 114q31 34 63 34q27 0 44 -25q0 -2 1 -3t1 -3q6 -9 10 -9q3 0 6 3t7 8q27 35 53 53q26 20 50 20q11 0 24 -5q66 -26 63 -92v-7q0 -9 6 -13
q26 38 32 49q10 17 25.5 35.5t20.5 25.5q20 24 38 24q6 0 18 -4q46 -19 45 -70q-5 -112 -56 -219q-22 -46 -44 -120l-9 -27q-2 -7 -2 -21q0 -17 1 -25q2 -9 5 -9t12 7q31 31 40 54l9 21.5t11 30.5t4 26t-4 23q0 1 -1 3.5t2 5.5q6 4 10 0q24 -11 19 -38q-13 -68 -66 -132
q-14 -18 -35 -20q-6 -1 -15 -2t-20 -1q-12 0 -18 3q-33 15 -33 56zM33 110.5q6 23.5 14 64.5l7 33q13 51 12 78q-60 -94 -60 -171q0 -29 7 -53q14 25 20 48.5z" />
    <glyph glyph-name="N" unicode="N" horiz-adv-x="476" 
d="M150 29q0 7 2 25q6 34 28 104l84 240l18 56l1 8q0 5 -4 8q-3 1 -9 1q-21 0 -56 -20.5t-49 -34.5q-20 -20 -27 -32.5t-5 -31.5q1 -9 1 -27q0 -57 -22 -151q-14 -53 -37 -98q-36 -70 -95 -67l-12 -1q-4 -1 -11 -1q-18 0 -25 9.5t-5 30.5q4 28 17 58q19 43 41.5 84.5
l58.5 103.5q28 46 28 96q0 26 -8 53q-3 9 -16 9q-19 0 -36 -15q-30 -27 -33 -59q-1 -10 -1 -29q0 -23 2 -34q1 -5 1 -14q-6 -1 -8 4q-6 32 -6 50q0 17 5 40q6 22 22 39.5t36 24.5q15 5 25 5q19 0 35 -13q15 -13 35 -49q7 4 14 11.5l10 10.5q24 24 59 44t65 20q8 0 22 -4
q46 -19 45 -70q-5 -112 -56 -219q-22 -46 -44 -120l-9 -27q-2 -7 -2 -21q0 -17 1 -25q2 -9 5 -9t12 7q31 31 40 54l9 21.5t11 30.5t4 26t-4 23q0 1 -1 3.5t2 5.5q6 4 10 0q24 -11 19 -38q-13 -68 -66 -132q-14 -18 -35 -20q-6 -1 -15 -2t-20 -1q-12 0 -18 3q-33 15 -33 56z
M-23 39.5q3 7.5 5 10.5t3.5 6.5t3.5 6.5q35 107 52 203q-12 -20 -14 -23q-33 -51 -50.5 -85.5t-24.5 -71.5q-2 -7 -2 -20t2 -19q2 -8 5.5 -12.5t10.5 -3.5q6 1 9 8.5z" />
    <glyph glyph-name="O" unicode="O" horiz-adv-x="313" 
d="M-70.5 28.5q-18.5 19.5 -21.5 52.5q-1 9 -1 26q0 105 69 195q24 32 32 63q16 49 52 85q22 23 39 32t35 9q8 0 32 -4q33 -6 53.5 -34.5t20.5 -64.5q0 -17 -4 -30q-22 -79 -45 -139q-33 -85 -108 -173q-23 -28 -36 -37t-28 -9q-6 0 -17.5 2t-22.5 3q-31 4 -49.5 23.5z
M189 262q18 17 20 44q0 5 4 15q10 31 10 59q0 47 -33 82q-15 15 -38 15q-17 0 -32 -9q-64 -35 -87 -104q0 -1 -1.5 -6t3.5 -7q18 -7 18 -22q0 -12 -10 -29q-8 -13 -8 -27q0 -18 17 -33q22 -19 48 -19q21 0 41 10q30 14 48 31zM118 116.5q30 42.5 57 96.5q4 6 -2 8
q-34 -14 -59 -14t-47.5 10t-46.5 29q-23 -40 -34 -103q-4 -21 -4 -46q0 -31 9 -52q6 -15 10.5 -21.5t10.5 -6.5t15 6.5t21 16.5q40 34 70 76.5z" />
    <glyph glyph-name="P" unicode="P" horiz-adv-x="343" 
d="M-87 31q0 8 1 13q9 42 33 99q39 88 90 174q12 21 12 40l3 24q2 16 2 24q0 24 -4 36q-20 -8 -32 -23.5t-20 -36.5q-17 -44 -26 -109q-15 4 -14 15q0 41 5 72.5t23 62.5q10 16 16 23q23 23 39 23q11 0 24 -6l11.5 -5.5t13.5 -7.5q2 -2 6.5 -8.5t11.5 -8.5l41 42
q15 15 32 25q26 16 44 16q12 0 28 -8q54 -28 51 -92q-8 -114 -78 -197q-4 -5 -12 -13.5t-15 -13.5q-31 -28 -59 -28q-12 0 -21 4l-5 2.5t-6 1.5l-8 -2q-12 -44 -16 -56q-19 -60 -63 -94q-11 -9 -29.5 -14t-36.5 -5q-22 0 -32 7q-10 8 -10 24zM155 204q18 23 33 55
q22 44 33.5 88.5t22.5 106.5q1 5 1 16q0 7 -1 11q-2 10 -4 13.5t-8 3.5q-3 0 -15 -2q-49 -13 -93 -62q-15 -15 -11 -31q4 -7 4 -23v-23q0 -21 3 -30q35 23 52 23q15 0 25 -18q-6 -6 -12 -2q-5 4 -12 4q-12 0 -28 -16q-18 -16 -22 -32q-11 -31 -11 -60q0 -11 4 -31l3 -8
q3 -5 7 -5t8 3q10 6 21 19zM-56 18q6 0 13 10q13 15 24 41q19 40 29.5 78.5t24.5 105.5l4 22q4 16 4 24q0 6 -1 9q-7 -4 -9.5 -10.5t-3.5 -7.5q-35 -56 -70 -137q-19 -47 -27 -103v-7q0 -9 3 -17q5 -8 9 -8z" />
    <glyph glyph-name="Q" unicode="Q" horiz-adv-x="317" 
d="M219.5 452.5q20.5 -28.5 20.5 -64.5q0 -17 -4 -30q-26 -92 -45 -139q-48 -102 -108 -173q-21 -24 -31 -33l-1 -3v-4q0 -9 13 -4q25 12 41 25q2 2 9 8t17 5q-14 -34 -56 -55q-10 -4 -14 -4q-20 0 -30 20q-3 -1 -10 -1q-5 0 -21 2l-21 3q-31 4 -49.5 23.5t-21.5 52.5
q-1 9 -1 26q0 105 69 195q24 32 32 63q16 49 52 85q22 23 39 32t35 9q8 0 32 -4q33 -6 53.5 -34.5zM223 380q0 47 -33 82q-15 15 -38 15q-17 0 -32 -9q-64 -35 -87 -104q0 -1 -1.5 -6t3.5 -7q18 -7 18 -22q0 -12 -10 -29q-8 -13 -8 -27q0 -18 17 -33q22 -19 48 -19
q21 0 41 10q30 14 48 31t20 44q0 5 4 15q10 31 10 59zM173 221q-34 -14 -59 -14t-47.5 10t-46.5 29q-23 -40 -34 -103q-4 -20 -4 -43q0 -17 3 -34q8 11 21 17t24 4q15 -2 23.5 -12.5t6.5 -23.5q35 33 62 72.5t53 89.5q4 6 -2 8zM12 17q5 0 15 7q7 20 9 34q1 3 1 8q0 6 -5 6
q-1 0 -9 -2q-14 -4 -32 -22h-0.5t-0.5 -1l1 -2q10 -28 21 -28z" />
    <glyph glyph-name="R" unicode="R" horiz-adv-x="412" 
d="M261 -22q-25 0 -50 10.5t-36 25.5q-8 11 -13 33t-5 38q0 33 8 65.5t25 81.5q2 5 8.5 24.5t6.5 36.5q0 12 -3.5 18.5t-14.5 7.5q-5 1 -13 1q-9 0 -12.5 -5.5t-5.5 -19.5q-7 -70 -24 -118q-3 -5 -5 -13q-19 -48 -46 -68.5t-72 -21.5h-20q-22 0 -30.5 5.5t-8.5 22.5
q0 30 17 79l7 23q11 39 32 77t52 82q13 18 14 39q0 10 2 30q3 20 3 39q0 16 -2 24q-1 3 -1.5 9t-2 9.5t-6.5 3.5h-1q-7 0 -13.5 -8t-9.5 -11q-36 -42 -40 -85l-3 -32q-10 1 -12.5 5.5t-3.5 14.5q-6 59 45 119q12 13 27 13l9 -1q54 -7 70 -45q4 -10 9 -13q6 3 12.5 10.5
t9.5 11.5q24 23 46 37.5t47 20.5q12 2 17 2q33 0 57 -22.5t24 -54.5q0 -4 -2 -16q-2 -10 -9 -21t-8 -13q-21 -34 -45.5 -56t-58.5 -32l-20 -8l-4 -4q26 -17 37 -41q11 -25 11 -52q0 -21 -2 -47t-3 -37q-2 -13 -4 -41q-2 -30 -2 -43q0 -68 36 -67q13 5 18 5q6 0 6 -5
t-6.5 -11.5t-13.5 -8.5q-10 -3 -24 -3zM229 395q28 39 48 76q14 22 14 48q0 10 -3 14.5t-10 4.5l-13 -2q-57 -14 -113 -77q-4 -4 -4 -9q0 -2 2 -8q3 -12 3.5 -29t0.5 -25q1 -6 2.5 -21.5t5.5 -26.5q39 16 67 55zM0 93.5q4 4.5 6.5 10.5t3.5 8l9 20q8 17 12 38t6 28
q7 25 12 55t8 59l3 23l-5 -5q-49 -73 -65 -133q-8 -29 -12 -48t-3 -38q2 -22 14 -22q7 0 11 4.5z" />
    <glyph glyph-name="S" unicode="S" horiz-adv-x="325" 
d="M-38 -80q-11 0 -21 12q-23 33 -23 67q0 20 7 40l8 21q6 18 10 27q13 22 27 33.5t36 11.5q26 0 39 -27q6 -12 6 -25t-7 -32q-14 -33 -50 -35q33 36 33 67q0 18 -12 33q-8 10 -16 10q-11 0 -24 -16q-1 -2 -4 -5t-4 -6q-19 -38 -19 -75q0 -47 35 -72q10 -7 15 -7q7 0 22 16
q26 30 39 72q15 50 15 107q0 35 -5.5 69.5t-15.5 79.5q-3 9 -10 9q-3 0 -11 -3q-36 -16 -67 -43q-20 -15 -29 -47q-4 -22 -8 -35q-9 4 -9 13l1 8q3 49 44 79q25 18 57 34q17 8 21 11t4 8l-4 20q-10 50 -10 75q0 13 1 20q2 30 24 57.5t54 40.5q24 10 46 10q24 0 46 -11
q28 -11 28 -42q0 -5 -2 -19q-14 -71 -82 -115q-12 -9 -17 -12q-12 -6 -12 -14q0 -6 2 -10l24 -60q3 -9 8 -22.5t13 -31.5q15 -36 15 -76q0 -46 -20 -98q-28 -67 -114 -96q-17 -5 -51 -11q-18 -2 -25 -4q-3 -1 -8 -1zM176 405q21 23 26 55q5 13 5 19l1 10q0 19 -10 29.5
t-27 10.5q-24 0 -45.5 -14.5t-31.5 -36.5q-10 -23 -10 -45q0 -19 5.5 -34.5t16.5 -40.5q2 -5 5 -5q2 0 8 4q36 25 57 48z" />
    <glyph glyph-name="T" unicode="T" horiz-adv-x="347" 
d="M34 20q26 21 46.5 47.5t32.5 73.5l8 43q16 81 20 124q8 64 23 103q2 8 2 10q0 6 -8 9q-48 15 -99 15q-27 0 -39 -6t-20 -23q-11 -20 -11 -38q0 -16 9 -25q6 -7 16 -7q8 0 24 6q23 8 30 29q1 3 1 9t4 10q11 -8 11 -21q0 -15 -17 -28q-21 -15 -44 -15q-22 0 -37 12.5
t-15 32.5q0 18 11 38q12 24 26 31t48 7q53 -2 99 -13q8 -3 12 -3t8 4.5t8 12.5q24 40 70 71q32 23 69 23q24 0 40 -10l19 -15q11 -8 11 -23q0 -19 -23 -36q-36 -26 -86 -38q-8 -2 -22 -4t-16.5 -8.5t-6.5 -29.5q-3 -21 -4.5 -47t-2.5 -36q0 -36 -4 -67q-6 -45 -28 -124
q-24 -47 -46 -72t-45.5 -33.5t-55.5 -8.5q-22 0 -34 1q0 5 16 19zM354 487q15 12 15 26t-13 18q-8 4 -20 4q-15 0 -29.5 -8.5t-24.5 -23.5q-14 -19 -29 -57q51 4 101 41z" />
    <glyph glyph-name="U" unicode="U" horiz-adv-x="492" 
d="M274 0q-24 0 -39.5 14t-22.5 39q-5 16 -5 41q0 23 5 51q22 112 82 240q22 49 35 106l1 7q0 6 -5 11q-20 -13 -32.5 -30.5t-23.5 -41.5q-5 -14 -17 -42q-28 -70 -47 -126q-20 -63 -59 -127q-16 -25 -31 -40q-16 -17 -36 -17q-29 0 -44 2.5t-26 15.5q-11 17 -11 29
q0 46 17 99q37 121 80 211q16 38 18 58q1 4 1 11q0 18 -16 18q-8 0 -18 -3q-20 -6 -36 -21q-49 -46 -49 -96q0 -33 -1 -50q-7 0 -9 7q-4 30 -4 45q0 21 7 41q19 56 66 80q21 11 45 11q33 0 55.5 -20.5t22.5 -52.5q0 -22 -6 -44.5t-17 -53.5q-9 -26 -25 -78l-9 -31
l-4.5 -15.5l-5.5 -18.5q-1 -4 -7 -23t-9.5 -35t-3.5 -29q-3 -15 -3 -17q0 -5 3 -11q30 22 58 67q18 30 35 72l68 179q12 33 38 68q11 13 17.5 17.5t15.5 4.5t14 -1q45 -3 51 -48q1 -8 1 -24q0 -58 -23 -121q-38 -106 -52 -167q-9 -41 -9 -67q0 -42 19 -72q2 -4 2 -5
q0 -5 -13 -9q-19 -8 -38 -8z" />
    <glyph glyph-name="V" unicode="V" horiz-adv-x="420" 
d="M21.5 11q-17.5 13 -22.5 38q-4 17 -4 41q0 38 11 82l43 180q3 11 3 21q0 9 -4 25q-3 11 -10 11q-3 0 -13 -5q-34 -19 -50 -59q-5 -14 -6 -31t-1 -34q-12 18 -12 40q0 28 16 55t39 40q10 6 23 6q61 0 74 -68q5 -19 5 -47q0 -30 -6 -60q-7 -41 -20 -131q-1 -8 -1 -23
q0 -22 5 -47q1 -5 2.5 -8.5t4.5 -3.5t13 8q21 15 34 35q54 83 74 120q4 10 4 14t-4 8q-40 28 -40 96q0 41 12 84t33 92q7 17 28 42q14 16 31 20q10 2 15 2q19 0 35 -12t17 -30l1 -17q0 -54 -31 -126q-18 -45 -58 -135q-1 -2 -3.5 -6t-2.5 -7t3 -5l4 -1q6 0 10.5 4.5t6.5 5.5
l26 24q8 8 14 5q4 -1 4 -5q0 -2 -4 -10q-18 -41 -57 -37h-5q-6 0 -10.5 -3.5t-9.5 -11.5l-49 -93q-20 -38 -55 -75q-15 -17 -33 -17q-12 0 -34 -2q-28 -2 -45.5 11zM242.5 242q1.5 4 2.5 5q1 0 3 5q35 75 52 117t28 88q3 15 3 29q0 13 -4 37q-3 19 -20 19q-14 0 -29 -15
q-21 -21 -33 -55l-18 -55q-17 -49 -17 -93q0 -29 10 -64q1 -7 6 -17q2 -8 10 -7q5 2 6.5 6z" />
    <glyph glyph-name="W" unicode="W" horiz-adv-x="544" 
d="M196 -39q-30 -3 -48.5 15t-18.5 49q0 10 1 16q11 75 36 150q22 59 29 96q0 2 1 5.5t0.5 6t-3.5 3.5h-2q-7 0 -15 -8q-29 -30 -45 -71q-21 -50 -53 -152l-15 -43q-4 -9 -10 -11q-4 -1 -13 -1q-21 0 -42.5 10t-28.5 24q-11 30 -9 51q5 58 18 103l36 127q4 12 4 19
q0 13 -12 13q-7 0 -13 -6t-13 -17q-15 -19 -21 -37.5t-11 -49.5v-6q0 -7 -3 -12q-8 4 -6 17q7 61 35 100q10 13 18 19t17 6q10 0 20 -5q47 -23 44 -77q0 -7 -2 -44.5t-10 -73.5q-6 -22 -6 -55q0 -19 1 -29q18 24 40 74l42 87q7 16 25 38q17 21 35 21q7 0 16 -3q21 -8 27 -28
q9 -22 9 -47q0 -13 -4 -39q-20 -98 -29 -147q-4 -22 -4 -34q0 -18 8 -30q10 3 16.5 11t8.5 10l72 89q5 6 13 18q36 75 74 135q4 8 4 10q0 7 -12 11q-29 11 -47 25t-23 39q-5 15 -5 37q0 17 2 26q11 72 44 122q22 36 51 54q21 15 41 15q7 0 10 -1q43 -5 43 -44
q0 -27 -1.5 -45.5t-8.5 -37.5q-25 -76 -40 -118t-38 -85l-18 -34q-37 -64 -54 -107q-1 -5 -12 -21q-21 -28 -41 -59.5l-25 -39.5q-16 -22 -28.5 -29t-35.5 -6zM407 280q16 0 26 28q12 32 25 71l6.5 19.5l7.5 21.5q20 60 20 106q0 14 -1 21q-1 26 -19 26q-14 0 -29 -11
q-26 -17 -48 -53q-20 -34 -35 -90q-8 -19 -8 -45q0 -18 1 -27q3 -22 10 -37.5t24 -23.5q12 -6 20 -6z" />
    <glyph glyph-name="X" unicode="X" horiz-adv-x="342" 
d="M191 -22q-25 0 -50 10.5t-36 25.5q-4 6 -10 13t-9 13t-3 15l-10.5 29t-9.5 40q0 13 -9 19q-8 -8 -17.5 -21t-14.5 -19l-34 -45q-6 -9 -11 -13t-12 0q-4 3 -4 6q0 4 4 9t5 6q23 33 71 97q18 21 15 43q-3 21 -3 41q0 17 2 49q2 45 1 67q-1 9 1.5 24.5t2.5 21.5q0 7 -1 11
q0 2 -0.5 8t-3.5 9.5t-10 3.5q-13 0 -26 -16q-41 -49 -43 -107v-4q0 -15 9 -15h2q13 0 24 17q2 3 4.5 8t6.5 8q2 -14 -3.5 -24.5t-16.5 -14.5q-6 -3 -14 -3q-9 0 -17.5 4t-11.5 10q-2 12 -2 19q5 62 41 106q23 26 45 26q5 0 15 -2q36 -10 49 -36q2 -5 8.5 -17.5t10.5 -24
t5 -22.5q1 -13 8 -32l6 -21q17 17 45 55q30 40 50 60q1 -2 1 -5q0 -6 -4 -11.5t-5 -7.5q-28 -51 -71 -103q-15 -20 -11 -36q6 -26 12 -80q6 -48 11 -70l6 -33q6 -35 12 -49.5t20 -18.5q13 5 18 5q6 0 6 -5t-6.5 -11.5t-13.5 -8.5q-11 -3 -24 -3z" />
    <glyph glyph-name="Y" unicode="Y" horiz-adv-x="420" 
d="M9 -73q-24 17 -30 40q-5 18 -5 35q0 22 9 56q11 35 49 56q31 17 59 17q16 0 28 -4q28 -9 28 -50q0 -18 -23 -34q-4 -2 -14 -9t-18 -7q-3 0 -9 2q1 7 8 11.5t10 8.5q13 13 13 35q0 12 -5 22t-14 13q-2 1 -7 1t-9 -1t-7 -2q-29 -6 -48.5 -26.5t-23.5 -48.5q-1 -7 -1 -19
q0 -75 72 -94q13 -3 29 4.5t28 22.5q29 37 36 71l6 25q11 49 17 82t7 66q-8 -1 -15.5 -8l-10.5 -10q-18 -15 -38 -15q-38 2 -69 7q-25 4 -39 22.5t-12 46.5q5 76 47 169q3 6 9 20t8 25l1 8q0 11 -8 11q-4 0 -16 -5q-43 -23 -59 -63q-10 -27 -12 -53q-6 -3 -6 1q-3 11 -3 22
q0 27 15 53.5t41 44.5q20 14 38 14q8 0 17 -3q45 -15 45 -72q0 -31 -9 -80q-1 -6 -6 -41t-5 -66q0 -17 3.5 -25t12.5 -8q13 0 38 19q43 30 47 74q12 108 65 209q7 13 25 37q10 14 24 14q5 0 8 -1q16 -3 24.5 -14t8.5 -28q0 -13 -6 -30q-13 -39 -36 -79q-25 -42 -27 -90
q0 -62 -7 -151q-3 -26 -12 -51q-12 -32 -16 -48q-15 -53 -52 -87t-92 -49q-36 -10 -56 -10q-26 0 -50 17zM306 408l9 19l10.5 22.5t13.5 31.5q5 10 5 22q0 11 -3 20q-2 13 -12 11q-5 -1 -8 -6.5t-4 -7.5q-9 -20 -11.5 -38t-4.5 -50q0 -16 -1 -24h6z" />
    <glyph glyph-name="Z" unicode="Z" horiz-adv-x="355" 
d="M-67 -100q-29 0 -44 19q-23 28 -23 58q0 11 3 23l5 20q1 9 5 20q16 63 83 103q21 14 48 14q34 0 50 -22q12 -16 12 -36q0 -17 -10 -39q-11 -21 -33 -32.5t-45 -11.5q-11 0 -20 3q-7 4 -7 12q0 6 1 9q0 11 7 12l3 1q2 0 3.5 -2.5t2.5 -3.5q1 -3 2 -8.5t4 -8.5t9 -2
q21 1 39 23q14 19 14 45q0 17 -5.5 30t-15.5 18q-4 2 -12 2q-10 0 -18 -4q-32 -12 -56.5 -39.5t-31.5 -59.5q0 -11 -3 -20q-3 -15 -3 -27q0 -27 13.5 -45.5t39.5 -31.5q6 -3 13 -3q13 0 31 13q54 40 80 78q67 96 92 198q5 18 5 34q0 9 -1 13q-3 11 -9 11t-15 -9l-47 -47
q-15 -13 -28 -13q-7 0 -11 2q-6 2 -16 3.5t-17 3.5q-15 3 -15 8q0 6 10 17l81 100q25 32 56 79q18 26 21 41q4 12 4 24q0 28 -26 28q-13 0 -25 -5q-52 -18 -84 -54q-19 -24 -36 -48q-12 -14 -15.5 -29.5t-3.5 -34.5q0 -14 11 -15h4q12 0 21 11q15 17 22 40q2 5 3.5 12.5
t5.5 12.5h4q8 0 8 -11q0 -18 -9 -38t-22 -28.5t-32 -8.5q-42 0 -40 35q-2 34 20 67q39 59 106 94q25 14 53 14q36 0 61 -22.5t25 -57.5q0 -9 -1 -14q-8 -45 -19.5 -71t-47.5 -74q33 -12 43.5 -39.5t10.5 -72.5q0 -39 -24 -88t-63.5 -90.5t-79.5 -58.5q-22 -9 -47.5 -14.5
t-49.5 -9.5h-2q-16 -2 -22 -2z" />
    <glyph glyph-name="A.init" horiz-adv-x="470" 
d="M336 180q0 -55 -24 -121q-10 -26 -36 -42.5t-51 -16.5q-13 0 -21 4q-17 8 -26 21t-11 32q-1 8 -1 26q0 50 16 111q8 35 18 69q1 3 1 7q0 8 -10 9l-58 7l-8 1q-7 0 -10 -3.5t-8 -15.5q-23 -58 -48 -133q-19 -49 -40 -77q-10 -15 -27 -15h-24.5t-29 3t-20.5 11q-9 9 -12 16
q-5 13 -5 32q0 15 2 22q-39 0 -72.5 4.5t-83.5 13.5q-52 10 -91.5 15t-88.5 5q-100 0 -230 -27l-6 -1q-8 0 -8 4q0 5 9 7q127 24 234 24q54 0 95.5 -5t105.5 -15q84 -16 137 -16q13 51 57 91q7 7 19 11.5t23 4.5q13 0 22.5 -7t12.5 -23q2 -10 2 -17q0 -23 -12 -41.5
t-36 -21.5q-14 -2 -21 -2q6 -32 17 -56q1 -2 1 -4.5t2 -5.5q11 8 17.5 16.5t15.5 22.5q27 53 41 95q7 20 13 34q7 16 11 29q5 10 5 16q0 4 -3 5.5t-13 3.5h-5q-6 0 -9.5 1t-4.5 6q5 5 12 5l11 -1h8q7 0 9 2.5t7 14.5q28 79 76 150q14 24 39 46q19 16 36 16q5 0 13 -2
q28 -8 41.5 -25.5t13.5 -47.5q0 -14 -1 -21q-8 -65 -31 -145q-2 -8 -2 -12q0 -11 11 -18q34 -22 34 -76zM226 341l6 19q23 72 34 100q1 7 3.5 16.5t1.5 16.5q-1 19 -11 19q-9 0 -20 -7q-14 -7 -24 -17.5t-23 -27.5q-17 -25 -49 -87l-14 -27q-4 -8 -7 -19.5t-5 -18.5v-3
q0 -7 7 -7q48 -7 67 -10h5q13 0 17 15q2 6 12 38zM318 161l-1 15q-7 45 -32 66q-8 -12 -11.5 -27t-5.5 -22q-18 -53 -31 -144l-1 -12q0 -17 12 -18q17 0 32 26q38 60 38 116zM-36 179q1 -6 2 -16t4 -23l34 6q18 4 24 31q2 12 2 14q0 8 -3.5 15t-4.5 10q-7 16 -21 16
q-11 0 -18 -7t-14 -21q-6 -14 -5 -25z" />
    <glyph glyph-name="B.init" horiz-adv-x="437" 
d="M314 204q0 -46 -36 -102q-22 -34 -57 -50.5t-73 -21.5q-7 0 -11 4q-8 9 -13 24t-5 32q0 35 16 60q11 17 26 27t29 9q12 0 11 -9q-24 -2 -37 -11.5t-17 -27.5q-4 -22 -4 -33q0 -15 6 -29q9 -14 12 -16q5 -5 8 -5q6 0 13 9q20 26 26 43l7 21q24 70 29 105q1 17 -0.5 28.5
t-8.5 20.5q-6 12 -24 9q-3 -1 -18.5 -4.5t-28.5 -12.5q-3 -3 -12 -4t-12 -5q-6 -8 -6.5 -19t-0.5 -14q-7 -67 -38 -136q-35 -78 -127 -95l-6 -1q-11 0 -16 16q-2 8 -2 14q0 9 1 15t2 10q14 101 64 189q24 42 35 64q5 8 15.5 43t13.5 61q1 27 -8 55q-3 9 -16 9q-20 0 -35 -15
q-19 -16 -28 -36q14 2 23 4q5 1 13 1q19 0 29.5 -10t10.5 -26q0 -19 -15 -37t-41 -23q-19 -4 -27.5 10.5t-8.5 38.5q0 17 3 30q-20 -2 -57 -2q-41 0 -76.5 4.5t-85.5 13.5q-58 10 -95 14.5t-84 4.5q-101 0 -232 -27l-6 -1q-8 0 -8 4q0 5 9 7q133 25 235 25q55 0 100 -5.5
t102 -15.5q51 -9 78.5 -12.5t59.5 -3.5q33 0 62 4q7 21 22 37t35 23q15 5 25 5q19 0 34 -13q10 -8 15 -16q3 -5 9 -14t10 -10l33 35q20 20 35 28q25 14 46 14q23 0 42 -19q23 -21 23 -58q0 -23 -11 -46t-33 -41l-49 -43q39 -14 55 -23q46 -27 46 -78zM248 462q3 14 3 21
q0 15 -12 15q-7 0 -29 -10q-20 -10 -36 -24t-41 -39q-7 -7 -4 -17q8 -25 10 -52.5t2 -71.5q42 29 59 59q34 57 48 119zM-15 414q-2 -4 -2.5 -7t-0.5 -5q-2 -22 4 -43t21 -17t26 19t11 30q0 11 -7.5 18.5t-23.5 7.5q-8 0 -13 -1zM40.5 254.5q3.5 18.5 3.5 31.5q-7 -6 -11 -15
t-7 -14q-48 -84 -64 -180q-2 -14 -2 -20q0 -17 6 -32q3 -7 8 -7q6 0 8.5 4.5t2.5 5.5q10 22 14 33q13 37 20.5 73.5t16.5 92.5q1 9 4.5 27.5z" />
    <glyph glyph-name="C.init" horiz-adv-x="272" 
d="M834 455q8 0 8 -4q0 -5 -9 -7q-132 -25 -235 -25q-56 0 -102 6t-99 16q-50 9 -78.5 12.5t-60.5 3.5q-30 0 -58 -4q2 -5 0 -12q-15 -56 -37 -91.5t-49 -35.5q-17 0 -26.5 12.5t-9.5 31.5q0 33 25 64t70 37l7 1q-5 13 -19 13q-13 0 -35 -11q-33 -16 -52 -58
q-27 -59 -56 -162q-13 -48 -13 -96q0 -30 8 -88q1 -8 5 -17t6 -13q6 -8 11 -8t13 8q23 20 44 54q28 47 36 90q3 12 3 18q0 9 -6 13t-22 6q16 8 26 8t15.5 -6t5.5 -16q0 -6 -1 -9q-21 -93 -71 -155q-20 -26 -49 -29q-24 -2 -34 -2t-15 1q-50 4 -58 56q-6 36 -6 74
q0 82 33 156q29 72 75 124q38 45 83 65q19 9 40 9q25 0 42 -13q6 -5 9 -10q31 3 59 3q41 0 74.5 -4.5t86.5 -13.5q52 -10 91.5 -15t88.5 -5q100 0 230 27zM182 451l-10 -2q-34 -5 -54 -38t-20 -63q0 -25 13 -25q15 0 34.5 27.5t35.5 89.5q1 4 1 11z" />
    <glyph glyph-name="D.init" horiz-adv-x="423" 
d="M289 176q-31 -63 -88 -107q-18 -14 -39 -19.5t-48 -6.5h-2q-7 0 -9 9q-2 4 -13 30q-12 -15 -20 -27q-22 -32 -63 -45q-4 -1 -7 -2l-6 -2q-20 -6 -28 -6q-12 0 -12 16q0 11 1 19q10 63 40 131q27 60 70 135q12 22 18 49.5t14 73.5q1 27 -8 55q-3 9 -16 9q-20 0 -35 -15
q-19 -16 -27 -35l21 3q5 1 13 1q20 0 30.5 -10t10.5 -26q0 -19 -15 -37t-41 -23q-19 -4 -28 11t-9 40q0 13 4 31q-36 -2 -51 -2q-41 0 -75 4.5t-85 13.5q-56 10 -93.5 14.5t-84.5 4.5q-101 0 -231 -27l-6 -1q-8 0 -8 4q0 6 9 7q133 25 235 25q56 0 102.5 -6t99.5 -16
q49 -8 78.5 -12t61.5 -4q24 0 51 3q7 21 22 37t34 22q15 5 25 5q19 0 35 -13q2 -2 14 -12.5t20 -25.5q2 -13 11 -8q10 12 25.5 27t25.5 22q20 14 41 14q27 0 48 -21q33 -37 33 -106q0 -105 -45 -201zM262 397.5q5 28.5 5 53.5q0 21 -4.5 30.5t-15.5 9.5q-12 0 -35 -13
l-21 -15q-3 -2 -26 -25q-3 -5 -5.5 -11t-0.5 -12q5 -28 5 -52q0 -31 -5 -63.5t-15 -79.5q-2 -5 -6 -13.5t-4 -13.5q0 -7 7 -11q1 0 -2 -6q-12 -16 -15 -31t-2.5 -29t0.5 -19q0 -17 11 -27q6 -8 10 -8t13 12q20 29 31 58q48 114 69 230q1 7 6 35.5zM7 428l-3 -14
q-1 -23 4.5 -43.5t20.5 -16.5q16 4 25.5 19.5t9.5 31.5q0 12 -6 19.5t-17 7.5q-6 0 -9 -1zM34.5 159.5q28.5 95.5 26.5 119.5q-14 -18 -32 -54q-43 -87 -47 -161v-11q0 -12 7 -17q17 28 45.5 123.5z" />
    <glyph glyph-name="E.init" horiz-adv-x="310" 
d="M851 541q8 0 8 -4q0 -5 -9 -7q-127 -24 -235 -24q-55 0 -99 5.5t-103 15.5q-52 9 -80.5 12.5t-60.5 3.5q-26 0 -54 -3q4 -9 4 -22q-2 -24 -8 -40q-4 -15 -14 -33q-8 -16 -23 -28.5t-29 -12.5q-17 0 -27 14t-10 35q0 32 20.5 59t58.5 33l9 1q-9 13 -28 15l-10 1
q-42 0 -63 -44q-20 -39 -20 -78q0 -8 2 -24q7 -41 23 -64q1 -2 8 -13t10 -26q-15 -1 -31 -6.5l-22 -7.5q-41 -14 -56 -49q-28 -62 -28 -114q0 -38 17 -77q2 -4 5 -8q17 -21 34 -21q23 0 51 33q59 70 81 135q8 23 8 48q-1 14 -8.5 22t-19.5 8q-11 0 -24 -7l-10 -6
q-37 -26 -37 -62q0 -28 28 -28q6 0 10 1q-16 -10 -32 -10q-15 0 -24 9.5t-7 25.5q6 42 49 68q24 15 46 15q17 0 30 -7q12 -6 12 -20q2 -14 2 -22q0 -31 -16 -68q-18 -37 -47 -85q-22 -38 -54 -55.5t-75 -23.5q-5 -1 -16 -1q-25 0 -44 9q-31 15 -39 54q-4 16 -4 37
q0 71 58 146q37 46 86 59q1 0 13 5q2 0 9 5q-15 2 -21.5 9.5t-13.5 22.5q-19 38 -19 78q0 73 59 122q32 28 78 28q45 0 64 -28q33 3 62 3q41 0 76 -4.5t84 -13.5q53 -10 91.5 -15t86.5 -5q103 0 232 28zM209 516q0 13 -4 22l-17 -3q-23 -4 -39 -36.5t-16 -61.5q0 -24 12 -24
t31.5 21t23.5 42q2 8 4 15t4 13q1 4 1 12z" />
    <glyph glyph-name="F.init" horiz-adv-x="325" 
d="M229 261q10 0 18 -5q-9 -2 -32.5 -9t-43.5 -11q-16 -3 -19 -6.5t-5 -18.5q-3 -31 -14.5 -62.5t-30.5 -70.5q-31 -59 -104 -77q-2 -1 -7 -1q-8 0 -17 7q-20 18 -18 51q8 116 87 209q15 19 24.5 47t9.5 50q1 25 -7 55q-3 9 -16 9q-19 0 -36 -15q-18 -17 -27 -36l23 4
q5 1 13 1q19 0 29.5 -10t10.5 -25q0 -20 -15 -38t-41 -23q-19 -4 -28 11.5t-9 39.5q0 18 3 31q-36 -2 -51 -2q-41 0 -74.5 4.5t-83.5 13.5q-58 10 -95 14.5t-85 4.5q-100 0 -231 -27l-6 -1q-8 0 -8 4q0 5 9 7q133 25 235 25q56 0 102 -5.5t101 -16.5q50 -9 78.5 -12.5
t60.5 -3.5q24 0 50 3q7 21 22 36.5t35 22.5q25 9 46 9q20 0 29 -8q21 -18 25 -31l8 -32q6 3 30 17t46 22q4 2 20.5 9.5t30.5 7.5q13 0 23 -7q-44 -11 -66 -21q-37 -15 -66 -31q-17 -10 -14 -24q5 -30 5 -57q0 -19 -1 -28v-5q0 -6 1.5 -8t5.5 -2l13 2l41 11q10 2 16 2z
M-13 368l-3 -14q-1 -23 5 -43.5t21 -16.5t25 19.5t10 31.5q0 12 -6 19.5t-18 7.5q-6 0 -9 -1zM46 141q8 43 17 108l3 23q-2 4 -3 9q-47 -50 -76 -114q-14 -31 -14 -67q0 -19 3 -39q1 -12 15 -28q7 -9 13 -9t14 18q4 8 5 12q15 44 23 87z" />
    <glyph glyph-name="G.init" horiz-adv-x="329" 
d="M835 465q8 0 8 -4q0 -5 -9 -7q-133 -25 -235 -25q-55 0 -99 5.5t-103 15.5q-49 8 -78.5 12t-61.5 4q-26 0 -56 -3q2 -5 0 -12q-15 -56 -37 -91.5t-49 -35.5q-17 0 -26.5 12.5t-9.5 31.5q0 33 25 64t70 37l7 1q-5 13 -19 13q-13 0 -35 -11q-32 -15 -53 -58
q-59 -129 -69 -219q-5 -33 -5 -60q-3 -34 19 -60q6 -6 11 -6q3 0 13 4q11 6 37 28q6 5 7 10.5t0 13.5q-2 24 -2 36q0 15 2 45q2 31 33 67q14 17 33 17q9 0 16 -5.5t9 -15.5q2 -6 2 -17q0 -20 -13 -52q-7 -14 -7 -28q0 -10 4 -18q10 -23 13 -57q1 -8 4 -11.5t12 -2.5
q9 0 14.5 -1.5t9.5 -6.5q-6 -5 -13 -5q-4 0 -10 2q-2 1 -5 1q-11 0 -13 -15l-3 -12q-12 -62 -86 -105q-11 -6 -27 -10q-4 -1 -13 -1q-29 0 -29 27l1 9q3 25 17 43.5t39 34.5q10 6 13.5 10t3.5 8q0 5 -3 15q-28 -24 -67 -24q-35 0 -62.5 17t-32.5 42q-6 26 -6 53q0 29 6 59
q25 115 90 197q35 39 90 65q21 9 40 9q25 0 42 -13q6 -5 9 -10q31 3 60 3q41 0 75.5 -4.5t85.5 -13.5q51 -10 91 -15t88 -5q101 0 231 27zM183 461l-11 -2q-34 -5 -53.5 -37.5t-19.5 -63.5v-4q0 -10 3.5 -15.5t9.5 -5.5q14 0 33.5 27.5t36.5 89.5q1 4 1 11zM137 236
q0 -23 16 -39q14 35 14 55q0 11 -3 21q-4 8 -11 7q-8 -2 -10 -12q-6 -22 -6 -32zM92 21q0 11 -1 17q-55 -29 -55 -76q0 -19 15 -21q6 -1 11 3t9 9t6 7q3 6 3 7q12 27 12 54z" />
    <glyph glyph-name="H.init" horiz-adv-x="458" 
d="M264 260l-12 -68q-8 -43 -8 -93q0 -24 1 -36v-5q0 -7 6 -11q41 46 58 99q7 21 20 73q2 7 2 19t-1 18q-2 11 -6.5 17t-14.5 6q-6 0 -17 -3q19 13 33 13q15 0 20 -16q4 -9 4 -22q0 -9 -4 -29l-22 -81q-7 -24 -18.5 -46t-34.5 -59q-5 -7 -9 -9q-15 -14 -46 -14
q-16 0 -28.5 4.5t-16.5 13.5q-10 20 -13 44t-2 56q-1 34 5.5 70t18.5 86l3.5 13.5t0.5 16.5q-23 -10 -34 -22.5t-12 -31.5q-5 -65 -35 -144q-16 -48 -65 -95q-7 -8 -16 -11.5t-23 -6.5q-8 -3 -13 -3q-18 -3 -28 -3q-12 0 -17 6t-5 21q0 9 1 15q3 61 45 106l6 7
q30 26 45 56.5t24 70.5q21 83 32 143q2 12 2 16q0 11 -3.5 22.5t-5.5 16.5q-3 9 -16 9q-19 0 -36 -15q-18 -16 -27 -36l23 4q5 1 13 1q19 0 29.5 -10t10.5 -25q0 -20 -15 -38t-41 -23q-19 -4 -28 11.5t-9 41.5q0 16 3 29q-36 -2 -51 -2q-41 0 -74.5 4.5t-83.5 13.5
q-58 10 -95 14.5t-85 4.5q-100 0 -231 -27l-6 -1q-8 0 -8 4q0 5 9 7q133 25 235 25q56 0 102 -5.5t101 -16.5q50 -9 78.5 -12.5t60.5 -3.5q24 0 50 3q8 21 23 36.5t34 22.5q15 5 25 5q19 0 35 -13q27 -22 32 -83l3 -85l-1 -5q0 -4 5 -7q13 9 46 40q6 5 7 13.5t2 11.5
q26 79 78 137q22 24 49 35q8 3 16 3q5 0 8 -1q12 -2 17 -7t5 -13t-4 -19q-5 -14 -14 -26t-18 -22.5t-12 -13.5q-19 -16 -20 -17q-15 -12 -18 -33q-1 -8 -24 -136zM299 446q22 15 38 36.5t20 39.5q1 2 1 6q0 8 -7 8q-3 0 -9 -3q-22 -13 -30 -36q-11 -28 -13 -51zM-1 429
q-3 -6 -3 -14q-2 -22 4 -43t21 -17t25 19.5t10 31.5q0 12 -6 19.5t-18 7.5q-6 0 -9 -1zM29 188q-11 -9 -38 -38l-14 -15q-28 -31 -28 -72q0 -21 8 -40q4 -8 10 -8q6 1 10 12q5 9 13 27q25 55 39 134z" />
    <glyph glyph-name="I.init" horiz-adv-x="362" 
d="M392 504q0 -19 -23 -36q-36 -26 -86 -38q-8 -2 -22 -4t-16.5 -8.5t-6.5 -29.5q-3 -21 -4.5 -47t-2.5 -36q0 -36 -4 -67q-6 -45 -28 -124q-1 -5 -10 -19q-9 -15 -9 -20q0 -3 3 -6t8 -7q30 -23 60 -23q9 0 10 -4q-4 -6 -8 -6h-5q-40 1 -73 21q-9 6 -12 6t-8.5 -4.5
t-8.5 -6.5q-23 -20 -54.5 -32.5t-61.5 -12.5q-32 0 -54 15q-16 10 -16 29q0 12 6 25q15 31 51 35q17 3 34 3q20 0 33 -5q2 -1 6 -1q8 0 14 12q8 18 9 28l8 43q16 81 20 124q8 64 23 103q2 8 2 10q0 6 -8 9q-48 15 -99 15q-23 0 -34.5 -3.5t-17.5 -14.5l30 5q5 1 13 1
q19 0 29.5 -10t10.5 -26q0 -19 -15 -37t-41 -23q-4 -1 -11 -1q-21 0 -36.5 12t-15.5 31q0 16 10 38l-29 -1q-42 0 -78 5t-83 14q-50 10 -90.5 15t-88.5 5q-95 0 -231 -28l-7 -1q-8 0 -7 4v1q0 4 8 6q133 25 236 25q56 0 102.5 -6t99.5 -16q49 -8 78.5 -12t61.5 -4q21 0 32 1
q11 20 25 26t46 6q53 -2 99 -13q8 -3 12 -3t8 4.5t8 12.5q24 40 70 71q32 23 69 23q24 0 40 -10l19 -15q11 -8 11 -23zM369 513q0 14 -13 18q-8 4 -20 4q-15 0 -29.5 -8.5t-24.5 -23.5q-14 -19 -29 -57q51 4 101 41q15 12 15 26zM1 419l-1 -3q-11 -20 -11 -38q0 -16 9 -25
q8 -9 23 -9q8 0 12 1q15 4 25 19.5t10 31.5q0 12 -6 19.5t-18 7.5q-6 0 -9 -1zM90 89q-17 8 -40 8q-18 0 -36 -3q-12 -2 -20 -10t-11 -20q-3 -9 -3 -17q0 -14 12 -22q11 -9 21 -9t17 5q41 25 60 68z" />
    <glyph glyph-name="J.init" horiz-adv-x="463" 
d="M482 574q0 -9 -13 -25q-16 -21 -38.5 -31.5t-51.5 -16.5q-10 -2 -36 -4q-15 0 -16 -14q-2 -18 -2 -25v-35q0 -97 -7 -234q-4 -71 -70 -145q-25 -27 -67 -35l-21 -3q-28 -6 -44 -6q-38 0 -65.5 19.5t-27.5 55.5q0 6 2 18q8 46 23.5 84.5t42.5 73.5q16 20 34.5 32.5
t46.5 26.5q9 4 20 4h13h10q9 0 11 3.5t4 17.5q5 30 5 53q1 16 9 50q1 6 4 18.5t4 22.5l1 6q0 7 -3.5 9.5t-11.5 1.5q-14 -1 -34 5q-17 4 -23 5l-31 6q-34 8 -51 8q-33 0 -55.5 -13t-31.5 -36q33 0 79 8q5 1 13 1q20 0 30.5 -10t10.5 -25q0 -20 -15.5 -38t-41.5 -23
q-22 -4 -37 -4t-21 2q-20 5 -31 22.5t-11 40.5q0 7 2 19q-32 1 -60.5 4.5t-52.5 8t-32 5.5q-51 10 -90.5 15t-87.5 5q-103 0 -232 -28l-6 -1q-8 0 -8 4q0 5 9 7q133 25 235 25q56 0 102.5 -6t99.5 -16q80 -15 125 -16q1 2 2 5t3 6q20 33 49 42q21 7 44 7q9 0 27 -2
q17 -2 29.5 -4.5t21.5 -4.5q50 -10 76 -12h4q8 0 12.5 3t7.5 12l17 34l11 23q12 24 40.5 43t53.5 15l40 -5q25 -3 32 -22q2 -3 4.5 -7.5t6.5 -9.5q9 -12 9 -20zM454 582q0 5 -4.5 11t-5.5 9l-2 4q-4 20 -28 17q-50 0 -65 -47l-14 -50q-1 -3 -1 -7q0 -8 13 -7q33 4 70 25
q22 13 35 37q2 6 2 8zM9 464q-2 -12 -2 -18q0 -30 20 -50q7 -8 29 -8q19 0 32 4q15 4 24.5 19.5t9.5 31.5q0 12 -6 19.5t-17 7.5q-6 0 -9 -1q-37 -5 -81 -5zM225 291q0 8 -4 10t-18 3h-7q-11 0 -22 -4q-41 -18 -66 -48q-56 -69 -52 -129l-1 -20q0 -35 17.5 -53.5t53.5 -23.5
h5q14 0 24 15q39 61 53 113q7 32 10 77l6 49z" />
    <glyph glyph-name="K.init" horiz-adv-x="392" 
d="M213 422q-5 -6 -19 -20l15 -8.5t18 -8.5q29 -15 30 -48q4 -87 -26 -183q-6 -16 -25 -73q-4 -15 -4 -34q0 -18 5 -32q8 -22 26 -22q9 0 28 8q13 5 18 5q6 0 6 -5t-6.5 -11.5t-13.5 -8.5q-10 -3 -24 -3q-25 0 -50 10.5t-36 25.5q-16 24 -16 53q-1 5 -1 16q0 28 11 74
q7 36 30 119l19 74l3 10q3 9 3 15q0 12 -11 12q-16 0 -28 -9.5t-13 -23.5q-2 -11 -4 -35l-3 -35q-3 -22 -13 -68q-6 -24 -8 -36q-5 -25 -19 -49t-37 -51q-20 -24 -55 -34q-16 -4 -35 -4q-15 0 -22 1q-11 1 -15.5 10t-5.5 23q-1 44 28 95q37 64 85 112q10 10 15 20.5t9 26.5
q8 35 20 122q1 25 -7 55q-3 9 -16 9q-19 0 -36 -15q-19 -17 -26 -36l22 4q5 1 13 1q19 0 29.5 -10t10.5 -25q0 -20 -15 -38t-41 -23q-19 -4 -28 11.5t-9 41.5q0 16 3 29q-36 -2 -51 -2q-41 0 -74.5 4.5t-84.5 13.5q-56 10 -93.5 14.5t-84.5 4.5q-100 0 -231 -27l-7 -1
q-8 0 -8 4q0 5 9 7q133 25 235 25q56 0 102 -5.5t101 -16.5q50 -9 78.5 -12.5t60.5 -3.5q25 0 50 3q8 21 23 36.5t34 22.5q15 5 25 5q19 0 35 -13q1 -1 16.5 -12.5t20.5 -49.5q1 -8 1 -23q2 -28 4 -39h3q5 0 9 4l5 5l51 52t45 51q25 32 38 68q3 6 3 10q0 5 -4 8q-2 2 -6 2
q-5 0 -13 -4q-20 -9 -29 -27q-7 -13 -6 -22v-1q0 -4 3 -5t6 -0.5t6 -0.5q8 -2 6 -8q-1 -5 -11 -7q-13 -1 -22.5 7.5t-9.5 21.5q0 4 2 12q7 21 23.5 34.5t36.5 13.5q11 0 17.5 -5t16.5 -16q3 -3 3 -6q0 -1 -3 -13q-14 -41 -41 -72q-40 -46 -69 -71zM3 457l-3 -15
q-2 -22 4 -43t21 -17t25 19.5t10 31.5q0 12 -6 19.5t-18 7.5q-6 0 -9 -1q-16 -2 -24 -2zM25.5 148.5q11.5 34.5 27.5 96.5l8 35q-4 -3 -7 -4.5t-5 -3.5q-50 -51 -79 -116q-12 -27 -12 -55q0 -11 1 -17q1 -9 10 -20q3 -4 7 -4q6 0 12 8l6 10q20 36 31.5 70.5z" />
    <glyph glyph-name="L.init" horiz-adv-x="275" 
d="M313 -28q0 -13 -7 -27q-17 -35 -52 -42q-16 -3 -31 -3q-19 0 -32 4q-47 9 -79 33l-25 17q-33 20 -51 38q-3 4 -6 4q-5 0 -12 -9q-19 -23 -53 -45q-28 -18 -69 -18h-3q-14 0 -17 12l-7 42q-1 31 33 64q12 10 22 10q21 0 31 -1l13 -1q7 0 10.5 4t7.5 16l19 59q4 13 27 82
t35 122q13 55 13 87q0 21 -6 39q-3 9 -16 9q-20 0 -35 -15q-19 -16 -27 -36l22 4q5 1 13 1q19 0 29.5 -10t10.5 -26q0 -19 -15 -37t-41 -23q-19 -4 -28 11t-9 40q0 13 4 31q-36 -2 -51 -2q-41 0 -75 4.5t-85 13.5q-56 10 -93.5 14.5t-84.5 4.5q-101 0 -231 -27l-6 -1
q-8 0 -8 4v1q0 4 8 6q133 25 235 25q56 0 102 -5.5t101 -16.5q49 -8 78.5 -12t61.5 -4q23 0 50 3q7 21 22 37t34 22q15 5 25 5q20 0 35 -13q39 -32 34 -116q-3 -50 -8 -90t-17 -81q-19 -59 -32.5 -95.5t-30.5 -60.5q-3 -4 -3 -9q0 -3 5 -8q19 -17 40 -31l41.5 -26.5
l27.5 -16.5q31 -18 74 -23q27 -3 45 23q17 22 17 37q0 7 -3 13q-6 13 -15 13t-23 -15q-2 -2 -5 -6t-7 -3q-7 0 -7 5q0 9 10 16q17 10 38 10q12 0 19 -5q13 -10 13 -26zM-8 408l-3 -14q-2 -22 4 -43t21 -17q16 4 25.5 19.5t9.5 31.5q0 12 -6 19.5t-17 7.5q-6 0 -9 -1zM-32 36
q-7 10 -27 10q-23 0 -36 -13q-16 -15 -19 -35q-1 -4 -1 -11q0 -10 3.5 -18.5t9 -16.5t7.5 -12q23 16 35.5 35.5t26.5 50.5q3 5 1 10z" />
    <glyph glyph-name="M.init" horiz-adv-x="637" 
d="M400 74l-9 -27q-2 -7 -2 -21q0 -17 1 -25q2 -9 5 -9t12 7q31 31 40 54l9 21.5t11 30.5t4 26t-4 23q0 1 -1 3.5t2 5.5q6 4 10 0q24 -11 19 -38q-13 -68 -66 -132q-14 -18 -35 -20q-6 -1 -15 -2t-20 -1q-12 0 -18 3q-33 15 -33 56q0 7 2 25q6 34 28 104l84 240l18 56l1 8
q0 5 -4 8q-2 1 -5 1q-6 0 -14 -6q-12 -8 -29 -29q-29 -36 -48.5 -68t-28.5 -66q-8 -26 -15 -58q-3 -27 -29 -34q-14 -4 -20 -4q-14 0 -23 10q-10 13 -10 29q0 6 2 18q19 82 26 154l1 8q2 27 -17 27q-8 0 -22 -6q-17 -6 -31 -17.5t-31 -29.5q-1 -2 -5 -6q-14 -16 -14 -27
q0 -7 5 -15q2 -3 3 -7t3 -7q18 -36 18 -84q0 -51 -20 -118q-19 -64 -88 -94q-12 -5 -28 -5q-12 0 -18 1q-12 2 -13 11q-5 14 -3 26q4 23 5 32q5 34 10 56t16 45l11 24q2 5 12.5 28t23.5 42q17 27 14 56q1 13 -2.5 23t-11.5 21q-6 8 -19 8q-18 0 -33 -14q-19 -17 -26 -36
l22 4q5 1 13 1q19 0 29.5 -10t10.5 -25q0 -20 -15 -38t-41 -23q-19 -4 -28 11.5t-9 41.5q0 16 3 29q-36 -2 -51 -2q-40 0 -74 4.5t-85 13.5q-56 10 -93.5 14.5t-84.5 4.5q-100 0 -231 -27l-7 -1q-8 0 -8 4q0 5 9 7q133 25 235 25q56 0 102 -5.5t101 -16.5q50 -9 78.5 -12.5
t60.5 -3.5q24 0 50 3q8 21 23 36.5t34 22.5q15 5 25 5q19 0 35 -13q5 -5 15 -16q5 -7 8 -7q4 0 13 11q27 35 53 53q26 20 50 20q11 0 24 -5q66 -26 63 -92v-7q0 -9 6 -13q26 38 32 49q10 17 25.5 35.5t20.5 25.5q20 24 38 24q6 0 18 -4q46 -19 45 -70q-5 -112 -56 -219
q-22 -46 -44 -120zM-19 351l-3 -15q-2 -22 4 -43t21 -17t25 19.5t10 31.5q0 12 -6 19.5t-18 7.5q-6 0 -9 -1q-16 -2 -24 -2zM54 208q13 51 12 78q-60 -94 -60 -171q0 -29 7 -53q14 25 20 48.5t14 64.5z" />
    <glyph glyph-name="N.init" horiz-adv-x="476" 
d="M240 74l-9 -27q-2 -7 -2 -21q0 -17 1 -25q2 -9 5 -9t12 7q31 31 40 54l9 21.5t11 30.5t4 26t-4 23q0 1 -1 3.5t2 5.5q6 4 10 0q24 -11 19 -38q-13 -68 -66 -132q-14 -18 -35 -20q-6 -1 -15 -2t-20 -1q-12 0 -18 3q-33 15 -33 56q0 7 2 25q6 34 28 104l84 240l18 56l1 8
q0 5 -4 8q-3 1 -9 1q-21 0 -56 -20.5t-49 -34.5q-20 -20 -27 -32.5t-5 -31.5q1 -9 1 -27q0 -57 -22 -151q-14 -53 -37 -98q-36 -70 -95 -67l-12 -1q-4 -1 -11 -1q-18 0 -25 9.5t-5 30.5q4 28 17 58q19 43 41.5 84.5l58.5 103.5q12 19 20.5 44t10.5 45q1 27 -8 55q-3 9 -16 9
q-20 0 -35 -15q-20 -16 -27 -36l22 4q5 1 13 1q20 0 30.5 -10t10.5 -25q0 -20 -15.5 -38t-41.5 -23q-19 -4 -28 11t-9 40q0 13 4 31q-36 -2 -51 -2q-41 0 -75 4.5t-85 13.5q-56 10 -93.5 14.5t-84.5 4.5q-101 0 -231 -27l-6 -1q-8 0 -8 4q0 6 9 7q132 25 235 25
q55 0 99 -5.5t103 -15.5q44 -8 75.5 -12.5t64.5 -4.5q23 0 50 3q8 21 23 37t34 22q15 5 25 5q19 0 34 -13q10 -8 15 -16q9 -12 17 -28q7 4 14 11.5l10 10.5q24 24 59 44t65 20q8 0 22 -4q46 -19 45 -70q-5 -112 -56 -219q-22 -46 -44 -120zM-15 386l-3 -14q-2 -22 4 -43
t21 -17q16 4 25.5 19.5t9.5 31.5q0 12 -6 19.5t-17 7.5q-6 0 -9 -1zM41 266q-12 -20 -14 -23q-33 -51 -50.5 -85.5t-24.5 -71.5q-2 -7 -2 -20t2 -19q2 -8 5.5 -12.5t10.5 -3.5q6 1 9 8.5t5 10.5t3.5 6.5t3.5 6.5q35 107 52 203z" />
    <glyph glyph-name="O.init" horiz-adv-x="317" 
d="M219.5 452.5q20.5 -28.5 20.5 -64.5q0 -17 -4 -30q-22 -79 -45 -139q-33 -85 -108 -173q-23 -28 -36 -37t-28 -9q-6 0 -17.5 2t-22.5 3q-31 4 -49.5 23.5t-21.5 52.5q-1 9 -1 26q0 105 69 195l14 20q-36 -4 -75 -4q-41 0 -76 4.5t-84 13.5q-59 10 -95 14.5t-83 4.5
q-101 0 -232 -27l-7 -1q-8 0 -8 4q0 5 9 7q132 25 235 25q56 0 102 -5.5t101 -16.5q50 -9 78.5 -12.5t60.5 -3.5q40 0 79 7q8 14 13 33q16 49 52 85q22 23 39 32t35 9q8 0 32 -4q33 -6 53.5 -34.5zM223 380q0 47 -33 82q-15 15 -38 15q-17 0 -32 -9q-64 -35 -87 -104
q0 -1 -1.5 -6t3.5 -7q18 -7 18 -22q0 -12 -10 -29q-8 -13 -8 -27q0 -18 17 -33q22 -19 48 -19q21 0 41 10q30 14 48 31t20 44q0 5 4 15q10 31 10 59zM173 221q-34 -14 -59 -14t-47.5 10t-46.5 29q-23 -40 -34 -103q-4 -21 -4 -46q0 -31 9 -52q6 -15 10.5 -21.5t10.5 -6.5
t15 6.5t21 16.5q40 34 70 76.5t57 96.5q4 6 -2 8z" />
    <glyph glyph-name="P.init" horiz-adv-x="343" 
d="M304 415q-8 -114 -78 -197q-4 -5 -12 -13.5t-15 -13.5q-31 -28 -59 -28q-12 0 -21 4l-5 2.5t-6 1.5l-8 -2q-12 -44 -16 -56q-19 -60 -63 -94q-11 -9 -29.5 -14t-36.5 -5q-22 0 -32 7q-10 8 -10 24q0 8 1 13q9 42 33 99q39 88 90 174q12 21 12 40l5 63q1 27 -8 55
q-3 9 -16 9q-20 0 -35 -15q-20 -16 -27 -36l22 4q5 1 13 1q20 0 30.5 -10t10.5 -25q0 -20 -15.5 -38t-41.5 -23q-19 -4 -28 11t-9 40q0 13 4 31q-36 -2 -51 -2q-41 0 -75 4.5t-85 13.5q-56 10 -93.5 14.5t-84.5 4.5q-101 0 -231 -27l-6 -1q-8 0 -8 4q0 6 9 7q132 25 235 25
q55 0 99 -5.5t103 -15.5q44 -8 75.5 -12.5t64.5 -4.5q23 0 50 3q8 21 23 37t34 22q11 4 24 4q26 0 46.5 -18t24.5 -45l41 42q15 15 32 25q26 16 44 16q12 0 28 -8q54 -28 51 -92zM245 470q0 7 -1 11q-2 10 -4 13.5t-8 3.5q-3 0 -15 -2q-49 -13 -93 -62q-15 -15 -11 -31
q4 -7 4 -23v-23q0 -21 3 -30q35 23 52 23q15 0 25 -18q-6 -6 -12 -2q-5 4 -12 4q-12 0 -28 -16q-18 -16 -22 -32q-11 -31 -11 -60q0 -11 4 -31l3 -8q3 -5 7 -5t8 3q10 6 21 19q18 23 33 55q22 44 33.5 88.5t22.5 106.5q1 5 1 16zM-36 424l-3 -14q-2 -22 4 -43t21 -17
q16 4 25.5 19.5t9.5 31.5q0 12 -6 19.5t-17 7.5q-6 0 -9 -1zM43 299q0 6 -1 9q-7 -4 -9.5 -10.5t-3.5 -7.5q-35 -56 -70 -137q-19 -47 -27 -103v-7q0 -9 3 -17q5 -8 9 -8q6 0 13 10q13 15 24 41q19 40 29.5 78.5t24.5 105.5l4 22q4 16 4 24z" />
    <glyph glyph-name="Q.init" horiz-adv-x="317" 
d="M219.5 452.5q20.5 -28.5 20.5 -64.5q0 -17 -4 -30q-26 -92 -45 -139q-48 -102 -108 -173q-21 -24 -31 -33l-1 -3v-4q0 -9 13 -4q25 12 41 25q2 2 9 8t17 5q-14 -34 -56 -55q-10 -4 -14 -4q-20 0 -30 20q-3 -1 -10 -1q-5 0 -21 2l-21 3q-31 4 -49.5 23.5t-21.5 52.5
q-1 9 -1 26q0 105 69 195q9 11 18 28q-37 -4 -77 -4q-41 0 -75 4.5t-85 13.5q-56 10 -93.5 14.5t-84.5 4.5q-101 0 -232 -27l-7 -1q-8 0 -7 4v1q0 4 8 6q133 25 235 25q56 0 102 -5.5t101 -16.5q49 -8 78.5 -12t61.5 -4q39 0 80 7q6 11 9 25q16 49 52 85q22 23 39 32t35 9
q8 0 32 -4q33 -6 53.5 -34.5zM223 380q0 47 -33 82q-15 15 -38 15q-17 0 -32 -9q-64 -35 -87 -104q0 -1 -1.5 -6t3.5 -7q18 -7 18 -22q0 -12 -10 -29q-8 -13 -8 -27q0 -18 17 -33q22 -19 48 -19q21 0 41 10q30 14 48 31t20 44q0 5 4 15q10 31 10 59zM173 221
q-34 -14 -59 -14t-47.5 10t-46.5 29q-23 -40 -34 -103q-4 -20 -4 -43q0 -17 3 -34q8 11 21 17t24 4q15 -2 23.5 -12.5t6.5 -23.5q35 33 62 72.5t53 89.5q4 6 -2 8zM12 17q5 0 15 7q7 20 9 34q1 3 1 8q0 6 -5 6q-1 0 -9 -2q-14 -4 -32 -22h-0.5t-0.5 -1l1 -2q10 -28 21 -28z
" />
    <glyph glyph-name="R.init" horiz-adv-x="412" 
d="M274 556q33 0 57 -22.5t24 -54.5q0 -4 -2 -16q-2 -10 -9 -21t-8 -13q-21 -34 -45.5 -56t-58.5 -32l-20 -8l-4 -4q26 -17 37 -41q11 -25 11 -52q0 -21 -2 -47t-3 -37q-2 -13 -4 -41q-2 -30 -2 -43q0 -68 36 -67q13 5 18 5q6 0 6 -5t-6.5 -11.5t-13.5 -8.5q-10 -3 -24 -3
q-25 0 -50 10.5t-36 25.5q-8 11 -13 33t-5 38q0 33 8 65.5t25 81.5q2 5 8.5 24.5t6.5 36.5q0 12 -3.5 18.5t-14.5 7.5q-5 1 -13 1q-9 0 -12.5 -5.5t-5.5 -19.5q-7 -70 -24 -118q-3 -5 -5 -13q-19 -48 -46 -68.5t-72 -21.5h-20q-22 0 -30.5 5.5t-8.5 22.5q0 30 17 79l7 23
q11 39 32 77t52 82q13 18 14 39q1 19 5 52q1 27 -8 55q-3 9 -16 9q-20 0 -35 -15q-19 -16 -27 -36l22 4q5 1 13 1q20 0 30.5 -10t10.5 -25q0 -20 -15.5 -38t-41.5 -23q-19 -4 -28 11t-9 40q0 13 4 31q-36 -2 -51 -2q-41 0 -75 4.5t-85 13.5q-56 10 -93.5 14.5t-84.5 4.5
q-101 0 -231 -27l-6 -1q-8 0 -8 4q0 6 9 7q132 25 235 25q55 0 99 -5.5t103 -15.5q44 -8 75.5 -12.5t64.5 -4.5q23 0 50 3q8 21 23 37t34 22q14 4 21 4q27 0 53 -16.5t32 -38.5q6 3 12.5 10.5t9.5 11.5q24 23 46 37.5t47 20.5q12 2 17 2zM291 519q0 10 -3 14.5t-10 4.5
l-13 -2q-57 -14 -113 -77q-4 -4 -4 -9q0 -2 2 -8q3 -12 3.5 -29t0.5 -25q1 -6 2.5 -21.5t5.5 -26.5q39 16 67 55t48 76q14 22 14 48zM-13 458l-3 -14q-2 -22 4 -43t21 -17q16 4 25.5 19.5t9.5 31.5q0 12 -6 19.5t-17 7.5q-6 0 -9 -1zM49 253q5 30 8 59l3 23l-5 -5
q-49 -73 -65 -133q-8 -29 -12 -48t-3 -38q2 -22 14 -22q7 0 11 4.5t6.5 10.5t3.5 8l9 20q8 17 12 38t6 28q7 25 12 55z" />
    <glyph glyph-name="S.init" horiz-adv-x="325" 
d="M231 490q0 -5 -2 -19q-14 -71 -82 -115q-12 -9 -17 -12q-12 -6 -12 -14q0 -6 2 -10l24 -60q3 -9 8 -22.5t13 -31.5q15 -36 15 -76q0 -46 -20 -98q-28 -67 -114 -96q-17 -5 -51 -11q-18 -2 -25 -4q-3 -1 -8 -1q-11 0 -21 12q-23 33 -23 67q0 20 7 40l8 21q6 18 10 27
q13 22 27 33.5t36 11.5q26 0 39 -27q6 -12 6 -25t-7 -32q-14 -33 -50 -35q33 36 33 67q0 18 -12 33q-8 10 -16 10q-11 0 -24 -16q-1 -2 -4 -5t-4 -6q-19 -38 -19 -75q0 -47 35 -72q10 -7 15 -7q7 0 22 16q26 30 39 72q15 50 15 107q0 35 -5.5 69.5t-15.5 79.5l-4 23
q-65 -18 -122 -18q-34 0 -65.5 5.5t-75.5 15.5q-61 13 -101 19.5t-93 6.5q-87 0 -191 -22l-6 -1q-8 0 -8 4q0 5 9 7q111 21 201 21q61 0 110 -7t106 -20q47 -10 75 -14.5t57 -4.5q53 0 102 16l-5 23q-10 50 -10 75q0 13 1 20q2 30 24 57.5t54 40.5q24 10 46 10q24 0 46 -11
q28 -11 28 -42zM208 489q0 19 -10 29.5t-27 10.5q-24 0 -45.5 -14.5t-31.5 -36.5q-10 -23 -10 -45q0 -19 5.5 -34.5t16.5 -40.5q2 -5 5 -5q2 0 8 4q36 25 57 48t26 55q5 13 5 19z" />
    <glyph glyph-name="T.init" horiz-adv-x="347" 
d="M392 504q0 -19 -23 -36q-36 -26 -86 -38q-8 -2 -22 -4t-16.5 -8.5t-6.5 -29.5q-3 -21 -4.5 -47t-2.5 -36q0 -36 -4 -67q-6 -45 -28 -124q-24 -47 -46 -72t-45.5 -33.5t-55.5 -8.5q-22 0 -34 1q0 5 16 19q26 21 46.5 47.5t32.5 73.5l8 43q16 81 20 124q8 64 23 103
q2 8 2 10q0 6 -8 9q-48 15 -99 15q-23 0 -34.5 -3.5t-17.5 -14.5l30 5q5 1 13 1q19 0 29.5 -10t10.5 -26q0 -19 -15 -37t-41 -23q-4 -1 -11 -1q-21 0 -36.5 12t-15.5 31q0 16 10 38q-14 -1 -40 -1q-62 0 -154 15q-58 9 -96 13t-87 4q-93 0 -223 -21l-6 -1q-7 0 -8 4v1
q0 4 8 6q131 26 236 26q54 0 96 -5.5t106 -16.5q44 -8 75.5 -12.5t64.5 -4.5q21 0 32 1q11 20 25 26t46 6q53 -2 99 -13q8 -3 12 -3t8 4.5t8 12.5q24 40 70 71q32 23 69 23q24 0 40 -10l19 -15q11 -8 11 -23zM369 513q0 14 -13 18q-8 4 -20 4q-15 0 -29.5 -8.5t-24.5 -23.5
q-14 -19 -29 -57q51 4 101 41q15 12 15 26zM20.5 420q-8.5 -1 -19.5 -1l-1 -3q-11 -20 -11 -38q0 -16 9 -25q8 -9 23 -9q8 0 12 1q15 4 25 19.5t10 31.5q0 12 -6 19.5t-18 7.5q-6 0 -9 -1q-6 -1 -14.5 -2z" />
    <glyph glyph-name="U.init" horiz-adv-x="492" 
d="M313 161q-9 -41 -9 -67q0 -42 19 -72q2 -4 2 -5q0 -5 -13 -9q-19 -8 -38 -8q-24 0 -39.5 14t-22.5 39q-5 16 -5 41q0 23 5 51q22 112 82 240q22 49 35 106l1 7q0 6 -5 11q-20 -13 -32.5 -30.5t-23.5 -41.5q-5 -14 -17 -42q-28 -70 -47 -126q-20 -63 -59 -127
q-16 -25 -31 -40q-16 -17 -36 -17q-29 0 -44 2.5t-26 15.5q-11 17 -11 29q0 46 17 99q37 121 80 211q10 21 10 37t-10 25t-25 9q-25 0 -47 -20q-18 -16 -27 -36l23 4q5 1 13 1q19 0 29.5 -10t10.5 -25q0 -20 -15 -38t-41 -23q-19 -4 -28 11.5t-9 41.5q0 16 3 29
q-36 -2 -51 -2q-41 0 -74.5 4.5t-83.5 13.5q-58 10 -95 14.5t-85 4.5q-100 0 -231 -27l-6 -1q-8 0 -8 4q0 5 9 7q133 25 235 25q56 0 102 -5.5t101 -16.5q50 -9 78.5 -12.5t60.5 -3.5q25 0 50 3q8 21 23 36.5t34 22.5q22 9 54 9q35 0 57.5 -15.5t22.5 -50.5q0 -16 -4 -31
q-6 -26 -17 -55q-9 -26 -25 -78l-9 -31l-4.5 -15.5l-5.5 -18.5q-1 -4 -7 -23t-9.5 -35t-3.5 -29q-3 -15 -3 -17q0 -5 3 -11q30 22 58 67q18 30 35 72l68 179q12 33 38 68q11 13 17.5 17.5t15.5 4.5t14 -1q45 -3 51 -48q1 -8 1 -24q0 -58 -23 -121q-38 -106 -52 -167zM-7 448
q-3 -6 -3 -14q-2 -22 4 -43t21 -17t25 19.5t10 31.5q0 12 -6 19.5t-18 7.5q-6 0 -9 -1z" />
    <glyph glyph-name="V.init" horiz-adv-x="420" 
d="M324 249q0 -2 -4 -10q-18 -41 -57 -37h-5q-6 0 -10.5 -3.5t-9.5 -11.5l-49 -93q-20 -38 -55 -75q-15 -17 -33 -17q-12 0 -34 -2q-28 -2 -45.5 11t-22.5 38q-4 17 -4 41q0 38 11 82q16 64 20 82l20 82q5 25 5 39q0 22 -7.5 34.5t-19.5 12.5q-14 0 -33 -17q-20 -16 -27 -36
l22 4q5 1 13 1q20 0 30.5 -10t10.5 -25q0 -20 -15.5 -38t-41.5 -23q-19 -4 -28 11t-9 40q0 13 4 31q-36 -2 -51 -2q-41 0 -75 4.5t-85 13.5q-56 10 -93.5 14.5t-84.5 4.5q-101 0 -231 -27l-6 -1q-8 0 -8 4q0 5 9 7q132 25 235 25q55 0 99 -5.5t103 -15.5q44 -8 75.5 -12.5
t64.5 -4.5q23 0 50 3q8 21 23 37t34 22q21 8 38 8q31 0 49 -24.5t16 -77.5v-23q0 -6 -1 -26t-4 -38q-7 -41 -20 -131q-1 -8 -1 -23q0 -22 5 -47q1 -5 2.5 -8.5t4.5 -3.5t13 8q21 15 34 35q54 83 74 120q4 10 4 14t-4 8q-40 28 -40 96q0 41 12 84t33 92q7 17 28 42
q14 16 31 20q10 2 15 2q19 0 35 -12t17 -30l1 -17q0 -54 -31 -126q-18 -45 -58 -135q-1 -2 -3.5 -6t-2.5 -7t3 -5l4 -1q6 0 10.5 4.5t6.5 5.5l26 24q8 8 14 5q4 -1 4 -5zM248 252q35 75 52 117t28 88q3 15 3 29q0 13 -4 37q-3 19 -20 19q-14 0 -29 -15q-21 -21 -33 -55
l-18 -55q-17 -49 -17 -93q0 -29 10 -64q1 -7 6 -17q2 -8 10 -7q5 2 6.5 6t2.5 5q1 0 3 5zM-40 360l-3 -14q-1 -23 5 -43.5t21 -16.5t24.5 19.5t9.5 31.5q0 12 -6 19.5t-17 7.5q-6 0 -9 -1z" />
    <glyph glyph-name="W.init" horiz-adv-x="544" 
d="M513 542q0 -27 -1.5 -45.5t-8.5 -37.5q-25 -76 -40 -118t-38 -85l-18 -34q-37 -64 -54 -107q-1 -5 -12 -21q-21 -28 -41 -59.5l-25 -39.5q-16 -22 -28.5 -29t-35.5 -6l-15 1q-30 -3 -48.5 15t-18.5 49q0 10 1 16q11 75 36 150q22 59 29 96q0 2 1 5.5t0.5 6t-3.5 3.5h-2
q-7 0 -15 -8q-29 -30 -45 -71q-21 -50 -53 -152l-15 -43q-4 -9 -10 -11q-4 -1 -13 -1q-21 0 -42.5 10t-28.5 24q-11 30 -9 51q5 58 18 103l24 79q4 12 4 25q0 18 -8.5 28.5t-22.5 10.5q-15 0 -32 -15q-19 -16 -27 -36l22 4q5 1 13 1q19 0 29.5 -10t10.5 -26q0 -19 -15 -37
t-41 -23q-19 -4 -28 11t-9 40q0 13 4 31q-36 -2 -51 -2q-41 0 -75 4.5t-85 13.5q-56 10 -93.5 14.5t-84.5 4.5q-101 0 -231 -27l-6 -1q-8 0 -8 4q0 6 9 7q132 25 235 25q55 0 99 -5.5t103 -15.5q44 -8 75.5 -12.5t64.5 -4.5q23 0 50 3q8 21 22.5 37t33.5 22q21 8 44 8
q32 0 52 -16t17 -51q0 -7 -2 -44.5t-10 -73.5q-6 -22 -6 -55q0 -19 1 -29q18 24 40 74l42 87q7 16 25 38q17 21 35 21q7 0 16 -3q21 -8 27 -28q9 -22 9 -47q0 -13 -4 -39q-20 -98 -29 -147q-4 -22 -4 -34q0 -18 8 -30q10 3 16.5 11t8.5 10l72 89q5 6 13 18q36 75 74 135
q4 8 4 10q0 7 -12 11q-29 11 -47 25t-23 39q-5 15 -5 37q0 17 2 26q11 72 44 122q22 36 51 54q21 15 41 15q7 0 10 -1q43 -5 43 -44zM492 526q0 14 -1 21q-1 26 -19 26q-14 0 -29 -11q-26 -17 -48 -53q-20 -34 -35 -90q-8 -19 -8 -45q0 -18 1 -27q3 -22 10 -37.5t24 -23.5
q12 -6 20 -6q16 0 26 28q12 32 25 71l6.5 19.5l7.5 21.5q20 60 20 106zM-88 287l-3 -14q-2 -22 4 -43t21 -17q16 4 25.5 19.5t9.5 31.5q0 12 -6 19.5t-17 7.5q-6 0 -9 -1z" />
    <glyph glyph-name="X.init" horiz-adv-x="342" 
d="M229 6q6 0 6 -5t-6.5 -11.5t-13.5 -8.5q-11 -3 -24 -3q-25 0 -50 10.5t-36 25.5q-4 6 -10 13t-9 13t-3 15l-10.5 29t-9.5 40q0 13 -9 19q-8 -8 -17.5 -21t-14.5 -19l-34 -45q-6 -9 -11 -13t-12 0q-4 3 -4 6q0 4 4 9t5 6q23 33 71 97q18 21 15 43q-2 20 -2 36q0 23 1 43
t2 34q4 64 3 85q1 22 -8 55q-3 9 -16 9q-20 0 -35 -15q-20 -17 -27 -36l22 4q5 1 13 1q19 0 29.5 -10t10.5 -26q0 -19 -15 -37t-41 -23q-19 -4 -28 11t-9 40q0 13 4 31q-36 -2 -51 -2q-41 0 -75 4.5t-85 13.5q-56 10 -93.5 14.5t-84.5 4.5q-101 0 -231 -27l-6 -1q-8 0 -8 4
v1q0 4 8 6q133 25 235 25q56 0 102 -5.5t101 -16.5q49 -8 78.5 -12t61.5 -4q23 0 50 3q7 21 22 37t34 22q15 5 25 5q20 0 35 -13q33 -28 44 -81q8 -20 9 -33t8 -32l6 -21q17 17 45 55q30 40 50 60q1 -2 1 -5q0 -6 -4 -11.5t-5 -7.5q-28 -51 -71 -103q-15 -20 -11 -36
q6 -26 12 -80q6 -48 11 -70l6 -33q6 -35 12 -49.5t20 -18.5q13 5 18 5zM-30 408l-3 -14q-2 -22 4 -43t21 -17q16 4 25.5 19.5t9.5 31.5q0 12 -6 19.5t-17 7.5q-6 0 -9 -1z" />
    <glyph glyph-name="Y.init" horiz-adv-x="420" 
d="M354.5 533q8.5 -11 8.5 -28q0 -13 -6 -30q-13 -39 -36 -79q-25 -42 -27 -90q0 -62 -7 -151q-3 -26 -12 -51q-12 -32 -16 -48q-15 -53 -52 -87t-92 -49q-36 -10 -56 -10q-26 0 -50 17t-30 40q-5 18 -5 35q0 22 9 56q11 35 49 56q31 17 59 17q16 0 28 -4q28 -9 28 -50
q0 -18 -23 -34q-4 -2 -14 -9t-18 -7q-3 0 -9 2q1 7 8 11.5t10 8.5q13 13 13 35q0 12 -5 22t-14 13q-2 1 -7 1t-9 -1t-7 -2q-29 -6 -48.5 -26.5t-23.5 -48.5q-1 -7 -1 -19q0 -75 72 -94q13 -3 29 4.5t28 22.5q29 37 36 71l6 25q11 49 17 82t7 66q-8 -1 -15.5 -8l-10.5 -10
q-18 -15 -38 -15q-38 2 -69 7q-25 4 -39 22.5t-12 46.5q5 76 47 169q8 17 8 35t-9.5 29.5t-24.5 11.5q-16 0 -33 -15q-19 -16 -27 -36l22 4q5 1 13 1q20 0 30.5 -10t10.5 -25q0 -20 -15.5 -38t-41.5 -23q-19 -4 -28 11t-9 40q0 13 4 31q-36 -2 -51 -2q-41 0 -75 4.5
t-85 13.5q-56 10 -93.5 14.5t-84.5 4.5q-101 0 -231 -27l-6 -1q-8 0 -8 4q0 6 9 7q132 25 235 25q55 0 99 -5.5t103 -15.5q44 -8 75.5 -12.5t64.5 -4.5q23 0 50 3q8 21 23 37t34 22q21 8 46 8q29 0 48 -14.5t19 -46.5q0 -5 -2 -19q-3 -15 -5 -44q-2 -30 -4 -44q-1 -6 -6 -41
t-5 -66q0 -17 3.5 -25t12.5 -8q13 0 38 19q43 30 47 74q12 108 65 209q7 13 25 37q10 14 24 14q5 0 8 -1q16 -3 24.5 -14zM344 503q0 11 -3 20q-2 13 -12 11q-5 -1 -8 -6.5t-4 -7.5q-9 -20 -11.5 -38t-4.5 -50q0 -16 -1 -24h6l9 19l10.5 22.5t13.5 31.5q5 10 5 22zM-33 428
l-3 -14q-1 -23 4.5 -43.5t20.5 -16.5q16 4 25.5 19.5t9.5 31.5q0 12 -6 19.5t-17 7.5q-6 0 -9 -1z" />
    <glyph glyph-name="Z.init" horiz-adv-x="355" 
d="M149 514q36 0 61 -22.5t25 -57.5q0 -9 -1 -14q-8 -45 -19.5 -71t-47.5 -74q33 -12 43.5 -39.5t10.5 -72.5q0 -39 -24 -88t-63.5 -90.5t-79.5 -58.5q-22 -9 -47.5 -14.5t-49.5 -9.5h-2q-16 -2 -22 -2q-29 0 -44 19q-23 28 -23 58q0 11 3 23l5 20q1 9 5 20q16 63 83 103
q21 14 48 14q34 0 50 -22q12 -16 12 -36q0 -17 -10 -39q-11 -21 -33 -32.5t-45 -11.5q-11 0 -20 3q-7 4 -7 12q0 6 1 9q0 11 7 12l3 1q2 0 3.5 -2.5t2.5 -3.5q1 -3 2 -8.5t4 -8.5t9 -2q21 1 39 23q14 19 14 45q0 17 -5.5 30t-15.5 18q-4 2 -12 2q-10 0 -18 -4
q-32 -12 -56.5 -39.5t-31.5 -59.5q0 -11 -3 -20q-3 -15 -3 -27q0 -27 13.5 -45.5t39.5 -31.5q6 -3 13 -3q13 0 31 13q54 40 80 78q67 96 92 198q5 18 5 34q0 9 -1 13q-3 11 -9 11t-15 -9l-47 -47q-15 -13 -28 -13q-7 0 -11 2q-6 2 -16 3.5t-17 3.5q-15 3 -15 8q0 6 10 17
l81 100q25 32 56 79q18 26 21 41q4 12 4 24q0 28 -26 28q-13 0 -25 -5q-52 -18 -84 -54q-17 -19 -30 -39q21 0 31 -11t10 -29q0 -22 -15.5 -40t-40.5 -18q-36 0 -34 35q-2 26 10 49q-20 -2 -57 -2q-41 0 -76 4.5t-84 13.5q-59 10 -95 14.5t-83 4.5q-101 0 -232 -27l-7 -1
q-8 0 -8 4q0 5 9 7q132 25 235 25q56 0 102 -5.5t101 -16.5q52 -9 80.5 -12.5t60.5 -3.5q31 0 59 4q1 3 5 9q39 59 106 94q25 14 53 14zM29.5 328.5q9.5 14.5 9.5 32.5q0 15 -7 23.5t-20 7.5q-11 -14 -14.5 -29t-3.5 -34q0 -15 11 -15q15 0 24.5 14.5z" />
    <glyph glyph-name="a" unicode="a" horiz-adv-x="459" 
d="M147 55q-4 26 -4 39q0 42 16 92q3 7 7 21l-3 3q-6 -1 -9.5 -7t-5.5 -9q-33 -45 -69 -87q-14 -17 -29 -28q-29 -22 -53 -22q-7 0 -10 1q-8 1 -24.5 2t-28.5 5q-18 6 -26.5 16t-8.5 25q0 11 2 18q11 47 31.5 85.5t56.5 71.5q45 39 94 47q3 1 10 1q14 0 29.5 -6.5l22.5 -9.5
q10 -4 17 -11t13.5 -16.5t11.5 -15.5l15 21q16 22 25 32q12 14 24 14q13 0 18 -14q5 -11 5 -29q0 -8 -5 -46q-9 -50 -24 -104q-9 -30 -11 -63t-2 -38t2 -13.5t7 -10.5q36 4 89.5 74.5t108.5 172.5q5 7 9 7q9 0 3 -11q-25 -56 -76.5 -131t-96.5 -114q-12 -10 -29.5 -15
t-35.5 -5q-34 0 -48 17q-13 14 -18 41zM65 119q31 31 85 99l15 18q10 11 10 23q0 8 -5 16q-20 32 -58 41q-3 1 -10 1q-18 0 -36 -16q-13 -11 -22 -30l-14 -31.5t-16 -45.5q-14 -54 -14 -91q0 -14 1.5 -19.5t5.5 -5.5q3 0 13 5q21 12 45 36z" />
    <glyph glyph-name="b" unicode="b" horiz-adv-x="350" 
d="M-22 16q-4 9 -4 21q0 8 5 35l2 12q0 4 -4 5t-12 1q-17 0 -22 4.5t-8 21.5q-3 18 -3 37q0 35 9 85l4 32q16 101 46 174q25 62 80 122q39 39 82 39q18 0 30 -5q37 -13 37 -48q0 -17 -8 -36q-14 -34 -36 -66q-53 -72 -98 -122q-1 -1 -6 -5.5t-5 -10.5q25 13 47 13
q26 0 56 -23q18 -14 28 -40q4 -21 6 -42t1 -27q40 8 71 23.5t53 49.5q5 7 9 7t5 -3t-2 -8q-43 -64 -138 -82q-9 -54 -55 -112q-28 -36 -64 -51.5t-84 -16.5q-15 0 -22 16zM96 365q13 16 16 20q61 73 85 129q9 20 9 36t-10 29q-9 12 -25 12q-12 0 -23.5 -7.5t-18.5 -19.5
q-5 -9 -9 -27q-11 -54 -28 -104q-20 -57 -26 -99q17 15 30 31zM107 180l2 32q4 44 4 67q0 14 -2 22q-1 1 -2.5 5t-5.5 4q-12 0 -31.5 -18t-22.5 -32l-15 -75q-2 -8 -2 -13q0 -6 3 -14q47 21 72 22zM24 16q12 0 25 22q25 39 38 66.5t19 64.5q-19 -2 -32.5 -6.5t-26.5 -13.5
q-10 -7 -18 -27q-6 -12 -9.5 -18t-12.5 -11q-1 -1 -2.5 -5t-1.5 -5q-1 -4 -2 -11t-1 -17q0 -13 5 -22q9 -17 19 -17z" />
    <glyph glyph-name="c" unicode="c" horiz-adv-x="269" 
d="M20.5 -10.5q-26.5 -10.5 -50.5 -10.5q-33 0 -54 21.5t-21 68.5q0 24 8 62q8 32 18 58q17 48 52.5 81t87.5 56q21 9 38 9q22 0 48 -14q14 -8 14 -26q0 -8 -3 -17q-11 -49 -50 -82q-8 -6 -14 -4q29 37 42 62q9 17 9 33q0 7 -1 11q-4 25 -31 24q-14 -2 -23 -8t-16 -20
q-16 -32 -35 -80q-3 -8 -19 -43.5t-26 -74t-8 -68.5q10 -11 27 -11q20 0 43 14.5t40 29.5q42 40 72.5 81.5t61.5 92.5l19 31q5 7 9 7q9 0 3 -11q-22 -50 -83 -126.5t-110 -118.5q-21 -17 -47.5 -27.5z" />
    <glyph glyph-name="d" unicode="d" 
d="M82.5 55.5q-4.5 21.5 -5.5 54.5v4q0 5 1 9q-10 0 -17.5 -7t-9.5 -9q-18 -17 -38 -14q-20 2 -30 2l-30 2q-22 3 -33 17.5t-11 35.5l1 10q9 42 39 82t82 59q11 5 27 5q6 0 18 -2q19 -4 31 -7q9 7 12 17t4 14q22 57 39 94.5t41 73.5q4 7 33 43q14 14 23.5 20.5t20.5 6.5
q5 0 8 -1q36 -10 36 -48q0 -48 -27 -99q-20 -39 -40.5 -69t-48.5 -56q-11 -11 -13 -20q-15 -57 -28.5 -122t-13.5 -100q0 -27 10 -27q13 1 21 6.5t17 15l15 15.5q42 40 72.5 81.5t61.5 92.5l19 31q5 7 9 7q9 0 3 -11q-22 -49 -83 -126t-110 -119q-18 -21 -45 -21
q-28 0 -43 20q-13 18 -17.5 39.5zM226 338q61 75 75 154q3 15 3 30q0 11 -1 16q-1 11 -9 11q-7 0 -15 -8q-10 -8 -20 -30q-16 -39 -33 -117q-10 -46 -17 -70q10 4 17 14zM66 153q17 19 24 50l13 64q1 3 1 8q0 17 -22 17q-12 1 -18 -3.5t-12 -18.5q-26 -55 -36 -105
q-4 -18 -4 -28q0 -9 3 -17q34 14 51 33z" />
    <glyph glyph-name="e" unicode="e" horiz-adv-x="289" 
d="M8 -13q-42 0 -72 28.5t-34 84.5q-1 33 10 67t33 79q30 60 83 96q16 11 37 17t42 6q30 0 46 -11q21 -13 21 -40q0 -9 -3 -20q-12 -39 -32.5 -69t-55.5 -50q-31 -18 -56 -19q-14 0 -17 -3t-9 -18q-7 -21 -7 -44q0 -29 12 -63q10 -11 27 -11q20 0 43 14.5t40 29.5
q42 40 72.5 81.5t61.5 92.5l19 31q5 7 9 7q9 0 3 -11q-22 -50 -83 -126.5t-110 -118.5q-36 -30 -80 -30zM28 164q48 14 83 50.5t48 83.5q2 8 2 13q0 9 -4 23q-6 17 -27 17q-18 0 -31 -8.5t-24 -27.5q-31 -57 -44 -92q-3 -8 -8.5 -20t-8.5 -21.5t-2 -18.5q11 0 16 1z" />
    <glyph glyph-name="f" unicode="f" horiz-adv-x="300" 
d="M-90 -22q-6 35 -6 70q0 13 2 41q11 141 81 319q16 39 34 63q10 16 20 24q22 20 36.5 28t30.5 8t41 -9q41 -13 41 -49q0 -12 -5 -30q-17 -63 -64 -122l-31 -38l-22 -26q-5 -5 -4 -12q6 1 16 1q38 0 53 -27q10 -17 10 -44q0 -14 -6 -52q41 11 69.5 42.5t48 62l24.5 38.5
q5 7 9 7t5 -3t-2 -8q-41 -63 -77.5 -103.5t-80.5 -49.5q-39 -109 -83 -169q-14 -19 -33 -29.5t-38 -10.5q-23 0 -40 15q-22 21 -29 63zM57 263q73 75 98 140q15 37 15 64q0 11 -3 23q-3 11 -11 16.5t-18 3.5q-12 -3 -17 -10t-9 -19q-31 -88 -51 -170q-7 -30 -11 -50zM99 121
q16 0 20 18q4 15 4 32q0 37 -25 59q-6 6 -13 6t-14 -7q-27 -25 -22 -45q5 -25 7 -34q7 -24 38 -29h5zM25 -61q28 32 47 68t37 86q1 3 1 7q0 6 -3 8t-11 4q-25 3 -42 11.5t-26 28.5l-10 -37l-13 -52q-9 -40 -8 -65q0 -27 2 -42t11 -28q6 2 15 11z" />
    <glyph glyph-name="g" unicode="g" horiz-adv-x="361" 
d="M-46 -73.5q-8 13.5 -8 30.5q0 28 16 50q17 25 40 42q44 35 71 48q16 8 19 12.5t3 20.5q1 11 0.5 21t-0.5 18q-11 -11 -16 -15q-9 -10 -17 -17q-20 -20 -46 -20h-21q-34 0 -49 5q-33 12 -33 40q0 10 5 27q16 39 37 65q20 25 52 38t65 13q17 0 30 -3q14 -4 28 -31q5 1 9 5
l6 6q15 14 30 14t25 -16q5 -10 5 -27q0 -7 -1 -18.5t0 -19.5q0 -6 -2 -15t-3 -18q-4 -22 -4 -26q41 14 81 43.5t64 66.5q5 7 9 7t5 -3t-2 -8q-56 -84 -160 -125l-9 -36q-16 -62 -21 -77q-13 -41 -58 -89q-6 -6 -9 -7q-49 -28 -83 -28q-19 0 -34 7q-16 6 -24 19.5zM43 143
q31 23 46 39.5t20 42.5q1 4 5 12q3 9 3 18q0 18 -11 29.5t-29 11.5q-9 0 -15 -5t-11 -16q-4 -8 -5 -12q-1 -17 -8 -39l-6 -24q-1 -6 -5.5 -23.5t-4.5 -34.5q0 -8 1 -13q18 13 20 14zM11.5 -81.5q13.5 -4.5 21.5 -4.5q12 0 20 11.5t20 42.5q7 19 9 42.5t3 32.5q1 6 3.5 18.5
t2.5 22.5q0 9 -1 13q-35 -20 -61.5 -39.5t-45.5 -44.5q-17 -22 -17 -46q0 -14 7 -25.5t20 -16.5q5 -2 18.5 -6.5z" />
    <glyph glyph-name="h" unicode="h" horiz-adv-x="369" 
d="M111 -25q-24 0 -40 19t-16 49q0 16 3 34q12 66 46 152q10 24 12 36v2q0 4 -3.5 5t-8.5 -2q-16 -9 -29 -27q-70 -87 -80 -163q-4 -20 -15 -31q-14 -14 -28 -14q-9 0 -14 4q-15 10 -15 32q-1 12 -1 36q0 80 24 188q6 27 22 79q13 46 52 100q42 60 111 60q21 0 32 -10.5
t11 -30.5q0 -5 -2 -15q-10 -56 -64 -126q-24 -31 -63 -64q-31 -29 -32 -58q-2 -18 -4 -27q-6 -28 -5 -45q11 10 19 28q30 47 58 78q21 23 47 23l9 -1q32 -3 32 -36q0 -32 -3 -49q-9 -46 -16 -77q-4 -15 -13 -58q-7 -24 -7 -50q1 -11 10 -11q8 0 20.5 9.5t30.5 26.5
q42 40 72.5 81.5t61.5 92.5l19 31q5 7 9 7q7 0 3 -11q-24 -51 -84.5 -128t-109.5 -117q-26 -22 -51 -22zM102 361q45 56 56 112q1 5 1 13q0 23 -18 34q-7 4 -15 4q-18 0 -30 -18q-14 -17 -23 -35q-35 -87 -49 -191q53 48 78 81z" />
    <glyph glyph-name="i" unicode="i" horiz-adv-x="219" 
d="M13 345.5q-4 4.5 -3 11.5q1 6 8 10.5t14 4.5q6 0 9.5 -4.5t2.5 -11.5q-1 -5 -7.5 -10t-13.5 -5q-6 0 -10 4.5zM-44 -8q-29 0 -46.5 21.5t-15.5 50.5q5 91 49 178q10 20 20.5 28t27.5 8q27 0 37 -9t8 -31q-4 -34 -20 -74q-35 -92 -35 -145q7 -7 23 5t42 37
q42 40 72.5 81.5t61.5 92.5l19 31q5 7 9 7q9 0 3 -11q-22 -49 -83 -126t-110 -119q-34 -25 -62 -25z" />
    <glyph glyph-name="j" unicode="j" horiz-adv-x="190" 
d="M-11 345.5q-4 4.5 -3 11.5q1 6 8 10.5t14 4.5q6 0 9.5 -4.5t2.5 -11.5q-1 -5 -7.5 -10t-13.5 -5q-6 0 -10 4.5zM-249 -84q3 81 86 148q42 33 64 44q13 6 19.5 15.5t8.5 24.5q6 36 10 54l5 27q1 14 13 40q5 9 10.5 12.5t13.5 3.5q39 0 44 -31q4 -17 4 -52l-1 -36
q100 34 142 100q5 7 9 7q9 0 3 -11q-24 -40 -59.5 -66t-91.5 -48q-4 -40 -16.5 -87t-30.5 -83q-32 -65 -91 -104q-35 -24 -75 -24q-16 0 -29 3q-43 10 -38 63zM-184 -138q8 0 21 13q12 12 25 34q23 43 36 111l6 22q2 8 5.5 19t6.5 25q1 3 1 8t-4 5q-6 0 -12 -5
q-39 -25 -79 -62q-54 -52 -54 -110q0 -38 36 -56q8 -4 12 -4z" />
    <glyph glyph-name="k" unicode="k" horiz-adv-x="334" 
d="M78 -11q-15 0 -23.5 13t-8.5 39q0 19 2 30q4 36 14 108q3 17 -17 17q-8 0 -17 -3t-13 -7q-7 -7 -7.5 -16.5t-0.5 -12.5q-5 -24 -10 -62l-5 -31q-3 -20 -8.5 -25t-25.5 -7l-22 -2q-10 0 -12 5t-5 24q-3 21 -3 41q0 31 4.5 59.5t14.5 83.5l5 23q21 114 92 233q7 13 20 30
q33 41 74 41q28 0 46.5 -18.5t18.5 -46.5q0 -25 -18 -52q-43 -65 -110 -122q-15 -15 -23 -28.5t-9 -29.5q0 -4 -2 -9.5t-3 -12.5q15 10 30 29q32 34 55 51q19 14 35 14q9 0 19 -5q13 -6 13 -23q0 -26 -23 -59t-54 -44q-3 -1 -7 -3.5t-10 -4.5q19 -7 26 -20t7 -32
q0 -9 -2 -27l-13 -100q-3 -12 2 -12q9 0 31 21l26 25q42 40 72.5 81.5t61.5 92.5l19 31q5 7 9 7q9 0 3 -11q-21 -48 -82.5 -124t-110.5 -121q-31 -28 -55 -28zM156 454q17 24 17 47q0 25 -21 48q-5 6 -12 6q-10 0 -20 -12q-13 -17 -17 -31q-12 -34 -17 -52q-16 -44 -26 -77
q-5 -15 -13 -45q61 47 109 116zM124 276q11 6 19 20.5t8 24.5q0 7 -4 8q-1 1 -4 1q-6 0 -15 -9q-40 -29 -86 -80q-1 -1 -4.5 -5.5t-3.5 -10.5q33 15 90 51z" />
    <glyph glyph-name="l" unicode="l" horiz-adv-x="251" 
d="M-8 -5q-30 0 -53.5 20.5t-28.5 47.5q-3 18 -3 37q0 30 9 79q29 131 88 237q3 5 14.5 25.5t23.5 37.5t25 30q18 18 38 31q25 16 49 16q20 0 36 -9q28 -15 28 -45q0 -11 -3 -23q-12 -48 -39 -90q-35 -52 -62.5 -87t-62.5 -64q-20 -17 -26 -42q-11 -41 -20 -103
q-4 -20 -4 -43q0 -30 12 -31q16 1 30 11.5t35 30.5q42 40 72.5 81.5t61.5 92.5l19 31q5 7 9 7q9 0 3 -11q-22 -49 -83 -126t-110 -119q-27 -22 -58 -22zM47 250q8 6 11 10q28 26 49.5 56t49.5 74l14 22q11 17 16 33.5t12 46.5q1 3 1 9q0 10 -6 26q-6 13 -21 13
q-13 0 -27 -11q-9 -7 -14.5 -16t-11.5 -23q-37 -88 -76 -215q-1 -3 -3 -11.5t0 -16.5z" />
    <glyph glyph-name="m" unicode="m" horiz-adv-x="509" 
d="M251 -25q-24 0 -40 19t-16 49q0 16 3 34q12 66 46 152q11 26 14 45v2q0 9 -11 3q-13 -8 -29 -27q-19 -22 -32 -39t-18 -36q-3 -8 -11 -33.5t-20 -46.5q-10 -16 -15.5 -19.5t-23.5 -3.5q-27 0 -36.5 5t-9.5 22q0 4 2 24q8 53 36 137q10 30 11 46q-9 0 -14 -7
q-64 -64 -87 -138q-4 -12 -4 -26l1 -16q3 -31 -7 -68q-5 -17 -21 -17l-37 -1q-14 0 -17 4.5t-3 24.5v21q-3 74 17 145q1 3 2 8.5t4 12.5q4 16 17 20q21 6 32 6q6 0 10 -2q5 -4 5 -20q0 -8 -2 -26q-2 -21 -1 -27l42 63l21 31q11 14 24.5 21.5t26.5 7.5q20 0 33 -15
q30 -31 31 -85q19 22 34 37q38 38 71 33q32 -3 32 -36q0 -30 -5 -58q-9 -46 -16 -77q-4 -15 -13 -58q-7 -24 -7 -50q1 -11 10 -11q8 0 20.5 9.5t30.5 26.5q42 40 72.5 81.5t61.5 92.5l19 31q5 7 9 7q7 0 3 -11q-24 -51 -84.5 -128t-109.5 -117q-26 -22 -51 -22z" />
    <glyph glyph-name="n" unicode="n" horiz-adv-x="330" 
d="M102 -25q-24 0 -40 19t-16 49q0 16 3 34q6 36 20.5 83.5t30.5 89.5q10 24 13 36v2q0 4 -3.5 5t-8.5 -2q-8 -5 -19 -16t-18 -20q-32 -44 -45 -70q-17 -33 -24 -64.5t-7 -47.5q-3 -24 -9.5 -29.5t-30.5 -4.5l-25 3q-15 2 -19 5.5t-4 14.5q0 25 5 51.5t15 63.5q2 10 8 35.5
t9 46.5q1 9 5 22q4 11 8.5 14t14.5 1q35 -5 42 -43q2 -21 4 -30q11 10 21.5 23t15.5 18q40 44 75 44q7 0 10 -1q32 -3 33 -36q0 -8 -0.5 -20t-2.5 -29q-3 -18 -19 -87q-13 -55 -16 -69q-7 -24 -7 -50q1 -11 10 -11t23.5 11.5t25.5 24.5q35 43 64 92.5t61 112.5q4 7 9 7
q7 0 3 -11q-31 -68 -75 -138.5t-89 -106.5q-26 -22 -51 -22z" />
    <glyph glyph-name="o" unicode="o" horiz-adv-x="303" 
d="M-38.5 -0.5q-19.5 2.5 -34.5 8.5q-26 10 -38.5 29.5t-12.5 46.5q0 12 1 18q16 98 82 155q24 22 43 27q13 3 21 2q7 -2 10 -4t3 -6q0 -3 -5 -13l-16 -29l-21 -40q-31 -64 -31 -119q0 -13 1 -20q0 -11 8 -29q3 -9 11 -9q7 0 14 4q39 23 60 49q68 83 89 170q3 12 3 18t-5 7
t-25 1q-24 0 -40.5 3t-30.5 13q-3 4 -6 6t-5 4q-8 9 -8 21q0 11 8.5 20t24.5 14q12 4 25 4q26 0 48 -19q21 -19 25 -42q0 -17 14 -14q32 7 61 7q23 0 50 -4q2 0 6.5 -0.5t6 -1.5t0.5 -4q-1 -5 -8 -5l-9 1q-35 5 -51 5q-24 0 -66 -9q-14 -82 -75 -183q-27 -42 -68 -74
q-16 -13 -35 -12q-5 1 -24.5 3.5zM133 273q13 0 13 13q-4 38 -42 51q-6 3 -14 3q-15 0 -34 -13q-15 -12 -9 -25q2 -6 13 -17q7 -6 15.5 -8t18 -2.5t14.5 -1.5h25z" />
    <glyph glyph-name="p" unicode="p" horiz-adv-x="363" 
d="M-135 -210q-13 0 -19 8t-10 30q-2 14 -2 20q0 18 8 54q31 111 70 181q11 21 17 58q1 6 6.5 46t18.5 78q1 2 1 5q1 4 3 9.5t4.5 9.5t8.5 5q6 2 9 2q14 0 20 -11q4 -5 12 -26l35 36q23 22 38.5 32t33.5 10q20 0 47 -13q50 -22 52 -89q1 -11 -1.5 -35.5t-5.5 -45.5
q30 6 67.5 39t63.5 73q5 7 9 7t5 -3t-2 -8q-30 -45 -70 -80t-78 -42q-20 -60 -73 -111q-17 -15 -35 -21t-41 -8q-28 0 -51 5l-6 -40q-4 -22 -5 -33q-5 -35 -14 -60q-23 -67 -87 -78q-24 -4 -29 -4zM98 134q10 3 15 17q2 5 12 33.5t14 54.5q1 6 3 20t2 25q0 10 -1 15
q-3 13 -7.5 18.5t-12.5 5.5q-10 0 -26 -9q-44 -23 -80 -80q-4 -7 -4 -17q1 -15 1 -45q0 -41 -3 -89q43 34 87 51zM38 19q4 0 8 6q30 37 52 92q-15 -4 -24.5 -8.5t-22.5 -14.5q-28 -21 -28 -45q0 -13 7 -24q3 -6 8 -6zM-118.5 -185.5q2.5 5.5 4 13t3.5 11.5l1 10l15 100
q8 64 9 97q-5 -3 -7 -6.5t-2 -4.5q-35 -79 -49 -162q-1 -6 -1 -19q0 -15 2 -22q3 -13 5.5 -19.5t9.5 -4.5q7 1 9.5 6.5z" />
    <glyph glyph-name="q" unicode="q" horiz-adv-x="439" 
d="M92 -226q-22 15 -33.5 33.5t-11.5 44.5t12 82q14 73 34 127q4 9 7.5 22.5l5.5 21.5l-17 -14q-16 -12 -30 -26q-26 -28 -58 -25q-26 1 -58 8q-44 9 -44 54l1 12q13 97 85 163q14 13 36 19.5t26 7.5q32 10 57 10q31 0 52 -18q4 -4 9.5 -15t10.5 -16l42 50q6 8 11.5 12
t12.5 2q7 -1 9 -6t2 -14q-2 -52 -21 -138q-15 -67 -30 -109q59 40 125.5 103t91.5 101q5 7 9 7q9 0 3 -11q-17 -37 -85.5 -101.5t-122.5 -105.5q3 -10 11 -30t15 -46q2 -16 2 -23q0 -6 -2 -16q-4 -23 -10 -47t-15 -44q-31 -74 -108 -79q-17 0 -24 4zM58 94q19 15 50 43
q11 8 19 25q19 46 30 64q5 12 5 19q0 6 -3 12q-9 18 -19 28q-12 14 -28 14q-13 0 -25 -9t-21 -26q-2 -2 -2 -3q-37 -78 -53 -141q-3 -12 -3 -23q0 -16 7 -30q24 12 43 27zM192 -169q40 58 40 122q0 52 -28 89q-1 1 -2.5 3.5t-2.5 2.5l-2 -6q-24 -71 -37.5 -115.5
t-22.5 -90.5q-2 -8 -2 -12q0 -12 7 -24q5 -7 10 -7q3 0 11 6q20 20 29 32z" />
    <glyph glyph-name="r" unicode="r" horiz-adv-x="309" 
d="M3 16.5q-21 14.5 -27 44.5q-2 12 -2 19q0 5 2 17q19 76 72 159q8 14 13 21q-8 -1 -27 -5.5t-35 -4.5q-53 0 -87 28.5t-34 69.5q0 29 17 56q23 35 46.5 57.5t56.5 32.5q39 11 61 11t32 -9q11 -9 11 -23q0 -7 -3 -15q-11 -53 -33 -87q-11 -19 -27 -53l-12.5 -25t-12.5 -23
q14 -1 26 2.5t34 14.5q12 6 17 10q17 11 35 11q17 0 29 -10q7 -6 7 -16q0 -7 -5 -19l-33 -75l-40 -92q-16 -39 -18 -86q0 -5 5 -8q16 1 30 11.5t35 30.5q51 50 86 100t67 105q5 7 9 7q9 0 3 -11q-24 -50 -84.5 -127t-108.5 -118q-24 -18 -50 -17q-34 2 -55 16.5zM-12 291
q7 0 10.5 4.5t8.5 12.5q21 36 39.5 76t26.5 70q1 5 3.5 13.5t3.5 14.5q2 7 -2 10.5t-12 3.5q-15 0 -24 -9q-11 -9 -22 -27q-23 -42 -39 -82q-11 -25 -11 -53q0 -11 1 -17q2 -16 16 -17h1z" />
    <glyph glyph-name="s" unicode="s" horiz-adv-x="299" 
d="M-116 -149q-41 5 -41 40q0 8 1 13q11 68 64 117q7 6 23 21t32 25q16 11 13 27q-1 5 -4.5 26.5t-11.5 38.5q-18 43 -16 105q3 80 96 120l4 1q5 2 18 2q26 0 51.5 -15.5t28.5 -35.5q2 -19 -13 -52q-17 -38 -32 -63t-38 -46q-3 -3 -3 -11q0 -10 3.5 -24t6.5 -21
q60 22 121 61.5t92 85.5q5 7 9 7q9 0 3 -11q-26 -46 -89.5 -89.5t-129.5 -71.5q2 -5 7 -30t7 -44q2 -29 -11 -78q-10 -35 -46 -59q-31 -21 -61 -30.5t-67 -9.5q-9 0 -17 1zM59 217q31 47 46 90q4 10 6 28v4q0 8 -5 16t-10 8q-9 0 -17.5 -7.5t-11.5 -9.5q-11 -11 -16 -26
q-13 -42 -13 -76q0 -19 5 -42q9 5 16 15zM-40 -79q11 23 15 46t7 57q1 4 1 12q0 12 -5 22q-33 -24 -55.5 -47t-35.5 -50q-17 -32 -17 -57q0 -15 6 -28q8 -13 17 -13t19 7q36 23 48 51z" />
    <glyph glyph-name="t" unicode="t" horiz-adv-x="256" 
d="M407 530q9 0 4 -8q-4 -6 -12 -8l-283 -51q-2 -10 -4 -17q-15 -54 -51 -160l-23 -70q-14 -42 -23.5 -88.5t-9.5 -75.5q0 -32 13 -33q16 1 30 11.5t35 30.5q42 40 72.5 81.5t61.5 92.5l19 31q5 7 9 7q9 0 3 -11q-22 -49 -83 -126t-110 -119q-27 -22 -58 -22
q-30 0 -53.5 20.5t-28.5 47.5q-6 32 -6 53q0 40 16 100l16 50q37 116 60 169l3 8l-188 -35h-2q-4 0 -7.5 2t-3.5 5v1q0 4 8 6l201 38q25 52 37 70q8 13 19 21q17 13 30 13t22 -14q6 -9 6 -25q0 -17 -6 -46l283 51h4z" />
    <glyph glyph-name="u" unicode="u" horiz-adv-x="410" 
d="M150 -23q-28 0 -46.5 19t-18.5 55q0 46 24 102l19 44l38 88q1 2 4.5 8.5t1.5 12.5q-9 -5 -14.5 -11.5t-12.5 -17.5l-21 -30q-62 -88 -77 -112q-7 -12 -25 -32l-22 -29q-4 -5 -8.5 -6t-8.5 -1q-37 4 -59 12q-11 4 -16 14t-3 22q6 53 19 95.5t42 81.5l10 14q17 20 38 20
t28 -19q4 -11 4 -24q0 -14 -5 -32q-20 -68 -28 -101q-1 -3 -4 -13t-2 -18q9 1 12.5 7t4.5 7q32 39 90 121q32 44 50 63q6 7 11 10.5t10 3.5t14 -3q46 -17 46 -59q0 -29 -8 -57t-25 -75l-41 -121q1 -11 10 -11q8 0 20.5 9.5t30.5 26.5q42 40 72.5 81.5t61.5 92.5l19 31
q5 7 9 7q7 0 3 -11q-24 -51 -84.5 -128t-109.5 -117q-25 -20 -53 -20z" />
    <glyph glyph-name="v" unicode="v" horiz-adv-x="375" 
d="M1 0q-20 0 -35 4q-24 8 -33 28q-20 49 -20 100q0 61 27 127q6 10 8 15q16 27 40 27q7 0 16 -3q6 -2 8 -8.5t2 -7.5q8 -31 8 -71q0 -31 -2 -47q-3 -60 17 -122q2 -6 3.5 -9.5t4.5 -3.5q4 0 14 9q25 21 43 41q21 24 36 49q-33 14 -48.5 39t-15.5 57q0 34 15 70
q27 64 86 111q29 21 58 21q14 0 23 -4q10 -4 16 -16t6 -27q0 -13 -2 -19q-8 -24 -14 -35l-15 -33q-17 -40 -29.5 -66.5t-28.5 -51.5q-2 -2 -6 -8t-5 -11t3 -9q9 -7 24 -7q22 0 52 15q25 13 51 40.5t42 51.5q5 7 9 7q7 0 3 -11q-11 -25 -40.5 -58.5t-66.5 -50.5
q-31 -14 -60 -14q-12 0 -38 4q-22 -33 -38 -53q-33 -40 -36 -43q-21 -24 -44 -25q-26 -2 -38 -2zM224.5 270.5q25.5 55.5 33.5 87.5q2 10 2 13q0 19 -16 37q-3 3 -6 3q-4 0 -9 -6l-6 -12q-28 -56 -43 -141q-7 -26 -7 -47q0 -6 2 -20q24 30 49.5 85.5z" />
    <glyph glyph-name="w" unicode="w" horiz-adv-x="545" 
d="M105 -28.5q-17 11.5 -17 43.5q0 90 35 171q4 9 8.5 23.5t10.5 24.5q-20 -11 -32 -35q-11 -17 -41 -73q-9 -18 -23.5 -37l-28.5 -37q-15 -17 -30 -17q-5 0 -8 1l-31 5q-54 12 -56 69q0 77 44 147q24 38 58 58q12 8 26 8q13 0 21 -8q6 -4 6 -12t-8 -22q-49 -95 -61 -171
q-2 -16 -2 -23q0 -10 3 -21q3 -9 8 -9q3 0 13 8q33 33 51 61l51 79q14 18 20 27q18 26 37 26q13 0 29 -14q16 -17 16 -47q0 -10 -1 -17.5t-2 -13.5q-2 -19 -4.5 -33.5l-4.5 -25.5q-3 -14 -7 -42l-3 -25q-2 -14 -4 -40v-4q0 -11 6 -11q4 0 15 8q37 27 61 61q13 15 24.5 33.5
t23.5 40.5q-33 14 -48.5 39t-15.5 57q0 34 15 70q27 64 86 111q29 21 58 21q14 0 23 -4q10 -4 16 -16t6 -27q0 -13 -2 -19q-8 -24 -14 -35l-15 -33q-17 -40 -29.5 -66.5t-28.5 -51.5q-2 -2 -6 -8t-5 -11t3 -9q9 -7 24 -7q22 0 52 15q25 13 51 40.5t42 51.5q5 7 9 7
q7 0 3 -11q-11 -25 -40.5 -58.5t-66.5 -50.5q-31 -14 -60 -14q-12 0 -38 4l-34.5 -53.5t-34.5 -49.5q-27 -35 -46 -47.5t-48 -12.5q-42 0 -59 11.5zM394.5 270.5q25.5 55.5 33.5 87.5q2 10 2 13q0 19 -16 37q-3 3 -6 3q-4 0 -9 -6l-6 -12q-28 -56 -43 -141q-7 -26 -7 -47
q0 -6 2 -20q24 30 49.5 85.5z" />
    <glyph glyph-name="x" unicode="x" horiz-adv-x="298" 
d="M68 -9q-20 0 -41.5 11.5t-36.5 27.5q-23 25 -33 57q-11 -6 -21.5 -17.5t-16.5 -17.5l-27 -26q-9 -9 -14 -5l-2 4q0 4 6 10l21 23l34 36q17 17 14 37q-5 45 -5 84q0 27 1 40q0 8 -6 12.5t-16.5 8.5t-13.5 6q1 13 16.5 20t35.5 7q33 0 56.5 -22.5t28.5 -54.5q0 -1 1 -7
t8 -9l20 19q24 24 41.5 39t39.5 26q-2 -9 -8.5 -16t-8.5 -9l-23 -23l-47 -47q-7 -8 -9.5 -13t-1.5 -12q3 -50 5.5 -74t11.5 -55q6 -20 19 -20q10 0 24 10q42 40 72.5 81.5t61.5 92.5l19 31q5 7 9 7q7 0 3 -11q-27 -59 -85.5 -136.5t-108.5 -108.5q-10 -6 -23 -6z" />
    <glyph glyph-name="y" unicode="y" horiz-adv-x="439" 
d="M18 -180q-24 0 -43 12q-29 18 -29 53q0 13 5 33q11 39 47 75q45 45 102 80q15 9 22 20t11 28q6 36 20 86l10 43l3.5 10.5t0.5 15.5q-31 -38 -48 -69q-22 -41 -63 -94q-18 -23 -34.5 -33.5t-35.5 -10.5q-14 0 -32 6q-25 8 -36.5 21t-11.5 35q0 15 6 36q21 67 56 118
q26 38 59 38q10 0 20 -3q21 -6 21 -27q0 -4 -2 -14q-5 -18 -26 -80l-22 -64q-9 -23 -10 -44q39 26 68 69l38 56l16.5 25l21.5 31q7 12 10 14q4 5 8 13t9 12.5t13 4.5q19 -1 31 -6.5t15 -21.5q13 -54 12 -92l-6 -69q49 15 98.5 56t76.5 83q5 7 9 7q9 0 3 -11
q-19 -40 -79.5 -88.5t-110.5 -67.5q-5 -47 -13.5 -81.5t-27.5 -74.5q-45 -94 -141 -123q-24 -7 -41 -7zM30 -167q17 0 32 16q32 32 42 79l17 108l1 16q0 8 -3 17q-40 -25 -69.5 -46.5t-54.5 -48.5q-15 -17 -23.5 -36.5t-8.5 -38.5q0 -24 14.5 -41.5t43.5 -23.5q3 -1 9 -1z
" />
    <glyph glyph-name="z" unicode="z" horiz-adv-x="249" 
d="M-242.5 -153.5q-16.5 16.5 -16.5 42.5q0 5 2 17q14 56 61 92q49 39 112 69l65 34l28 15q17 10 17 26q-1 15 -10 15q-8 0 -17 -8l-16 -12q-19 -14 -35 -14q-9 0 -16 3l-18 5q-21 5 -21 12q0 5 11 22q21 32 60 84l13 18q28 36 38 72l2 12q0 8 -8 8q-5 0 -14 -3
q-49 -17 -79 -56q-3 -3 -11 -13.5t-18 -19.5l-1 4q0 7 5.5 14.5t7.5 11.5q24 42 77 70q13 7 26 7q36 0 57.5 -19t21.5 -51q0 -18 -7 -38q-15 -48 -51 -93q19 -5 29.5 -10.5t16.5 -20.5q69 31 101.5 57t58.5 67q5 7 9 7q9 0 3 -11q-19 -40 -63.5 -74.5t-101.5 -57.5
q4 -6 5 -13.5t2 -12.5q3 -15 3 -31q0 -51 -32 -105t-85 -91q-67 -47 -143 -47h-25q-27 0 -43.5 16.5zM-127.5 -129.5q17.5 15.5 43.5 44.5q45 51 74 127q2 4 10 22t9 36l-114 -58q-28 -15 -72 -47q-23 -17 -36.5 -41t-13.5 -48q0 -35 29 -55q6 -5 15 -5q8 0 13 2
q25 7 42.5 22.5z" />
    <glyph glyph-name="a.fina" horiz-adv-x="459" 
d="M1127.5 272q1.5 -2 0.5 -4q-1 -3 -6.5 -3.5t-9.5 0.5q-115 28 -219 28q-49 0 -91.5 -5t-100.5 -15q-55 -9 -93 -13.5t-79 -4.5q-32 0 -79 5q-26 -57 -77 -131t-95 -112q-12 -10 -29.5 -15t-35.5 -5q-34 0 -48 17q-13 14 -18 41q-4 26 -4 39q0 42 16 92q3 7 7 21l-3 3
q-6 -1 -9.5 -7t-5.5 -9q-33 -45 -69 -87q-14 -17 -29 -28q-29 -22 -53 -22q-7 0 -10 1q-8 1 -24.5 2t-28.5 5q-18 6 -26.5 16t-8.5 25q0 11 2 18q11 47 31.5 85.5t56.5 71.5q45 39 94 47q3 1 10 1q14 0 29.5 -6.5l22.5 -9.5q10 -4 17 -11t13.5 -16.5t11.5 -15.5l15 21
q16 22 25 32q12 14 24 14q13 0 18 -14q5 -11 5 -29q0 -8 -5 -46q-9 -50 -24 -104q-9 -30 -11 -63t-2 -38t2 -13.5t7 -10.5q36 4 89.5 74.5t108.5 172.5q2 4 4.5 6t6.5 1q46 -10 91 -10q32 0 71 5t77 11q63 10 109.5 15.5t101.5 5.5q102 0 223 -25q3 -1 4.5 -3zM175 259
q0 8 -5 16q-20 32 -58 41q-3 1 -10 1q-18 0 -36 -16q-13 -11 -22 -30l-14 -31.5t-16 -45.5q-14 -54 -14 -91q0 -14 1.5 -19.5t5.5 -5.5q3 0 13 5q21 12 45 36q31 31 85 99l15 18q10 11 10 23z" />
    <glyph glyph-name="b.fina" horiz-adv-x="350" 
d="M1017.5 272q1.5 -2 0.5 -4q-1 -3 -6.5 -3.5t-9.5 0.5q-115 28 -219 28q-49 0 -91.5 -5t-100.5 -15q-57 -9 -94.5 -13.5t-78.5 -4.5q-32 0 -79 5q-42 -62 -136 -80q-9 -54 -55 -112q-28 -36 -64 -51.5t-84 -16.5q-15 0 -22 16q-4 9 -4 21q0 8 5 35l2 12q0 4 -4 5t-12 1
q-17 0 -22 4.5t-8 21.5q-3 18 -3 37q0 35 9 85l4 32q16 101 46 174q25 62 80 122q39 39 82 39q18 0 30 -5q37 -13 37 -48q0 -17 -8 -36q-14 -34 -36 -66q-53 -72 -98 -122q-1 -1 -6 -5.5t-5 -10.5q25 13 47 13q26 0 56 -23q18 -14 28 -40q4 -21 6 -42t1 -27q40 8 71 23.5
t53 49.5q5 7 9 7h2q46 -10 91 -10q32 0 71 5t77 11q63 10 109.5 15.5t101.5 5.5q102 0 223 -25q3 -1 4.5 -3zM66 334q17 15 30 31t16 20q61 73 85 129q9 20 9 36t-10 29q-9 12 -25 12q-12 0 -23.5 -7.5t-18.5 -19.5q-5 -9 -9 -27q-11 -54 -28 -104q-20 -57 -26 -99zM109 212
q4 44 4 67q0 14 -2 22q-1 1 -2.5 5t-5.5 4q-12 0 -31.5 -18t-22.5 -32l-15 -75q-2 -8 -2 -13q0 -6 3 -14q47 21 72 22zM87 104.5q13 27.5 19 64.5q-19 -2 -32.5 -6.5t-26.5 -13.5q-10 -7 -18 -27q-6 -12 -9.5 -18t-12.5 -11q-1 -1 -2.5 -5t-1.5 -5q-1 -4 -2 -11t-1 -17
q0 -13 5 -22q9 -17 19 -17q12 0 25 22q25 39 38 66.5z" />
    <glyph glyph-name="c.fina" horiz-adv-x="269" 
d="M937.5 272q1.5 -2 0.5 -4q-1 -3 -6.5 -3.5t-9.5 0.5q-115 28 -219 28q-49 0 -91.5 -5t-100.5 -15q-55 -9 -93 -13.5t-79 -4.5q-32 0 -79 5q-23 -50 -83 -126t-109 -117q-21 -17 -47.5 -27.5t-50.5 -10.5q-33 0 -54 21.5t-21 68.5q0 24 8 62q8 32 18 58q17 48 52.5 81
t87.5 56q21 9 38 9q22 0 48 -14q14 -8 14 -26q0 -8 -3 -17q-11 -49 -50 -82q-8 -6 -14 -4q29 37 42 62q9 17 9 33q0 7 -1 11q-4 25 -31 24q-14 -2 -23 -8t-16 -20q-16 -32 -35 -80q-3 -8 -19 -43.5t-26 -74t-8 -68.5q10 -11 27 -11q20 0 43 14.5t40 29.5q42 40 72.5 81.5
t61.5 92.5l19 31q5 7 9 7h2q46 -10 91 -10q32 0 71 5t77 11q63 10 109.5 15.5t101.5 5.5q102 0 223 -25q3 -1 4.5 -3z" />
    <glyph glyph-name="d.fina" 
d="M1057.5 272q1.5 -2 0.5 -4q-1 -3 -6.5 -3.5t-9.5 0.5q-115 28 -219 28q-49 0 -91.5 -5t-100.5 -15q-55 -9 -93 -13.5t-79 -4.5q-32 0 -79 5q-23 -50 -83 -125.5t-109 -117.5q-18 -21 -45 -21q-28 0 -43 20q-13 18 -17.5 39.5t-5.5 54.5v4q0 5 1 9q-10 0 -17.5 -7t-9.5 -9
q-18 -17 -38 -14q-20 2 -30 2l-30 2q-22 3 -33 17.5t-11 35.5l1 10q9 42 39 82t82 59q11 5 27 5q6 0 18 -2q19 -4 31 -7q9 7 12 17t4 14q22 57 39 94.5t41 73.5q4 7 33 43q14 14 23.5 20.5t20.5 6.5q5 0 8 -1q36 -10 36 -48q0 -48 -27 -99q-20 -39 -40.5 -69t-48.5 -56
q-11 -11 -13 -20q-15 -57 -28.5 -122t-13.5 -100q0 -27 10 -27q13 1 21 6.5t17 15l15 15.5q42 40 72.5 81.5t61.5 92.5l19 31q5 7 9 7h2q46 -10 91 -10q32 0 71 5t77 11q63 10 109.5 15.5t101.5 5.5q102 0 223 -25q3 -1 4.5 -3zM226 394q-10 -46 -17 -70q10 4 17 14
q61 75 75 154q3 15 3 30q0 11 -1 16q-1 11 -9 11q-7 0 -15 -8q-10 -8 -20 -30q-16 -39 -33 -117zM104 275q0 17 -22 17q-12 1 -18 -3.5t-12 -18.5q-26 -55 -36 -105q-4 -18 -4 -28q0 -9 3 -17q34 14 51 33t24 50l13 64q1 3 1 8z" />
    <glyph glyph-name="e.fina" horiz-adv-x="289" 
d="M957.5 272q1.5 -2 0.5 -4q-1 -3 -6.5 -3.5t-9.5 0.5q-115 28 -219 28q-49 0 -91.5 -5t-100.5 -15q-55 -9 -93 -13.5t-79 -4.5q-32 0 -79 5q-23 -50 -83 -126t-109 -117q-36 -30 -80 -30q-42 0 -72 28.5t-34 84.5q-1 33 10 67t33 79q30 60 83 96q16 11 37 17t42 6
q30 0 46 -11q21 -13 21 -40q0 -9 -3 -20q-12 -39 -32.5 -69t-55.5 -50q-31 -18 -56 -19q-14 0 -17 -3t-9 -18q-7 -21 -7 -44q0 -29 12 -63q10 -11 27 -11q20 0 43 14.5t40 29.5q42 40 72.5 81.5t61.5 92.5l19 31q5 7 9 7h2q46 -10 91 -10q32 0 71 5t77 11q63 10 109.5 15.5
t101.5 5.5q102 0 223 -25q3 -1 4.5 -3zM22.5 203q-5.5 -12 -8.5 -21.5t-2 -18.5q11 0 16 1q48 14 83 50.5t48 83.5q2 8 2 13q0 9 -4 23q-6 17 -27 17q-18 0 -31 -8.5t-24 -27.5q-31 -57 -44 -92q-3 -8 -8.5 -20z" />
    <glyph glyph-name="f.fina" horiz-adv-x="300" 
d="M967.5 272q1.5 -2 0.5 -4q-1 -3 -6.5 -3.5t-9.5 0.5q-115 28 -219 28q-49 0 -91.5 -5t-100.5 -15q-55 -9 -93 -13.5t-79 -4.5q-32 0 -79 5q-42 -64 -77.5 -103.5t-79.5 -47.5q-39 -109 -83 -169q-14 -19 -33 -29.5t-38 -10.5q-23 0 -40 15q-22 21 -29 63q-6 35 -6 70
q0 13 2 41q11 141 81 319q16 39 34 63q10 16 20 24q22 20 36.5 28t30.5 8t41 -9q41 -13 41 -49q0 -12 -5 -30q-17 -63 -64 -122l-31 -38l-22 -26q-5 -5 -4 -12q6 1 16 1q38 0 53 -27q10 -17 10 -44q0 -14 -6 -52q41 11 69.5 42.5t48 62l24.5 38.5q5 7 9 7h2q46 -10 91 -10
q32 0 71 5t77 11q63 10 109.5 15.5t101.5 5.5q102 0 223 -25q3 -1 4.5 -3zM50 261l7 2q73 75 98 140q15 37 15 64q0 11 -3 23q-3 11 -11 16.5t-18 3.5q-12 -3 -17 -10t-9 -19q-31 -88 -51 -170q-7 -30 -11 -50zM123 171q0 37 -25 59q-6 6 -13 6t-14 -7q-27 -25 -22 -45
q5 -25 7 -34q7 -24 38 -29h5q16 0 20 18q4 15 4 32zM110 100q0 6 -3 8t-11 4q-25 3 -42 11.5t-26 28.5l-10 -37l-13 -52q-9 -40 -8 -65q0 -27 2 -42t11 -28q6 2 15 11q28 32 47 68t37 86q1 3 1 7z" />
    <glyph glyph-name="g.fina" horiz-adv-x="361" 
d="M1028.5 272q1.5 -2 0.5 -4q-1 -3 -6.5 -3.5t-9.5 0.5q-115 28 -219 28q-49 0 -91.5 -5t-100.5 -15q-57 -9 -94.5 -13.5t-78.5 -4.5q-32 0 -79 5q-56 -82 -158 -123l-9 -36q-16 -62 -21 -77q-13 -41 -58 -89q-6 -6 -9 -7q-49 -28 -83 -28q-19 0 -34 7q-16 6 -24 19.5
t-8 30.5q0 28 16 50q17 25 40 42q44 35 71 48q16 8 19 12.5t3 20.5q1 11 0.5 21t-0.5 18q-11 -11 -16 -15q-9 -10 -17 -17q-20 -20 -46 -20h-21q-34 0 -49 5q-33 12 -33 40q0 10 5 27q16 39 37 65q20 25 52 38t65 13q17 0 30 -3q14 -4 28 -31q5 1 9 5l6 6q15 14 30 14
t25 -16q5 -10 5 -27q0 -7 -1 -18.5t0 -19.5q0 -6 -2 -15t-3 -18q-4 -22 -4 -26q41 14 81 43.5t64 66.5q5 7 9 7h2q46 -10 91 -10q32 0 71 5t77 11q63 10 109.5 15.5t101.5 5.5q102 0 223 -25q3 -1 4.5 -3zM117 255q0 18 -11 29.5t-29 11.5q-9 0 -15 -5t-11 -16q-4 -8 -5 -12
q-1 -17 -8 -39l-6 -24q-1 -6 -5.5 -23.5t-4.5 -34.5q0 -8 1 -13q18 13 20 14q31 23 46 39.5t20 42.5q1 4 5 12q3 9 3 18zM88.5 61.5q2.5 12.5 2.5 22.5q0 9 -1 13q-35 -20 -61.5 -39.5t-45.5 -44.5q-17 -22 -17 -46q0 -14 7 -25.5t20 -16.5q5 -2 18.5 -6.5t21.5 -4.5
q12 0 20 11.5t20 42.5q7 19 9 42.5t3 32.5q1 6 3.5 18.5z" />
    <glyph glyph-name="h.fina" horiz-adv-x="369" 
d="M1033 248q-2 -3 -7 -3.5t-9 0.5q-115 28 -219 28q-49 0 -92.5 -5t-99.5 -15q-57 -9 -94 -13.5t-78 -4.5q-32 0 -79 5q-24 -52 -84 -128t-109 -115q-26 -22 -51 -22q-24 0 -40 19t-16 49q0 16 3 34q12 66 46 152q10 24 12 36v2q0 4 -3.5 5t-8.5 -2q-16 -9 -29 -27
q-70 -87 -80 -163q-4 -20 -15 -31q-14 -14 -28 -14q-9 0 -14 4q-15 10 -15 32q-1 12 -1 36q0 80 24 188q6 27 22 79q13 46 52 100q42 60 111 60q21 0 32 -10.5t11 -30.5q0 -5 -2 -15q-10 -56 -64 -126q-24 -31 -63 -64q-31 -29 -32 -58q-2 -18 -4 -27q-6 -28 -5 -45
q11 10 19 28q30 47 58 78q21 23 47 23l9 -1q32 -3 32 -36q0 -32 -3 -49q-9 -46 -16 -77q-4 -15 -13 -58q-7 -24 -7 -50q1 -11 10 -11q8 0 20.5 9.5t30.5 26.5q42 40 72.5 81.5t61.5 92.5l19 31q4 7 9 7h2q46 -10 91 -10q32 0 70 5t76 11q64 10 110.5 15.5t101.5 5.5
q104 0 223 -25q8 -2 6 -7zM24 280q53 48 78 81q45 56 56 112q1 5 1 13q0 23 -18 34q-7 4 -15 4q-18 0 -30 -18q-14 -17 -23 -35q-35 -87 -49 -191z" />
    <glyph glyph-name="i.fina" horiz-adv-x="219" 
d="M13 345.5q-4 4.5 -3 11.5q1 6 8 10.5t14 4.5q6 0 9.5 -4.5t2.5 -11.5q-1 -5 -7.5 -10t-13.5 -5q-6 0 -10 4.5zM887.5 272q1.5 -2 0.5 -4q-1 -3 -6.5 -3.5t-9.5 0.5q-115 28 -219 28q-49 0 -91.5 -5t-100.5 -15q-55 -9 -93 -13.5t-79 -4.5q-32 0 -79 5q-23 -50 -83 -125.5
t-109 -117.5q-34 -25 -62 -25q-29 0 -46.5 21.5t-15.5 50.5q5 91 49 178q10 20 20.5 28t27.5 8q27 0 37 -9t8 -31q-4 -34 -20 -74q-35 -92 -35 -145q7 -7 23 5t42 37q42 40 72.5 81.5t61.5 92.5l19 31q5 7 9 7h2q46 -10 91 -10q32 0 71 5t77 11q63 10 109.5 15.5t101.5 5.5
q102 0 223 -25q3 -1 4.5 -3z" />
    <glyph glyph-name="j.fina" horiz-adv-x="190" 
d="M-11 345.5q-4 4.5 -3 11.5q1 6 8 10.5t14 4.5q6 0 9.5 -4.5t2.5 -11.5q-1 -5 -7.5 -10t-13.5 -5q-6 0 -10 4.5zM858.5 272q1.5 -2 0.5 -4q-1 -3 -6.5 -3.5t-9.5 0.5q-115 28 -219 28q-49 0 -91.5 -5t-100.5 -15q-55 -9 -93 -13.5t-79 -4.5q-32 0 -79 5q-24 -39 -59 -64.5
t-91 -47.5q-4 -40 -16.5 -87t-30.5 -83q-32 -65 -91 -104q-35 -24 -75 -24q-16 0 -29 3q-43 10 -38 63q3 81 86 148q42 33 64 44q13 6 19.5 15.5t8.5 24.5q6 36 10 54l5 27q1 14 13 40q5 9 10.5 12.5t13.5 3.5q39 0 44 -31q4 -17 4 -52l-1 -36q100 34 142 100q5 7 9 7h2
q46 -10 91 -10q32 0 71 5t77 11q63 10 109.5 15.5t101.5 5.5q102 0 223 -25q3 -1 4.5 -3zM-83 94q0 5 -4 5q-6 0 -12 -5q-39 -25 -79 -62q-54 -52 -54 -110q0 -38 36 -56q8 -4 12 -4q8 0 21 13q12 12 25 34q23 43 36 111l6 22q2 8 5.5 19t6.5 25q1 3 1 8z" />
    <glyph glyph-name="k.fina" horiz-adv-x="334" 
d="M1002.5 272q1.5 -2 0.5 -4q-1 -3 -6.5 -3.5t-9.5 0.5q-115 28 -219 28q-49 0 -91.5 -5t-100.5 -15q-55 -9 -93 -13.5t-79 -4.5q-32 0 -79 5q-22 -49 -82.5 -124t-109.5 -119q-31 -28 -55 -28q-15 0 -23.5 13t-8.5 39q0 19 2 30q4 36 14 108q3 17 -17 17q-8 0 -17 -3
t-13 -7q-7 -7 -7.5 -16.5t-0.5 -12.5q-5 -24 -10 -62l-5 -31q-3 -20 -8.5 -25t-25.5 -7l-22 -2q-10 0 -12 5t-5 24q-3 21 -3 41q0 31 4.5 59.5t14.5 83.5l5 23q21 114 92 233q7 13 20 30q33 41 74 41q28 0 46.5 -18.5t18.5 -46.5q0 -25 -18 -52q-43 -65 -110 -122
q-15 -15 -23 -28.5t-9 -29.5q0 -4 -2 -9.5t-3 -12.5q15 10 30 29q32 34 55 51q19 14 35 14q9 0 19 -5q13 -6 13 -23q0 -26 -23 -59t-54 -44q-3 -1 -7 -3.5t-10 -4.5q19 -7 26 -20t7 -32q0 -9 -2 -27l-13 -100q-3 -12 2 -12q9 0 31 21l26 25q42 40 72.5 81.5t61.5 92.5l19 31
q5 7 9 7h2q46 -10 91 -10q32 0 71 5t77 11q63 10 109.5 15.5t101.5 5.5q102 0 223 -25q3 -1 4.5 -3zM47 338q61 47 109 116q17 24 17 47q0 25 -21 48q-5 6 -12 6q-10 0 -20 -12q-13 -17 -17 -31q-12 -34 -17 -52q-16 -44 -26 -77q-5 -15 -13 -45zM124 276q11 6 19 20.5
t8 24.5q0 7 -4 8q-1 1 -4 1q-6 0 -15 -9q-40 -29 -86 -80q-1 -1 -4.5 -5.5t-3.5 -10.5q33 15 90 51z" />
    <glyph glyph-name="l.fina" horiz-adv-x="252" 
d="M919.5 272q1.5 -2 0.5 -4q-1 -3 -6.5 -3.5t-9.5 0.5q-115 28 -219 28q-49 0 -91.5 -5t-100.5 -15q-55 -9 -93 -13.5t-79 -4.5q-32 0 -79 5q-23 -50 -83 -125.5t-109 -117.5q-27 -22 -58 -22q-30 0 -53.5 20.5t-28.5 47.5q-3 18 -3 37q0 30 9 79q29 131 88 237
q3 5 14.5 25.5t23.5 37.5t25 30q18 18 38 31q25 16 49 16q20 0 36 -9q28 -15 28 -45q0 -11 -3 -23q-12 -48 -39 -90q-35 -52 -62.5 -87t-62.5 -64q-20 -17 -26 -42q-11 -41 -20 -103q-4 -20 -4 -43q0 -30 12 -31q16 1 30 11.5t35 30.5q42 40 72.5 81.5t61.5 92.5l19 31
q5 7 9 7h2q46 -10 91 -10q32 0 71 5t77 11q63 10 109.5 15.5t101.5 5.5q102 0 223 -25q3 -1 4.5 -3zM41 263.5q-2 -8.5 0 -16.5l6 3q8 6 11 10q28 26 49.5 56t49.5 74l14 22q11 17 16 33.5t12 46.5q1 3 1 9q0 10 -6 26q-6 13 -21 13q-13 0 -27 -11q-9 -7 -14.5 -16
t-11.5 -23q-37 -88 -76 -215q-1 -3 -3 -11.5z" />
    <glyph glyph-name="m.fina" horiz-adv-x="509" 
d="M1173 248q-2 -3 -7 -3.5t-9 0.5q-115 28 -219 28q-49 0 -92.5 -5t-99.5 -15q-57 -9 -94 -13.5t-78 -4.5q-32 0 -79 5q-24 -52 -84 -128t-109 -115q-26 -22 -51 -22q-24 0 -40 19t-16 49q0 16 3 34q12 66 46 152q11 26 14 45v2q0 9 -11 3q-13 -8 -29 -27q-19 -22 -32 -39
t-18 -36q-3 -8 -11 -33.5t-20 -46.5q-10 -16 -15.5 -19.5t-23.5 -3.5q-27 0 -36.5 5t-9.5 22q0 4 2 24q8 53 36 137q10 30 11 46q-9 0 -14 -7q-64 -64 -87 -138q-4 -12 -4 -26l1 -16q3 -31 -7 -68q-5 -17 -21 -17l-37 -1q-14 0 -17 4.5t-3 24.5v21q-3 74 17 145q1 3 2 8.5
t4 12.5q4 16 17 20q21 6 32 6q6 0 10 -2q5 -4 5 -20q0 -8 -2 -26q-2 -21 -1 -27l42 63l21 31q11 14 24.5 21.5t26.5 7.5q20 0 33 -15q30 -31 31 -85q19 22 34 37q38 38 71 33q32 -3 32 -36q0 -30 -5 -58q-9 -46 -16 -77q-4 -15 -13 -58q-7 -24 -7 -50q1 -11 10 -11
q8 0 20.5 9.5t30.5 26.5q42 40 72.5 81.5t61.5 92.5l19 31q4 7 9 7h2q46 -10 91 -10q32 0 70 5t76 11q64 10 110.5 15.5t101.5 5.5q104 0 223 -25q8 -2 6 -7z" />
    <glyph glyph-name="n.fina" horiz-adv-x="330" 
d="M994 248q-2 -3 -7 -3.5t-9 0.5q-115 28 -219 28q-49 0 -92.5 -5t-99.5 -15q-57 -9 -94 -13.5t-78 -4.5q-32 0 -79 5q-33 -69 -76 -138.5t-87 -104.5q-26 -22 -51 -22q-24 0 -40 19t-16 49q0 16 3 34q6 36 20.5 83.5t30.5 89.5q10 24 13 36v2q0 4 -3.5 5t-8.5 -2
q-8 -5 -19 -16t-18 -20q-32 -44 -45 -70q-17 -33 -24 -64.5t-7 -47.5q-3 -24 -9.5 -29.5t-30.5 -4.5l-25 3q-15 2 -19 5.5t-4 14.5q0 25 5 51.5t15 63.5q2 10 8 35.5t9 46.5q1 9 5 22q4 11 8.5 14t14.5 1q35 -5 42 -43q2 -21 4 -30q11 10 21.5 23t15.5 18q40 44 75 44
q7 0 10 -1q32 -3 33 -36q0 -8 -0.5 -20t-2.5 -29q-3 -18 -19 -87q-13 -55 -16 -69q-7 -24 -7 -50q1 -11 10 -11t23.5 11.5t25.5 24.5q35 43 64 92.5t61 112.5q4 7 9 7h2q46 -10 91 -10q32 0 70 5t76 11q64 10 110.5 15.5t101.5 5.5q104 0 223 -25q8 -2 6 -7z" />
    <glyph glyph-name="o.fina" horiz-adv-x="303" 
d="M-38.5 -0.5q-19.5 2.5 -34.5 8.5q-26 10 -38.5 29.5t-12.5 46.5q0 12 1 18q16 98 82 155q24 22 43 27q13 3 21 2q7 -2 10 -4t3 -6q0 -3 -5 -13l-16 -29l-21 -40q-31 -64 -31 -119q0 -13 1 -20q0 -11 8 -29q3 -9 11 -9q7 0 14 4q39 23 60 49q68 83 89 170q3 12 3 18t-5 7
t-25 1q-24 0 -40.5 3t-30.5 13q-3 4 -6 6t-5 4q-8 9 -8 21q0 11 8.5 20t24.5 14q12 4 25 4q26 0 48 -19q21 -19 25 -42q0 -17 14 -14q16 4 31 4q11 0 26 -3q36 -7 76 -7q33 0 67 4t84 13q65 11 114.5 17t107.5 6q106 0 225 -25q4 -1 5.5 -3t-0.5 -4q-1 -3 -6 -3.5t-9 0.5
q-120 28 -219 28q-49 0 -92 -5t-101 -15q-57 -9 -94.5 -13.5t-78.5 -4.5q-45 0 -81 5q-13 3 -23 3t-22.5 -3t-19.5 -5q-14 -82 -75 -183q-27 -42 -68 -74q-16 -13 -35 -12q-5 1 -24.5 3.5zM133 273q13 0 13 13q-4 38 -42 51q-6 3 -14 3q-15 0 -34 -13q-15 -12 -9 -25
q2 -6 13 -17q7 -6 15.5 -8t18 -2.5t14.5 -1.5h25z" />
    <glyph glyph-name="p.fina" horiz-adv-x="363" 
d="M1030.5 272q1.5 -2 0.5 -4q-1 -3 -6.5 -3.5t-9.5 0.5q-115 28 -219 28q-49 0 -91.5 -5t-100.5 -15q-57 -9 -94.5 -13.5t-78.5 -4.5q-32 0 -79 5q-30 -44 -69.5 -78.5t-76.5 -41.5q-20 -60 -73 -111q-17 -15 -35 -21t-41 -8q-28 0 -51 5l-6 -40q-4 -22 -5 -33
q-5 -35 -14 -60q-23 -67 -87 -78q-24 -4 -29 -4q-13 0 -19 8t-10 30q-2 14 -2 20q0 18 8 54q31 111 70 181q11 21 17 58q1 6 6.5 46t18.5 78q1 2 1 5q1 4 3 9.5t4.5 9.5t8.5 5q6 2 9 2q14 0 20 -11q4 -5 12 -26l35 36q23 22 38.5 32t33.5 10q20 0 47 -13q50 -22 52 -89
q1 -11 -1.5 -35.5t-5.5 -45.5q30 6 67.5 39t63.5 73q5 7 9 7h2q46 -10 91 -10q32 0 71 5t77 11q63 10 109.5 15.5t101.5 5.5q102 0 223 -25q3 -1 4.5 -3zM142 259q2 14 2 25q0 10 -1 15q-3 13 -7.5 18.5t-12.5 5.5q-10 0 -26 -9q-44 -23 -80 -80q-4 -7 -4 -17q1 -15 1 -45
q0 -41 -3 -89q43 34 87 51q10 3 15 17q2 5 12 33.5t14 54.5q1 6 3 20zM98 117q-15 -4 -24.5 -8.5t-22.5 -14.5q-28 -21 -28 -45q0 -13 7 -24q3 -6 8 -6q4 0 8 6q30 37 52 92zM-86 46q-5 -3 -7 -6.5t-2 -4.5q-35 -79 -49 -162q-1 -6 -1 -19q0 -15 2 -22q3 -13 5.5 -19.5
t9.5 -4.5q7 1 9.5 6.5t4 13t3.5 11.5l1 10l15 100q8 64 9 97z" />
    <glyph glyph-name="q.fina" horiz-adv-x="439" 
d="M1107.5 272q1.5 -2 0.5 -4q-1 -3 -6.5 -3.5t-9.5 0.5q-115 28 -219 28q-49 0 -91.5 -5t-100.5 -15q-55 -9 -93 -13.5t-79 -4.5q-32 0 -79 5q-19 -38 -87 -102t-120 -103q3 -10 11 -30t15 -46q2 -16 2 -23q0 -6 -2 -16q-4 -23 -10 -47t-15 -44q-31 -74 -108 -79
q-17 0 -24 4q-22 15 -33.5 33.5t-11.5 44.5t12 82q14 73 34 127q4 9 7.5 22.5l5.5 21.5l-17 -14q-16 -12 -30 -26q-26 -28 -58 -25q-26 1 -58 8q-44 9 -44 54l1 12q13 97 85 163q14 13 36 19.5t26 7.5q32 10 57 10q31 0 52 -18q4 -4 9.5 -15t10.5 -16l42 50q6 8 11.5 12
t12.5 2q7 -1 9 -6t2 -14q-2 -52 -21 -138q-15 -67 -30 -109q59 40 125.5 103t91.5 101q5 7 9 7h2q46 -10 91 -10q32 0 71 5t77 11q63 10 109.5 15.5t101.5 5.5q102 0 223 -25q3 -1 4.5 -3zM127 162q19 46 30 64q5 12 5 19q0 6 -3 12q-9 18 -19 28q-12 14 -28 14
q-13 0 -25 -9t-21 -26q-2 -2 -2 -3q-37 -78 -53 -141q-3 -12 -3 -23q0 -16 7 -30q24 12 43 27t50 43q11 8 19 25zM232 -47q0 52 -28 89q-1 1 -2.5 3.5t-2.5 2.5l-2 -6q-24 -71 -37.5 -115.5t-22.5 -90.5q-2 -8 -2 -12q0 -12 7 -24q5 -7 10 -7q3 0 11 6q20 20 29 32
q40 58 40 122z" />
    <glyph glyph-name="r.fina" horiz-adv-x="309" 
d="M977.5 272q1.5 -2 0.5 -4q-1 -3 -6.5 -3.5t-9.5 0.5q-115 28 -219 28q-49 0 -91.5 -5t-100.5 -15q-55 -9 -93 -13.5t-79 -4.5q-32 0 -79 5q-25 -51 -85 -126.5t-107 -116.5q-24 -18 -50 -17q-34 2 -55 16.5t-27 44.5q-2 12 -2 19q0 5 2 17q19 76 72 159q8 14 13 21
q-8 -1 -27 -5.5t-35 -4.5q-53 0 -87 28.5t-34 69.5q0 29 17 56q23 35 46.5 57.5t56.5 32.5q39 11 61 11t32 -9q11 -9 11 -23q0 -7 -3 -15q-11 -53 -33 -87q-11 -19 -27 -53l-12.5 -25t-12.5 -23q14 -1 26 2.5t34 14.5q12 6 17 10q17 11 35 11q17 0 29 -10q7 -6 7 -16
q0 -7 -5 -19l-33 -75l-40 -92q-16 -39 -18 -86q0 -5 5 -8q16 1 30 11.5t35 30.5q51 50 86 100t67 105q5 7 9 7h2q46 -10 91 -10q32 0 71 5t77 11q63 10 109.5 15.5t101.5 5.5q102 0 223 -25q3 -1 4.5 -3zM-12 291q7 0 10.5 4.5t8.5 12.5q21 36 39.5 76t26.5 70q1 5 3.5 13.5
t3.5 14.5q2 7 -2 10.5t-12 3.5q-15 0 -24 -9q-11 -9 -22 -27q-23 -42 -39 -82q-11 -25 -11 -53q0 -11 1 -17q2 -16 16 -17h1z" />
    <glyph glyph-name="s.fina" horiz-adv-x="299" 
d="M967.5 272q1.5 -2 0.5 -4q-1 -3 -6.5 -3.5t-9.5 0.5q-115 28 -219 28q-49 0 -91.5 -5t-100.5 -15q-55 -9 -93 -13.5t-79 -4.5q-32 0 -79 5q-26 -45 -89 -87.5t-129 -71.5q2 -5 7 -30t7 -44q2 -29 -11 -78q-10 -35 -46 -59q-31 -21 -61 -30.5t-67 -9.5q-9 0 -17 1
q-41 5 -41 40q0 8 1 13q11 68 64 117q7 6 23 21t32 25q16 11 13 27q-1 5 -4.5 26.5t-11.5 38.5q-18 43 -16 105q3 80 96 120l4 1q5 2 18 2q26 0 51.5 -15.5t28.5 -35.5q2 -19 -13 -52q-17 -38 -32 -63t-38 -46q-3 -3 -3 -11q0 -10 3.5 -24t6.5 -21q60 22 121 61.5t92 85.5
q5 7 9 7h2q46 -10 91 -10q32 0 71 5t77 11q63 10 109.5 15.5t101.5 5.5q102 0 223 -25q3 -1 4.5 -3zM59 217q31 47 46 90q4 10 6 28v4q0 8 -5 16t-10 8q-9 0 -17.5 -7.5t-11.5 -9.5q-11 -11 -16 -26q-13 -42 -13 -76q0 -19 5 -42q9 5 16 15zM-17 36q0 12 -5 22
q-33 -24 -55.5 -47t-35.5 -50q-17 -32 -17 -57q0 -15 6 -28q8 -13 17 -13t19 7q36 23 48 51q11 23 15 46t7 57q1 4 1 12z" />
    <glyph glyph-name="t.fina" horiz-adv-x="256" 
d="M924.5 272q1.5 -2 0.5 -4q-1 -3 -6.5 -3.5t-9.5 0.5q-115 28 -219 28q-49 0 -91.5 -5t-100.5 -15q-55 -9 -93 -13.5t-79 -4.5q-32 0 -79 5q-23 -50 -83 -125.5t-109 -117.5q-27 -22 -58 -22q-30 0 -53.5 20.5t-28.5 47.5q-6 32 -6 53q0 40 16 100l16 50q37 116 60 169
l3 8l-188 -35h-2q-4 0 -7.5 2t-3.5 5v1q0 4 8 6l201 38q25 52 37 70q8 13 19 21q17 13 30 13t22 -14q6 -9 6 -25q0 -17 -6 -46l283 51h4q9 0 4 -8q-4 -6 -12 -8l-283 -51q-2 -10 -4 -17q-15 -54 -51 -160l-23 -70q-14 -42 -23.5 -88.5t-9.5 -75.5q0 -32 13 -33q16 1 30 11.5
t35 30.5q42 40 72.5 81.5t61.5 92.5l19 31q5 7 9 7h2q46 -10 91 -10q32 0 71 5t77 11q63 10 109.5 15.5t101.5 5.5q102 0 223 -25q3 -1 4.5 -3z" />
    <glyph glyph-name="u.fina" horiz-adv-x="410" 
d="M1074 248q-2 -3 -7 -3.5t-9 0.5q-115 28 -219 28q-49 0 -92.5 -5t-99.5 -15q-57 -9 -94 -13.5t-78 -4.5q-32 0 -79 5q-24 -52 -84 -128t-109 -115q-25 -20 -53 -20t-46.5 19t-18.5 55q0 46 24 102l19 44l38 88q1 2 4.5 8.5t1.5 12.5q-9 -5 -14.5 -11.5t-12.5 -17.5
l-21 -30q-62 -88 -77 -112q-7 -12 -25 -32l-22 -29q-4 -5 -8.5 -6t-8.5 -1q-37 4 -59 12q-11 4 -16 14t-3 22q6 53 19 95.5t42 81.5l10 14q17 20 38 20t28 -19q4 -11 4 -24q0 -14 -5 -32q-20 -68 -28 -101q-1 -3 -4 -13t-2 -18q9 1 12.5 7t4.5 7q32 39 90 121q32 44 50 63
q6 7 11 10.5t10 3.5t14 -3q46 -17 46 -59q0 -29 -8 -57t-25 -75l-41 -121q1 -11 10 -11q8 0 20.5 9.5t30.5 26.5q42 40 72.5 81.5t61.5 92.5l19 31q4 7 9 7h2q46 -10 91 -10q32 0 70 5t76 11q64 10 110.5 15.5t101.5 5.5q104 0 223 -25q8 -2 6 -7z" />
    <glyph glyph-name="v.fina" horiz-adv-x="376" 
d="M1039 248q-2 -3 -7 -3.5t-9 0.5q-115 28 -219 28q-49 0 -92.5 -5t-99.5 -15q-57 -9 -94 -13.5t-78 -4.5q-32 0 -79 5q-13 -26 -41.5 -58t-64.5 -49q-31 -14 -60 -14q-12 0 -38 4q-22 -33 -38 -53q-33 -40 -36 -43q-21 -24 -44 -25q-26 -2 -38 -2q-20 0 -35 4
q-24 8 -33 28q-20 49 -20 100q0 61 27 127q6 10 8 15q16 27 40 27q7 0 16 -3q6 -2 8 -8.5t2 -7.5q8 -31 8 -71q0 -31 -2 -47q-3 -60 17 -122q2 -6 3.5 -9.5t4.5 -3.5q4 0 14 9q25 21 43 41q21 24 36 49q-33 14 -48.5 39t-15.5 57q0 34 15 70q27 64 86 111q29 21 58 21
q14 0 23 -4q10 -4 16 -16t6 -27q0 -13 -2 -19q-8 -24 -14 -35l-15 -33q-17 -40 -29.5 -66.5t-28.5 -51.5q-2 -2 -6 -8t-5 -11t3 -9q9 -7 24 -7q22 0 52 15q25 13 51 40.5t42 51.5q4 7 9 7h2q46 -10 91 -10q32 0 70 5t76 11q64 10 110.5 15.5t101.5 5.5q104 0 223 -25
q8 -2 6 -7zM173 205q0 -6 2 -20q24 30 49.5 85.5t33.5 87.5q2 10 2 13q0 19 -16 37q-3 3 -6 3q-4 0 -9 -6l-6 -12q-28 -56 -43 -141q-7 -26 -7 -47z" />
    <glyph glyph-name="w.fina" horiz-adv-x="545" 
d="M1209 248q-2 -3 -7 -3.5t-9 0.5q-115 28 -219 28q-49 0 -92.5 -5t-99.5 -15q-57 -9 -94 -13.5t-78 -4.5q-32 0 -79 5q-13 -26 -41.5 -58t-64.5 -49q-31 -14 -60 -14q-12 0 -38 4l-34.5 -53.5t-34.5 -49.5q-27 -35 -46 -47.5t-48 -12.5q-42 0 -59 11.5t-17 43.5
q0 90 35 171q4 9 8.5 23.5t10.5 24.5q-20 -11 -32 -35q-11 -17 -41 -73q-9 -18 -23.5 -37l-28.5 -37q-15 -17 -30 -17q-5 0 -8 1l-31 5q-54 12 -56 69q0 77 44 147q24 38 58 58q12 8 26 8q13 0 21 -8q6 -4 6 -12t-8 -22q-49 -95 -61 -171q-2 -16 -2 -23q0 -10 3 -21
q3 -9 8 -9q3 0 13 8q33 33 51 61l51 79q14 18 20 27q18 26 37 26q13 0 29 -14q16 -17 16 -47q0 -10 -1 -17.5t-2 -13.5q-2 -19 -4.5 -33.5l-4.5 -25.5q-3 -14 -7 -42l-3 -25q-2 -14 -4 -40v-4q0 -11 6 -11q4 0 15 8q37 27 61 61q13 15 24.5 33.5t23.5 40.5q-33 14 -48.5 39
t-15.5 57q0 34 15 70q27 64 86 111q29 21 58 21q14 0 23 -4q10 -4 16 -16t6 -27q0 -13 -2 -19q-8 -24 -14 -35l-15 -33q-17 -40 -29.5 -66.5t-28.5 -51.5q-2 -2 -6 -8t-5 -11t3 -9q9 -7 24 -7q22 0 52 15q25 13 51 40.5t42 51.5q4 7 9 7h2q46 -10 91 -10q32 0 70 5t76 11
q64 10 110.5 15.5t101.5 5.5q104 0 223 -25q8 -2 6 -7zM343 205q0 -6 2 -20q24 30 49.5 85.5t33.5 87.5q2 10 2 13q0 19 -16 37q-3 3 -6 3q-4 0 -9 -6l-6 -12q-28 -56 -43 -141q-7 -26 -7 -47z" />
    <glyph glyph-name="x.fina" horiz-adv-x="298" 
d="M962 248q-2 -3 -7 -3.5t-9 0.5q-115 28 -219 28q-49 0 -92.5 -5t-99.5 -15q-57 -9 -94 -13.5t-78 -4.5q-32 0 -79 5q-28 -60 -86 -136.5t-107 -106.5q-10 -6 -23 -6q-20 0 -41.5 11.5t-36.5 27.5q-23 25 -33 57q-11 -6 -21.5 -17.5t-16.5 -17.5l-27 -26q-9 -9 -14 -5
l-2 4q0 4 6 10l21 23l34 36q17 17 14 37q-5 45 -5 84q0 27 1 40q0 8 -6 12.5t-16.5 8.5t-13.5 6q1 13 16.5 20t35.5 7q33 0 56.5 -22.5t28.5 -54.5q0 -1 1 -7t8 -9l20 19q24 24 41.5 39t39.5 26q-2 -9 -8.5 -16t-8.5 -9l-23 -23l-47 -47q-7 -8 -9.5 -13t-1.5 -12
q3 -50 5.5 -74t11.5 -55q6 -20 19 -20q10 0 24 10q42 40 72.5 81.5t61.5 92.5l19 31q4 7 9 7h2q46 -10 91 -10q32 0 70 5t76 11q64 10 110.5 15.5t101.5 5.5q104 0 223 -25q8 -2 6 -7z" />
    <glyph glyph-name="y.fina" horiz-adv-x="440" 
d="M1107.5 272q1.5 -2 0.5 -4q-1 -3 -6.5 -3.5t-9.5 0.5q-115 28 -219 28q-49 0 -91.5 -5t-100.5 -15q-55 -9 -93 -13.5t-79 -4.5q-32 0 -79 5q-20 -40 -79.5 -87.5t-109.5 -66.5q-5 -47 -13.5 -81.5t-27.5 -74.5q-45 -94 -141 -123q-24 -7 -41 -7q-24 0 -43 12
q-29 18 -29 53q0 13 5 33q11 39 47 75q45 45 102 80q15 9 22 20t11 28q6 36 20 86l10 43l3.5 10.5t0.5 15.5q-31 -38 -48 -69q-22 -41 -63 -94q-18 -23 -34.5 -33.5t-35.5 -10.5q-14 0 -32 6q-25 8 -36.5 21t-11.5 35q0 15 6 36q21 67 56 118q26 38 59 38q10 0 20 -3
q21 -6 21 -27q0 -4 -2 -14q-5 -18 -26 -80l-22 -64q-9 -23 -10 -44q39 26 68 69l38 56l16.5 25l21.5 31q7 12 10 14q4 5 8 13t9 12.5t13 4.5q19 -1 31 -6.5t15 -21.5q13 -54 12 -92l-6 -69q49 15 98.5 56t76.5 83q5 7 9 7h2q46 -10 91 -10q32 0 71 5t77 11q63 10 109.5 15.5
t101.5 5.5q102 0 223 -25q3 -1 4.5 -3zM122 52q0 8 -3 17q-40 -25 -69.5 -46.5t-54.5 -48.5q-15 -17 -23.5 -36.5t-8.5 -38.5q0 -24 14.5 -41.5t43.5 -23.5q3 -1 9 -1q17 0 32 16q32 32 42 79l17 108z" />
    <glyph glyph-name="z.fina" horiz-adv-x="249" 
d="M917.5 272q1.5 -2 0.5 -4q-1 -3 -6.5 -3.5t-9.5 0.5q-115 28 -219 28q-49 0 -91.5 -5t-100.5 -15q-55 -9 -93 -13.5t-79 -4.5q-32 0 -79 5q-19 -39 -63.5 -73t-100.5 -57q4 -6 5 -13.5t2 -12.5q3 -15 3 -31q0 -51 -32 -105t-85 -91q-67 -47 -143 -47h-25
q-27 0 -43.5 16.5t-16.5 42.5q0 5 2 17q14 56 61 92q49 39 112 69l65 34l28 15q17 10 17 26q-1 15 -10 15q-8 0 -17 -8l-16 -12q-19 -14 -35 -14q-9 0 -16 3l-18 5q-21 5 -21 12q0 5 11 22q21 32 60 84l13 18q28 36 38 72l2 12q0 8 -8 8q-5 0 -14 -3q-49 -17 -79 -56
q-3 -3 -11 -13.5t-18 -19.5l-1 4q0 7 5.5 14.5t7.5 11.5q24 42 77 70q13 7 26 7q36 0 57.5 -19t21.5 -51q0 -18 -7 -38q-15 -48 -51 -93q19 -5 29.5 -10.5t16.5 -20.5q69 31 101.5 57t58.5 67q5 7 9 7h2q46 -10 91 -10q32 0 71 5t77 11q63 10 109.5 15.5t101.5 5.5
q102 0 223 -25q3 -1 4.5 -3zM0 64q8 18 9 36l-114 -58q-28 -15 -72 -47q-23 -17 -36.5 -41t-13.5 -48q0 -35 29 -55q6 -5 15 -5q8 0 13 2q25 7 42.5 22.5t43.5 44.5q45 51 74 127q2 4 10 22z" />
    <glyph glyph-name="a.init" horiz-adv-x="459" 
d="M451 262q-25 -56 -76.5 -131t-96.5 -114q-12 -10 -29.5 -15t-35.5 -5q-34 0 -48 17q-13 14 -18 41q-4 26 -4 39q0 42 16 92q3 7 7 21l-3 3q-6 -1 -9.5 -7t-5.5 -9q-33 -45 -69 -87q-14 -17 -29 -28q-29 -22 -53 -22q-7 0 -10 1q-8 1 -24.5 2t-28.5 5q-18 6 -26.5 16
t-8.5 25q0 11 2 18q10 44 28 80t49 67q-50 -5 -82 -5q-41 0 -74.5 4.5t-84.5 13.5q-51 10 -90.5 15t-87.5 5q-103 0 -232 -28l-6 -1q-8 0 -8 4v1q0 4 9 6q133 25 236 25q54 0 98.5 -5.5t101.5 -15.5q51 -9 78.5 -12.5t59.5 -3.5q46 0 96 10q43 36 91 44q3 1 10 1
q14 0 29.5 -6.5l22.5 -9.5q10 -4 17 -11t13.5 -16.5t11.5 -15.5l15 21q16 22 25 32q12 14 24 14q13 0 18 -14q5 -11 5 -29q0 -8 -5 -46q-9 -50 -24 -104q-9 -30 -11 -63t-2 -38t2 -13.5t7 -10.5q36 4 89.5 74.5t108.5 172.5q5 7 9 7q9 0 3 -11zM175 259q0 8 -5 16
q-20 32 -58 41q-3 1 -10 1q-18 0 -36 -16q-13 -11 -22 -30l-14 -31.5t-16 -45.5q-14 -54 -14 -91q0 -14 1.5 -19.5t5.5 -5.5q3 0 13 5q21 12 45 36q31 31 85 99l15 18q10 11 10 23z" />
    <glyph glyph-name="b.init" horiz-adv-x="350" 
d="M343 270q1 -3 -2 -8q-43 -64 -138 -82q-9 -54 -55 -112q-28 -36 -64 -51.5t-84 -16.5q-15 0 -22 16q-4 9 -4 21q0 8 5 35l2 12q0 4 -4 5t-12 1q-17 0 -22 4.5t-8 21.5q-3 18 -3 37q0 35 9 85l4 32v2q-1 -1 -3 -1q-39 -5 -85 -5q-41 0 -75 4.5t-85 13.5q-51 10 -90.5 15
t-87.5 5q-103 0 -232 -28l-6 -1q-8 0 -8 4v1q0 4 9 6q133 25 235 25q55 0 99.5 -5.5t101.5 -15.5q51 -9 78.5 -12.5t59.5 -3.5q42 0 91 9q15 90 44 161q25 62 80 122q39 39 82 39q18 0 30 -5q37 -13 37 -48q0 -17 -8 -36q-14 -34 -36 -66q-53 -72 -98 -122q-1 -1 -6 -5.5
t-5 -10.5q25 13 47 13q26 0 56 -23q18 -14 28 -40q4 -21 6 -42t1 -27q40 8 71 23.5t53 49.5q5 7 9 7t5 -3zM66 334q17 15 30 31t16 20q61 73 85 129q9 20 9 36t-10 29q-9 12 -25 12q-12 0 -23.5 -7.5t-18.5 -19.5q-5 -9 -9 -27q-11 -54 -28 -104q-20 -57 -26 -99zM109 212
q4 44 4 67q0 14 -2 22q-1 1 -2.5 5t-5.5 4q-12 0 -31.5 -18t-22.5 -32l-15 -75q-2 -8 -2 -13q0 -6 3 -14q47 21 72 22zM87 104.5q13 27.5 19 64.5q-19 -2 -32.5 -6.5t-26.5 -13.5q-10 -7 -18 -27q-6 -12 -9.5 -18t-12.5 -11q-1 -1 -2.5 -5t-1.5 -5q-1 -4 -2 -11t-1 -17
q0 -13 5 -22q9 -17 19 -17q12 0 25 22q25 39 38 66.5z" />
    <glyph glyph-name="c.init" horiz-adv-x="269" 
d="M261 262q-22 -50 -83 -126.5t-110 -118.5q-21 -17 -47.5 -27.5t-50.5 -10.5q-33 0 -54 21.5t-21 68.5q0 24 8 62q8 32 18 58q11 33 35 62q-39 -5 -84 -5q-41 0 -75.5 4.5t-83.5 13.5q-51 10 -90.5 15t-87.5 5q-103 0 -232 -28l-7 -1q-8 0 -8 4q0 5 9 7q133 25 236 25
q55 0 99.5 -5.5t101.5 -15.5q51 -9 78.5 -12.5t59.5 -3.5q46 0 96 10q35 36 93 62q21 9 38 9q22 0 48 -14q14 -8 14 -26q0 -8 -3 -17q-11 -49 -50 -82q-8 -6 -14 -4q29 37 42 62q9 17 9 33q0 7 -1 11q-4 25 -31 24q-14 -2 -23 -8t-16 -20q-16 -32 -35 -80q-3 -8 -19 -43.5
t-26 -74t-8 -68.5q10 -11 27 -11q20 0 43 14.5t40 29.5q42 40 72.5 81.5t61.5 92.5l19 31q5 7 9 7q9 0 3 -11z" />
    <glyph glyph-name="d.init" 
d="M381 262q-22 -49 -83 -126t-110 -119q-18 -21 -45 -21q-28 0 -43 20q-13 18 -17.5 39.5t-5.5 54.5v4q0 5 1 9q-10 0 -17.5 -7t-9.5 -9q-18 -17 -38 -14q-20 2 -30 2l-30 2q-22 3 -33 17.5t-11 35.5l1 10q9 44 38 80q-37 -4 -78 -4t-75.5 4.5t-85.5 13.5
q-56 10 -93.5 14.5t-84.5 4.5q-101 0 -232 -27l-6 -1q-8 0 -8 4q0 5 9 7q133 25 235 25q55 0 99.5 -5.5t101.5 -15.5q51 -9 78.5 -12.5t59.5 -3.5q42 0 91 9q31 33 72 48q11 5 27 5q6 0 18 -2q19 -4 31 -7q9 7 12 17t4 14q22 57 39 94.5t41 73.5q4 7 33 43q14 14 23.5 20.5
t20.5 6.5q5 0 8 -1q36 -10 36 -48q0 -48 -27 -99q-20 -39 -40.5 -69t-48.5 -56q-11 -11 -13 -20q-15 -57 -28.5 -122t-13.5 -100q0 -27 10 -27q13 1 21 6.5t17 15l15 15.5q42 40 72.5 81.5t61.5 92.5l19 31q5 7 9 7q9 0 3 -11zM226 394q-10 -46 -17 -70q10 4 17 14
q61 75 75 154q3 15 3 30q0 11 -1 16q-1 11 -9 11q-7 0 -15 -8q-10 -8 -20 -30q-16 -39 -33 -117zM104 275q0 17 -22 17q-12 1 -18 -3.5t-12 -18.5q-26 -55 -36 -105q-4 -18 -4 -28q0 -9 3 -17q34 14 51 33t24 50l13 64q1 3 1 8z" />
    <glyph glyph-name="e.init" horiz-adv-x="289" 
d="M281 262q-22 -50 -83 -126.5t-110 -118.5q-36 -30 -80 -30t-75 31t-31 91q0 21 6 42l-9 -2q-39 -5 -84 -5q-41 0 -76 4.5t-84 13.5q-53 10 -91.5 15t-86.5 5q-103 0 -232 -28l-7 -1q-8 0 -7 4v1q0 4 8 6q133 25 236 25q55 0 99.5 -5.5t101.5 -15.5q51 -9 78.5 -12.5
t59.5 -3.5q46 0 96 10q9 33 35 84q30 60 83 96q16 11 37 17t42 6q30 0 46 -11q21 -13 21 -40q0 -9 -3 -20q-12 -39 -32.5 -69t-55.5 -50q-31 -18 -56 -19q-14 0 -17 -3t-9 -18q-7 -21 -7 -44q0 -29 12 -63q10 -11 27 -11q20 0 43 14.5t40 29.5q42 40 72.5 81.5t61.5 92.5
l19 31q5 7 9 7q9 0 3 -11zM22.5 203q-5.5 -12 -8.5 -21.5t-2 -18.5q11 0 16 1q48 14 83 50.5t48 83.5q2 8 2 13q0 9 -4 23q-6 17 -27 17q-18 0 -31 -8.5t-24 -27.5q-31 -57 -44 -92q-3 -8 -8.5 -20z" />
    <glyph glyph-name="f.init" horiz-adv-x="300" 
d="M293 270q1 -3 -2 -8q-41 -63 -77.5 -103.5t-80.5 -49.5q-39 -109 -83 -169q-14 -19 -33 -29.5t-38 -10.5q-23 0 -40 15q-22 21 -29 63q-6 35 -6 70q0 13 2 41q3 39 11 85q-3 -1 -5.5 -2t-4.5 -1q-39 -5 -84 -5q-41 0 -76 4.5t-84 13.5q-53 10 -91.5 15t-86.5 5
q-103 0 -232 -28l-7 -1q-8 0 -8 4q0 5 9 7q133 25 236 25q55 0 98.5 -5.5t102.5 -15.5q50 -9 78.5 -12.5t60.5 -3.5q46 0 96 10q19 101 68 224q16 39 34 63q10 16 20 24q22 20 36.5 28t30.5 8t41 -9q41 -13 41 -49q0 -12 -5 -30q-17 -63 -64 -122l-31 -38l-22 -26
q-5 -5 -4 -12q6 1 16 1q38 0 53 -27q10 -17 10 -44q0 -14 -6 -52q41 11 69.5 42.5t48 62l24.5 38.5q5 7 9 7t5 -3zM50 261l7 2q73 75 98 140q15 37 15 64q0 11 -3 23q-3 11 -11 16.5t-18 3.5q-12 -3 -17 -10t-9 -19q-31 -88 -51 -170q-7 -30 -11 -50zM123 171q0 37 -25 59
q-6 6 -13 6t-14 -7q-27 -25 -22 -45q5 -25 7 -34q7 -24 38 -29h5q16 0 20 18q4 15 4 32zM110 100q0 6 -3 8t-11 4q-25 3 -42 11.5t-26 28.5l-10 -37l-13 -52q-9 -40 -8 -65q0 -27 2 -42t11 -28q6 2 15 11q28 32 47 68t37 86q1 3 1 7z" />
    <glyph glyph-name="g.init" horiz-adv-x="361" 
d="M354 270q1 -3 -2 -8q-56 -84 -160 -125l-9 -36q-16 -62 -21 -77q-13 -41 -58 -89q-6 -6 -9 -7q-49 -28 -83 -28q-19 0 -34 7q-16 6 -24 19.5t-8 30.5q0 28 16 50q17 25 40 42q44 35 71 48q16 8 19 12.5t3 20.5q1 11 0.5 21t-0.5 18q-11 -11 -16 -15q-9 -10 -17 -17
q-20 -20 -46 -20h-21q-34 0 -49 5q-33 12 -33 40q0 10 5 27q17 39 34 62q-50 -5 -82 -5q-41 0 -74.5 4.5t-84.5 13.5q-51 10 -90.5 15t-86.5 5q-103 0 -232 -28l-7 -1q-8 0 -8 4q0 5 9 7q133 25 236 25q55 0 98.5 -5.5t102.5 -15.5q50 -9 78.5 -12.5t60.5 -3.5q41 0 91 9
q21 21 50 31.5t59 10.5q17 0 30 -3q14 -4 28 -31q5 1 9 5l6 6q15 14 30 14t25 -16q5 -10 5 -27q0 -7 -1 -18.5t0 -19.5q0 -6 -2 -15t-3 -18q-4 -22 -4 -26q41 14 81 43.5t64 66.5q5 7 9 7t5 -3zM117 255q0 18 -11 29.5t-29 11.5q-9 0 -15 -5t-11 -16q-4 -8 -5 -12
q-1 -17 -8 -39l-6 -24q-1 -6 -5.5 -23.5t-4.5 -34.5q0 -8 1 -13q18 13 20 14q31 23 46 39.5t20 42.5q1 4 5 12q3 9 3 18zM88.5 61.5q2.5 12.5 2.5 22.5q0 9 -1 13q-35 -20 -61.5 -39.5t-45.5 -44.5q-17 -22 -17 -46q0 -14 7 -25.5t20 -16.5q5 -2 18.5 -6.5t21.5 -4.5
q12 0 20 11.5t20 42.5q7 19 9 42.5t3 32.5q1 6 3.5 18.5z" />
    <glyph glyph-name="h.init" horiz-adv-x="369" 
d="M356 242q-24 -51 -84.5 -128t-109.5 -117q-26 -22 -51 -22q-24 0 -40 19t-16 49q0 16 3 34q12 66 46 152q10 24 12 36v2q0 4 -3.5 5t-8.5 -2q-16 -9 -29 -27q-70 -87 -80 -163q-4 -20 -15 -31q-14 -14 -28 -14q-9 0 -14 4q-15 10 -15 32q-1 11 -1 34q0 51 10 118
q-4 -2 -6 -2q-39 -5 -84 -5q-41 0 -76 4.5t-84 13.5q-53 10 -91.5 15t-86.5 5q-103 0 -232 -28l-7 -1q-8 0 -7 4v1q0 4 8 6q133 25 237 25q55 0 98.5 -5.5t102.5 -15.5q50 -9 78.5 -12.5t60.5 -3.5q41 0 91 9q4 29 12 62q6 27 22 79q13 46 52 100q42 60 111 60
q21 0 32 -10.5t11 -30.5q0 -5 -2 -15q-10 -56 -64 -126q-24 -31 -63 -64q-31 -29 -32 -58q-2 -18 -4 -27q-6 -28 -5 -45q11 10 19 28q30 47 58 78q21 23 47 23l9 -1q32 -3 32 -36q0 -32 -3 -49q-9 -46 -16 -77q-4 -15 -13 -58q-7 -24 -7 -50q1 -11 10 -11q8 0 20.5 9.5
t30.5 26.5q42 40 72.5 81.5t61.5 92.5l19 31q5 7 9 7q7 0 3 -11zM24 280q53 48 78 81q45 56 56 112q1 5 1 13q0 23 -18 34q-7 4 -15 4q-18 0 -30 -18q-14 -17 -23 -35q-35 -87 -49 -191z" />
    <glyph glyph-name="i.init" horiz-adv-x="219" 
d="M13 345.5q-4 4.5 -3 11.5q1 6 8 10.5t14 4.5q6 0 9.5 -4.5t2.5 -11.5q-1 -5 -7.5 -10t-13.5 -5q-6 0 -10 4.5zM211 262q-22 -49 -83 -126t-110 -119q-34 -25 -62 -25q-29 0 -46.5 21.5t-15.5 50.5q5 91 49 178q4 8 13 20q-33 -4 -70 -4q-42 0 -78 5t-83 14
q-50 10 -90.5 15t-88.5 5q-97 0 -231 -28l-6 -1q-8 0 -8 4q0 6 9 7q133 25 236 25q55 0 99.5 -5.5t101.5 -15.5q51 -9 78.5 -12.5t59.5 -3.5q41 0 89 9q6 2 21 2q25 -1 34 -10t7 -30q-4 -34 -20 -74q-35 -92 -35 -145q7 -7 23 5t42 37q42 40 72.5 81.5t61.5 92.5l19 31
q5 7 9 7q9 0 3 -11z" />
    <glyph glyph-name="j.init" horiz-adv-x="190" 
d="M-11 345.5q-4 4.5 -3 11.5q1 6 8 10.5t14 4.5q6 0 9.5 -4.5t2.5 -11.5q-1 -5 -7.5 -10t-13.5 -5q-6 0 -10 4.5zM182 262q-24 -40 -59.5 -66t-91.5 -48q-4 -40 -16.5 -87t-30.5 -83q-32 -65 -91 -104q-35 -24 -75 -24q-16 0 -29 3q-43 10 -38 63q3 81 86 148q42 33 64 44
q13 6 19.5 15.5t8.5 24.5q6 36 10 54l5 27q1 14 13 40l1 2q-50 -5 -82 -5q-41 0 -74.5 4.5t-84.5 13.5q-51 10 -90.5 15t-87.5 5q-103 0 -232 -28l-6 -1q-8 0 -8 4v1q0 4 9 6q133 25 236 25q55 0 98.5 -5.5t101.5 -15.5q50 -9 78.5 -12.5t60.5 -3.5q44 0 94 10q3 1 14 1
q18 -2 27.5 -8.5t12.5 -22.5q4 -17 4 -52l-1 -36q100 34 142 100q5 7 9 7q9 0 3 -11zM-83 94q0 5 -4 5q-6 0 -12 -5q-39 -25 -79 -62q-54 -52 -54 -110q0 -38 36 -56q8 -4 12 -4q8 0 21 13q12 12 25 34q23 43 36 111l6 22q2 8 5.5 19t6.5 25q1 3 1 8z" />
    <glyph glyph-name="k.init" horiz-adv-x="334" 
d="M326 262q-21 -48 -82.5 -124t-110.5 -121q-31 -28 -55 -28q-15 0 -23.5 13t-8.5 39q0 19 2 30q4 36 14 108q3 17 -17 17q-8 0 -17 -3t-13 -7q-7 -7 -7.5 -16.5t-0.5 -12.5q-5 -24 -10 -62l-5 -31q-3 -20 -8.5 -25t-25.5 -7l-22 -2q-10 0 -12 5t-5 24q-3 21 -3 41
q0 31 4.5 59.5t14.5 83.5l5 23l3 17q-4 -2 -6 -2q-39 -5 -84 -5q-41 0 -76 4.5t-84 13.5q-53 10 -91.5 15t-86.5 5q-103 0 -232 -28l-7 -1q-8 0 -8 4q0 5 9 7q133 25 236 25q55 0 98.5 -5.5t102.5 -15.5q50 -9 78.5 -12.5t60.5 -3.5q49 0 93 9q22 100 86 206q7 13 20 30
q33 41 74 41q28 0 46.5 -18.5t18.5 -46.5q0 -25 -18 -52q-43 -65 -110 -122q-15 -15 -23 -28.5t-9 -29.5q0 -4 -2 -9.5t-3 -12.5q15 10 30 29q32 34 55 51q19 14 35 14q9 0 19 -5q13 -6 13 -23q0 -26 -23 -59t-54 -44q-3 -1 -7 -3.5t-10 -4.5q19 -7 26 -20t7 -32
q0 -9 -2 -27l-13 -100q-3 -12 2 -12q9 0 31 21l26 25q42 40 72.5 81.5t61.5 92.5l19 31q5 7 9 7q9 0 3 -11zM47 338q61 47 109 116q17 24 17 47q0 25 -21 48q-5 6 -12 6q-10 0 -20 -12q-13 -17 -17 -31q-12 -34 -17 -52q-16 -44 -26 -77q-5 -15 -13 -45zM124 276
q11 6 19 20.5t8 24.5q0 7 -4 8q-1 1 -4 1q-6 0 -15 -9q-40 -29 -86 -80q-1 -1 -4.5 -5.5t-3.5 -10.5q33 15 90 51z" />
    <glyph glyph-name="l.init" horiz-adv-x="251" 
d="M243 262q-22 -49 -83 -126t-110 -119q-27 -22 -58 -22q-30 0 -53.5 20.5t-28.5 47.5q-3 18 -3 37q0 30 9 79l6 24l-6 -2q-39 -5 -84 -5q-41 0 -76 4.5t-84 13.5q-53 10 -91.5 15t-86.5 5q-104 0 -233 -28l-6 -1q-8 0 -8 4q0 5 9 7q133 25 236 25q55 0 98.5 -5.5
t101.5 -15.5q50 -9 78.5 -12.5t60.5 -3.5q49 0 93 9q29 110 80 203q3 5 14.5 25.5t23.5 37.5t25 30q18 18 38 31q25 16 49 16q20 0 36 -9q28 -15 28 -45q0 -11 -3 -23q-12 -48 -39 -90q-35 -52 -62.5 -87t-62.5 -64q-20 -17 -26 -42q-11 -41 -20 -103q-4 -20 -4 -43
q0 -30 12 -31q16 1 30 11.5t35 30.5q42 40 72.5 81.5t61.5 92.5l19 31q5 7 9 7q9 0 3 -11zM41 263.5q-2 -8.5 0 -16.5l6 3q8 6 11 10q28 26 49.5 56t49.5 74l14 22q11 17 16 33.5t12 46.5q1 3 1 9q0 10 -6 26q-6 13 -21 13q-13 0 -27 -11q-9 -7 -14.5 -16t-11.5 -23
q-37 -88 -76 -215q-1 -3 -3 -11.5z" />
    <glyph glyph-name="m.init" horiz-adv-x="509" 
d="M496 242q-24 -51 -84.5 -128t-109.5 -117q-26 -22 -51 -22q-24 0 -40 19t-16 49q0 16 3 34q12 66 46 152q11 26 14 45v2q0 9 -11 3q-13 -8 -29 -27q-19 -22 -32 -39t-18 -36q-3 -8 -11 -33.5t-20 -46.5q-10 -16 -15.5 -19.5t-23.5 -3.5q-27 0 -36.5 5t-9.5 22q0 4 2 24
q8 53 36 137q10 30 11 46q-9 0 -14 -7q-64 -64 -87 -138q-4 -12 -4 -26l1 -16q3 -31 -7 -68q-5 -17 -21 -17l-37 -1q-14 0 -17 4.5t-3 24.5v21q-3 74 17 145q1 3 2 8.5t4 12.5l3 9q-35 -4 -72 -4q-41 0 -75.5 4.5t-83.5 13.5q-51 10 -90.5 15t-87.5 5q-104 0 -233 -28l-6 -1
q-8 0 -8 4q0 5 9 7q133 25 236 25q55 0 99.5 -5.5t101.5 -15.5q51 -9 78.5 -12.5t59.5 -3.5q46 0 96 10q3 0 4 1q10 2 17 2t11 -2q5 -4 5 -20q0 -8 -2 -26q-2 -21 -1 -27l42 63l21 31q11 14 24.5 21.5t26.5 7.5q20 0 33 -15q30 -31 31 -85q19 22 34 37q38 38 71 33
q32 -3 32 -36q0 -30 -5 -58q-9 -46 -16 -77q-4 -15 -13 -58q-7 -24 -7 -50q1 -11 10 -11q8 0 20.5 9.5t30.5 26.5q42 40 72.5 81.5t61.5 92.5l19 31q5 7 9 7q7 0 3 -11z" />
    <glyph glyph-name="n.init" horiz-adv-x="330" 
d="M317 242q-31 -68 -75 -138.5t-89 -106.5q-26 -22 -51 -22q-24 0 -40 19t-16 49q0 16 3 34q6 36 20.5 83.5t30.5 89.5q10 24 13 36v2q0 4 -3.5 5t-8.5 -2q-8 -5 -19 -16t-18 -20q-32 -44 -45 -70q-17 -33 -24 -64.5t-7 -47.5q-3 -24 -9.5 -29.5t-30.5 -4.5l-25 3
q-15 2 -19 5.5t-4 14.5q0 25 5 51.5t15 63.5q2 10 8 35.5t9 46.5q1 9 5 22h-1q-39 -5 -84 -5q-41 0 -76 4.5t-84 13.5q-53 10 -91.5 15t-86.5 5q-103 0 -232 -28l-7 -1q-8 0 -8 4q0 5 9 7q133 25 236 25q55 0 98.5 -5.5t102.5 -15.5q50 -9 78.5 -12.5t60.5 -3.5q42 0 91 9
q4 4 10 4q42 0 49 -44q2 -21 4 -30q11 10 21.5 23t15.5 18q40 44 75 44q7 0 10 -1q32 -3 33 -36q0 -8 -0.5 -20t-2.5 -29q-3 -18 -19 -87q-13 -55 -16 -69q-7 -24 -7 -50q1 -11 10 -11t23.5 11.5t25.5 24.5q35 43 64 92.5t61 112.5q4 7 9 7q7 0 3 -11z" />
    <glyph glyph-name="o.init" horiz-adv-x="303" 
d="M291.5 278.5q4.5 -0.5 6 -1.5t0.5 -4q-1 -5 -8 -5l-9 1q-35 5 -51 5q-24 0 -66 -9q-14 -82 -75 -183q-27 -42 -68 -74q-16 -13 -35 -12q-5 1 -24.5 3.5t-34.5 8.5q-26 10 -38.5 29.5t-12.5 46.5q0 12 1 18q16 98 82 155l14 12q-34 -3 -65 -3q-41 0 -76 4.5t-84 13.5
q-53 10 -91.5 15t-86.5 5q-104 0 -233 -28l-6 -1q-8 0 -8 4v1q0 4 9 6q133 25 235 25q55 0 98.5 -5.5t101.5 -15.5q50 -9 78.5 -12.5t60.5 -3.5q49 0 93 9q1 1 3 1q13 3 21 2q7 -2 10 -4t3 -6q0 -3 -5 -13l-16 -29l-21 -40q-31 -64 -31 -119q0 -13 1 -20q0 -11 8 -29
q3 -9 11 -9q7 0 14 4q39 23 60 49q68 83 89 170q3 12 3 18t-5 7t-25 1q-24 0 -40.5 3t-30.5 13q-3 4 -6 6t-5 4q-8 9 -8 21q0 11 8.5 20t24.5 14q12 4 25 4q26 0 48 -19q21 -19 25 -42q0 -17 14 -14q32 7 61 7q23 0 50 -4q2 0 6.5 -0.5zM146 286q-4 38 -42 51q-6 3 -14 3
q-15 0 -34 -13q-15 -12 -9 -25q2 -6 13 -17q7 -6 15.5 -8t18 -2.5t14.5 -1.5h25q13 0 13 13z" />
    <glyph glyph-name="p.init" horiz-adv-x="363" 
d="M356 270q1 -3 -2 -8q-30 -45 -70 -80t-78 -42q-20 -60 -73 -111q-17 -15 -35 -21t-41 -8q-28 0 -51 5l-6 -40q-4 -22 -5 -33q-5 -35 -14 -60q-23 -67 -87 -78q-24 -4 -29 -4q-13 0 -19 8t-10 30q-2 14 -2 20q0 18 8 54q31 111 70 181q11 21 17 58q1 6 6.5 46t18.5 78
q1 2 1 5l3 11q-50 -5 -82 -5q-41 0 -75.5 4.5t-83.5 13.5q-51 10 -90.5 15t-87.5 5q-103 0 -232 -28l-7 -1q-8 0 -8 4q0 5 9 7q133 25 236 25q55 0 98.5 -5.5t102.5 -15.5q50 -9 78.5 -12.5t60.5 -3.5q42 0 91 9l3 1q6 2 9 2q14 0 20 -11q4 -5 12 -26l35 36q23 22 38.5 32
t33.5 10q20 0 47 -13q50 -22 52 -89q1 -11 -1.5 -35.5t-5.5 -45.5q30 6 67.5 39t63.5 73q5 7 9 7t5 -3zM142 259q2 14 2 25q0 10 -1 15q-3 13 -7.5 18.5t-12.5 5.5q-10 0 -26 -9q-44 -23 -80 -80q-4 -7 -4 -17q1 -15 1 -45q0 -41 -3 -89q43 34 87 51q10 3 15 17q2 5 12 33.5
t14 54.5q1 6 3 20zM98 117q-15 -4 -24.5 -8.5t-22.5 -14.5q-28 -21 -28 -45q0 -13 7 -24q3 -6 8 -6q4 0 8 6q30 37 52 92zM-86 46q-5 -3 -7 -6.5t-2 -4.5q-35 -79 -49 -162q-1 -6 -1 -19q0 -15 2 -22q3 -13 5.5 -19.5t9.5 -4.5q7 1 9.5 6.5t4 13t3.5 11.5l1 10l15 100
q8 64 9 97z" />
    <glyph glyph-name="q.init" horiz-adv-x="439" 
d="M431 262q-17 -37 -85.5 -101.5t-122.5 -105.5q3 -10 11 -30t15 -46q2 -16 2 -23q0 -6 -2 -16q-4 -23 -10 -47t-15 -44q-31 -74 -108 -79q-17 0 -24 4q-22 15 -33.5 33.5t-11.5 44.5t12 82q14 73 34 127q4 9 7.5 22.5l5.5 21.5l-17 -14q-16 -12 -30 -26q-26 -28 -58 -25
q-26 1 -58 8q-44 9 -44 54l1 12q11 79 60 136q-37 -4 -78 -4q-42 0 -76.5 4.5t-85.5 13.5q-57 10 -93.5 14.5t-83.5 4.5q-101 0 -232 -27l-7 -1q-8 0 -8 4q0 5 9 7q133 25 236 25q55 0 99.5 -5.5t101.5 -15.5q51 -9 78.5 -12.5t59.5 -3.5q42 0 91 9l14 14q14 13 36 19.5
t26 7.5q32 10 57 10q31 0 52 -18q4 -4 9.5 -15t10.5 -16l42 50q6 8 11.5 12t12.5 2q7 -1 9 -6t2 -14q-2 -52 -21 -138q-15 -67 -30 -109q59 40 125.5 103t91.5 101q5 7 9 7q9 0 3 -11zM127 162q19 46 30 64q5 12 5 19q0 6 -3 12q-9 18 -19 28q-12 14 -28 14q-13 0 -25 -9
t-21 -26q-2 -2 -2 -3q-37 -78 -53 -141q-3 -12 -3 -23q0 -16 7 -30q24 12 43 27t50 43q11 8 19 25zM232 -47q0 52 -28 89q-1 1 -2.5 3.5t-2.5 2.5l-2 -6q-24 -71 -37.5 -115.5t-22.5 -90.5q-2 -8 -2 -12q0 -12 7 -24q5 -7 10 -7q3 0 11 6q20 20 29 32q40 58 40 122z" />
    <glyph glyph-name="r.init" horiz-adv-x="309" 
d="M301 262q-24 -50 -84.5 -127t-108.5 -118q-24 -18 -50 -17q-34 2 -55 16.5t-27 44.5q-2 12 -2 19q0 5 2 17q19 76 72 159q8 14 13 21q-8 -1 -26.5 -5.5t-33.5 -4.5q-18 -34 -55.5 -66.5t-82.5 -39.5q-39 -5 -85 -5q-41 0 -75 4.5t-85 13.5q-51 10 -90.5 15t-87.5 5
q-103 0 -232 -28l-6 -1q-8 0 -8 4v1q0 4 9 6q133 25 236 25q54 0 97.5 -5.5t101.5 -15.5q53 -9 80.5 -12.5t59.5 -3.5q46 0 96 10q38 7 64 33t46 61q-47 4 -76.5 31t-29.5 66q0 29 17 56q23 35 46.5 57.5t56.5 32.5q39 11 61 11t32 -9q11 -9 11 -23q0 -7 -3 -15
q-11 -53 -33 -87q-11 -19 -27 -53l-12.5 -25t-12.5 -23q14 -1 26 2.5t34 14.5q12 6 17 10q17 11 35 11q17 0 29 -10q7 -6 7 -16q0 -7 -5 -19l-33 -75l-40 -92q-16 -39 -18 -86q0 -5 5 -8q16 1 30 11.5t35 30.5q51 50 86 100t67 105q5 7 9 7q9 0 3 -11zM-13 291h1
q7 0 10.5 4.5t8.5 12.5q21 36 39.5 76t26.5 70q1 5 3.5 13.5t3.5 14.5q2 7 -2 10.5t-12 3.5q-15 0 -24 -9q-11 -9 -22 -27q-23 -42 -39 -82q-11 -25 -11 -53q0 -11 1 -17q2 -16 16 -17z" />
    <glyph glyph-name="s.init" horiz-adv-x="299" 
d="M291 262q-26 -46 -89.5 -89.5t-129.5 -71.5q2 -5 7 -30t7 -44q2 -29 -11 -78q-10 -35 -46 -59q-31 -21 -61 -30.5t-67 -9.5q-9 0 -17 1q-41 5 -41 40q0 8 1 13q11 68 64 117q7 6 23 21t32 25q16 11 13 27l-8 41h-2q-39 -5 -85 -5q-41 0 -75 4.5t-85 13.5q-51 10 -90.5 15
t-87.5 5q-103 0 -232 -28l-6 -1q-8 0 -8 4q0 5 9 7q133 25 236 25q55 0 98.5 -5.5t101.5 -15.5q51 -9 78.5 -12.5t59.5 -3.5q44 0 85 8q-2 6 -5 13q-18 43 -16 105q3 80 96 120l4 1q5 2 18 2q26 0 51.5 -15.5t28.5 -35.5q2 -19 -13 -52q-17 -38 -32 -63t-38 -46
q-3 -3 -3 -11q0 -10 3.5 -24t6.5 -21q60 22 121 61.5t92 85.5q5 7 9 7q9 0 3 -11zM59 217q31 47 46 90q4 10 6 28v4q0 8 -5 16t-10 8q-9 0 -17.5 -7.5t-11.5 -9.5q-11 -11 -16 -26q-13 -42 -13 -76q0 -19 5 -42q9 5 16 15zM-17 36q0 12 -5 22q-33 -24 -55.5 -47t-35.5 -50
q-17 -32 -17 -57q0 -15 6 -28q8 -13 17 -13t19 7q36 23 48 51q11 23 15 46t7 57q1 4 1 12z" />
    <glyph glyph-name="t.init" horiz-adv-x="257" 
d="M407 530q9 0 4 -8q-4 -6 -12 -8l-283 -51q-2 -10 -4 -17q-15 -54 -51 -160l-23 -70q-14 -42 -23.5 -88.5t-9.5 -75.5q0 -32 13 -33q16 1 30 11.5t35 30.5q42 40 72.5 81.5t61.5 92.5l19 31q5 7 9 7q9 0 3 -11q-22 -49 -83 -126t-110 -119q-27 -22 -58 -22
q-30 0 -53.5 20.5t-28.5 47.5q-6 34 -6 54q0 30 10 77q-5 -3 -9 -3q-39 -5 -84 -5q-41 0 -75 4.5t-85 13.5q-51 10 -90.5 15t-87.5 5q-103 0 -232 -28l-6 -1q-8 0 -8 4v1q0 4 8 6q133 25 236 25q55 0 98.5 -5.5t102.5 -15.5q50 -9 78.5 -12.5t60.5 -3.5q46 0 96 10l3 12
l16 50q37 116 60 169l3 8l-188 -35h-2q-4 0 -7.5 2t-3.5 5v1q0 4 8 6l201 38q25 52 37 70q8 13 19 21q17 13 30 13t22 -14q6 -9 6 -25q0 -17 -6 -46l283 51h4z" />
    <glyph glyph-name="u.init" horiz-adv-x="411" 
d="M397 242q-24 -51 -84.5 -128t-109.5 -117q-25 -20 -53 -20t-46.5 19t-18.5 55q0 46 24 102l19 44l38 88q1 2 4.5 8.5t1.5 12.5q-9 -5 -14.5 -11.5t-12.5 -17.5l-21 -30q-62 -88 -77 -112q-7 -12 -25 -32l-22 -29q-4 -5 -8.5 -6t-8.5 -1q-37 4 -59 12q-11 4 -16 14t-3 22
q6 53 19 95.5t42 81.5l10 14l4 4q-33 -4 -70 -4q-41 0 -75 4.5t-85 13.5q-52 10 -91.5 15t-87.5 5q-100 0 -230 -27l-7 -1q-8 0 -7 4v1q0 4 8 6q133 25 236 25q55 0 99.5 -5.5t101.5 -15.5q51 -9 78.5 -12.5t59.5 -3.5q40 0 90 9q5 2 14 2q21 0 28 -19q4 -11 4 -24
q0 -14 -5 -32q-20 -68 -28 -101q-1 -3 -4 -13t-2 -18q9 1 12.5 7t4.5 7q32 39 90 121q32 44 50 63q6 7 11 10.5t10 3.5t14 -3q46 -17 46 -59q0 -29 -8 -57t-25 -75l-41 -121q1 -11 10 -11q8 0 20.5 9.5t30.5 26.5q42 40 72.5 81.5t61.5 92.5l19 31q5 7 9 7q7 0 3 -11z" />
    <glyph glyph-name="v.init" horiz-adv-x="375" 
d="M362 242q-11 -25 -40.5 -58.5t-66.5 -50.5q-31 -14 -60 -14q-12 0 -38 4q-22 -33 -38 -53q-33 -40 -36 -43q-21 -24 -44 -25q-26 -2 -38 -2q-20 0 -35 4q-24 8 -33 28q-20 49 -20 100q0 61 27 127q6 10 8 15q2 2 3.5 5t4.5 6q-36 -4 -75 -4q-41 0 -75 4.5t-85 13.5
q-56 10 -93.5 14.5t-84.5 4.5q-101 0 -232 -27l-6 -1q-8 0 -8 4v1q0 4 9 6q133 25 235 25q55 0 98.5 -5.5t101.5 -15.5q50 -9 78.5 -12.5t60.5 -3.5q49 0 93 9q7 3 16 3q8 0 15 -3q6 -2 8 -8.5t2 -7.5q8 -31 8 -71q0 -31 -2 -47q-3 -60 17 -122q2 -6 3.5 -9.5t4.5 -3.5
q4 0 14 9q25 21 43 41q21 24 36 49q-33 14 -48.5 39t-15.5 57q0 34 15 70q27 64 86 111q29 21 58 21q14 0 23 -4q10 -4 16 -16t6 -27q0 -13 -2 -19q-8 -24 -14 -35l-15 -33q-17 -40 -29.5 -66.5t-28.5 -51.5q-2 -2 -6 -8t-5 -11t3 -9q9 -7 24 -7q22 0 52 15q25 13 51 40.5
t42 51.5q5 7 9 7q7 0 3 -11zM173 205q0 -6 2 -20q24 30 49.5 85.5t33.5 87.5q2 10 2 13q0 19 -16 37q-3 3 -6 3q-4 0 -9 -6l-6 -12q-28 -56 -43 -141q-7 -26 -7 -47z" />
    <glyph glyph-name="w.init" horiz-adv-x="545" 
d="M532 242q-11 -25 -40.5 -58.5t-66.5 -50.5q-31 -14 -60 -14q-12 0 -38 4l-34.5 -53.5t-34.5 -49.5q-27 -35 -46 -47.5t-48 -12.5q-42 0 -59 11.5t-17 43.5q0 90 35 171q4 9 8.5 23.5t10.5 24.5q-20 -11 -32 -35q-11 -17 -41 -73q-9 -18 -23.5 -37l-28.5 -37
q-15 -17 -30 -17q-5 0 -8 1l-31 5q-54 12 -56 69q0 77 44 147q19 31 45 50q-35 -3 -64 -3q-41 0 -75 4.5t-85 13.5q-51 10 -90 15t-87 5q-103 0 -232 -28l-6 -1q-8 0 -8 4q0 6 9 7q133 25 236 25q55 0 99.5 -5.5t101.5 -15.5q50 -9 78.5 -12.5t60.5 -3.5q44 0 85 8q8 3 16 3
q13 0 21 -8q6 -4 6 -12t-8 -22q-49 -95 -61 -171q-2 -16 -2 -23q0 -10 3 -21q3 -9 8 -9q3 0 13 8q33 33 51 61l51 79q14 18 20 27q18 26 37 26q13 0 29 -14q16 -17 16 -47q0 -10 -1 -17.5t-2 -13.5q-2 -19 -4.5 -33.5l-4.5 -25.5q-3 -14 -7 -42l-3 -25q-2 -14 -4 -40v-4
q0 -11 6 -11q4 0 15 8q37 27 61 61q13 15 24.5 33.5t23.5 40.5q-33 14 -48.5 39t-15.5 57q0 34 15 70q27 64 86 111q29 21 58 21q14 0 23 -4q10 -4 16 -16t6 -27q0 -13 -2 -19q-8 -24 -14 -35l-15 -33q-17 -40 -29.5 -66.5t-28.5 -51.5q-2 -2 -6 -8t-5 -11t3 -9q9 -7 24 -7
q22 0 52 15q25 13 51 40.5t42 51.5q5 7 9 7q7 0 3 -11zM343 205q0 -6 2 -20q24 30 49.5 85.5t33.5 87.5q2 10 2 13q0 19 -16 37q-3 3 -6 3q-4 0 -9 -6l-6 -12q-28 -56 -43 -141q-7 -26 -7 -47z" />
    <glyph glyph-name="x.init" horiz-adv-x="298" 
d="M68 -9q-20 0 -41.5 11.5t-36.5 27.5q-23 25 -33 57q-11 -6 -21.5 -17.5t-16.5 -17.5l-27 -26q-9 -9 -14 -5l-2 4q0 4 6 10l21 23l34 36q17 17 14 37q-5 45 -5 84q0 27 1 40q0 35 -48 35q-19 -2 -54 -2q-42 0 -76.5 4.5t-85.5 13.5q-53 10 -91.5 15t-86.5 5
q-103 0 -232 -28l-7 -1q-8 0 -7 4v1q0 4 8 6q133 25 236 25q55 0 98.5 -5.5t102.5 -15.5q50 -9 78.5 -12.5t60.5 -3.5q46 0 96 10q17 3 27 3t21 -3q24 -8 40 -28.5t21 -45.5q0 -1 1 -7t8 -9l20 19q24 24 41.5 39t39.5 26q-2 -9 -8.5 -16t-8.5 -9l-23 -23l-47 -47
q-7 -8 -9.5 -13t-1.5 -12q3 -50 5.5 -74t11.5 -55q6 -20 19 -20q10 0 24 10q42 40 72.5 81.5t61.5 92.5l19 31q5 7 9 7q7 0 3 -11q-27 -59 -85.5 -136.5t-108.5 -108.5q-10 -6 -23 -6z" />
    <glyph glyph-name="y.init" horiz-adv-x="439" 
d="M431 262q-19 -40 -79.5 -88.5t-110.5 -67.5q-5 -47 -13.5 -81.5t-27.5 -74.5q-45 -94 -141 -123q-24 -7 -41 -7q-24 0 -43 12q-29 18 -29 53q0 13 5 33q11 39 47 75q45 45 102 80q15 9 22 20t11 28q6 36 20 86l10 43l3.5 10.5t0.5 15.5q-31 -38 -48 -69q-22 -41 -63 -94
q-18 -23 -34.5 -33.5t-35.5 -10.5q-14 0 -32 6q-25 8 -36.5 21t-11.5 35q0 15 6 36q21 67 56 118q12 16 17 20q-36 -3 -68 -3q-41 0 -75 4.5t-85 13.5q-58 10 -95 14.5t-84 4.5q-101 0 -232 -27l-6 -1q-8 0 -8 4q0 5 9 7q133 25 236 25q55 0 99.5 -5.5t101.5 -15.5
q50 -9 78.5 -12.5t60.5 -3.5q44 0 87 8q12 5 23 5q10 0 20 -3q21 -6 21 -27q0 -4 -2 -14q-5 -18 -26 -80l-22 -64q-9 -23 -10 -44q39 26 68 69l38 56l16.5 25l21.5 31q7 12 10 14q4 5 8 13t9 12.5t13 4.5q19 -1 31 -6.5t15 -21.5q13 -54 12 -92l-6 -69q49 15 98.5 56
t76.5 83q5 7 9 7q9 0 3 -11zM122 52q0 8 -3 17q-40 -25 -69.5 -46.5t-54.5 -48.5q-15 -17 -23.5 -36.5t-8.5 -38.5q0 -24 14.5 -41.5t43.5 -23.5q3 -1 9 -1q17 0 32 16q32 32 42 79l17 108z" />
    <glyph glyph-name="z.init" horiz-adv-x="249" 
d="M-242.5 -153.5q-16.5 16.5 -16.5 42.5q0 5 2 17q14 56 61 92q49 39 112 69l65 34l28 15q17 10 17 26q-1 15 -10 15q-8 0 -17 -8l-16 -12q-19 -14 -35 -14q-9 0 -16 3l-18 5q-21 5 -21 12q0 5 11 22q21 32 60 84l13 18q28 36 38 72l2 12q0 8 -8 8q-5 0 -14 -3
q-49 -17 -79 -56q-4 -5 -7.5 -10.5t-7.5 -10.5q-7 -8 -23 -11q-39 -5 -85 -5q-41 0 -75 4.5t-85 13.5q-51 10 -90.5 15t-87.5 5q-103 0 -232 -28l-6 -1q-8 0 -8 4q0 6 9 7q133 25 235 25q55 0 98.5 -5.5t102.5 -15.5q50 -9 78.5 -12.5t60.5 -3.5q42 0 91 9q3 0 9 7
q14 23 36.5 45t46.5 35q13 7 26 7q36 0 57.5 -19t21.5 -51q0 -18 -7 -38q-15 -48 -51 -93q19 -5 29.5 -10.5t16.5 -20.5q69 31 101.5 57t58.5 67q5 7 9 7q9 0 3 -11q-19 -40 -63.5 -74.5t-101.5 -57.5q4 -6 5 -13.5t2 -12.5q3 -15 3 -31q0 -51 -32 -105t-85 -91
q-67 -47 -143 -47h-25q-27 0 -43.5 16.5zM-127.5 -129.5q17.5 15.5 43.5 44.5q45 51 74 127q2 4 10 22t9 36l-114 -58q-28 -15 -72 -47q-23 -17 -36.5 -41t-13.5 -48q0 -35 29 -55q6 -5 15 -5q8 0 13 2q25 7 42.5 22.5z" />
    <glyph glyph-name="b.ss01" horiz-adv-x="340" 
d="M333 270q1 -3 -2 -8q-43 -64 -138 -82q-9 -54 -55 -112q-28 -36 -64 -51.5t-84 -16.5q-15 0 -22 16q-4 9 -4 21q0 8 5 35l2 12q0 4 -4 5t-12 1q-17 0 -22 4.5t-8 21.5q-1 6 -1 20q0 38 18 114q2 12 6 29t5 27q20 76 29 107q-52 21 -67 75q-49 -39 -97 -39
q-42 0 -68.5 28.5t-26.5 74.5q0 30 14 67q13 33 31.5 60.5t21.5 27.5q8 0 5.5 -6.5t-12.5 -22.5l-18 -30t-16 -34q-12 -33 -12 -61q0 -43 24 -70t62 -27q45 0 91 39q-3 15 -3 31q0 40 17 87q11 32 32 58t43 26q11 0 17.5 -8t6.5 -22q0 -30 -27 -77q-35 -61 -78 -97
q13 -51 63 -70q38 126 91.5 202.5t130.5 76.5q63 0 63 -72q0 -33 -14 -80q-18 -62 -70 -101.5t-113 -46.5l-22 -89q36 16 57 16q13 0 22.5 -5t18 -12t11.5 -10q18 -14 28 -40q4 -21 6 -42t1 -27q40 8 71 23.5t53 49.5q5 7 9 7t5 -3zM-82 525q0 -8 2 -24q40 37 73 93
q24 40 24 72q0 10 -3.5 16.5t-8.5 7.5q-34 5 -68 -79q-19 -48 -19 -86zM151 654.5q-22 -35.5 -37.5 -89t-37.5 -149.5q54 10 98.5 44.5t60.5 86.5q14 44 14 81q0 62 -45 62q-31 0 -53 -35.5zM99 212q4 44 4 67q0 14 -2 22q-1 1 -2.5 5t-5.5 4q-11 0 -31 -18.5t-23 -31.5
l-5 -25q-5 -20 -10 -50l-1 -13q0 -6 3 -14q44 21 71 22zM77 104.5q13 27.5 19 64.5q-19 -2 -32.5 -6.5t-26.5 -13.5q-7 -5 -10.5 -10.5t-7.5 -17.5q-8 -21 -21 -28q-2 -1 -3.5 -5t-1.5 -5q-2 -18 -2 -27q0 -14 4 -23q9 -17 19 -17t25 22q25 39 38 66.5z" />
    <glyph glyph-name="d.ss01" 
d="M195 273q-15 -57 -28.5 -122t-13.5 -100q0 -27 10 -27q13 1 21 6.5t17 15l15 15.5q42 40 72.5 81.5t61.5 92.5l19 31q5 7 9 7q9 0 3 -11q-22 -49 -83 -126t-110 -119q-18 -21 -45 -21q-28 0 -43 20q-13 18 -17.5 39.5t-5.5 54.5v4q0 5 1 9q-10 0 -17.5 -7t-9.5 -9
q-18 -17 -38 -14q-20 2 -30 2l-30 2q-22 3 -33 17.5t-11 35.5l1 10q9 42 39 82t82 59q11 5 27 5q6 0 18 -2q4 -1 15.5 -2t17.5 -9q20 78 32 117q-51 21 -66 74q-49 -39 -97 -39q-42 0 -68.5 28.5t-26.5 75.5q0 30 14 67q12 33 30 60.5t22 27.5q8 0 5.5 -6.5t-12.5 -22.5
l-18 -30t-16 -34q-12 -31 -12 -60q0 -43 24 -70.5t62 -27.5q45 0 91 39q-3 15 -3 31q0 40 17 87q11 32 32 58t43 26q11 0 17.5 -8t6.5 -22q0 -32 -27 -77q-37 -64 -78 -97q13 -51 63 -70q39 128 92.5 203.5t129.5 75.5q63 0 63 -71q0 -32 -14 -81q-19 -64 -72.5 -103.5
t-115.5 -45.5zM77 522q0 -8 2 -24q38 34 73 93q24 40 24 72q0 10 -3.5 16.5t-8.5 7.5q-34 5 -68 -79q-19 -48 -19 -86zM293.5 618.5q-28.5 -68.5 -63.5 -205.5q56 8 102.5 42.5t62.5 88.5q14 49 14 80q0 29 -11 46t-35 17q-41 0 -69.5 -68.5zM104 275q0 17 -22 17
q-12 1 -18 -3.5t-12 -18.5q-26 -55 -36 -105q-4 -18 -4 -28q0 -9 3 -17q34 14 51 33t24 50l13 64q1 3 1 8z" />
    <glyph glyph-name="f.ss01" horiz-adv-x="287" 
d="M280 270q1 -3 -2 -8q-41 -63 -77.5 -103.5t-80.5 -49.5q-39 -109 -83 -169q-14 -19 -33 -29.5t-38 -10.5q-23 0 -40 15q-22 21 -29 63q-2 18 -2 35q0 87 34 213q22 92 45 166q-53 23 -67 76q-49 -40 -97 -40q-41 0 -68 29t-27 75q0 30 14 67q12 33 30 60.5t22 27.5
q8 0 5.5 -6.5t-12.5 -22.5q-24 -40 -33 -64q-12 -33 -12 -61q0 -43 24 -70t62 -27q45 0 91 39q-3 15 -3 31q0 40 17 87q11 32 32 58t43 26q24 0 24 -29t-28 -78q-36 -61 -77 -97q13 -51 64 -70q42 132 95 205.5t127 73.5q61 0 61 -71q0 -35 -13 -81q-19 -63 -70.5 -102
t-113.5 -46q-21 -89 -37 -149q25 13 45 13q32 0 48 -27q10 -17 10 -44q0 -14 -6 -52q41 11 69.5 42.5t48 62l24.5 38.5q5 7 9 7t5 -3zM-90 505q0 -8 2 -24q40 37 73 93q24 42 24 71q0 11 -3.5 17.5t-8.5 7.5q-34 5 -68 -79q-19 -48 -19 -86zM145.5 637q-21.5 -33 -38 -87.5
t-40.5 -153.5q54 10 99 44t61 87q14 44 14 81q0 62 -45 62q-29 0 -50.5 -33zM110 171q0 37 -25 59q-6 6 -13 6t-14 -7q-27 -25 -22 -45q5 -25 7 -34q7 -24 38 -29h5q16 0 20 18q4 15 4 32zM97 100q0 6 -3 8t-11 4q-25 3 -42 11.5t-26 28.5l-10 -37l-13 -52q-9 -40 -8 -65
q0 -27 2 -42t11 -28q6 2 15 11q28 32 47 68t37 86q1 3 1 7z" />
    <glyph glyph-name="g.ss01" horiz-adv-x="351" 
d="M205.5 -12q13.5 -25 13.5 -59q0 -22 -6 -47q-9 -33 -24 -62t-18 -29q-7 0 -7 5t10 25q19 34 27 64q6 22 6 43q0 28 -11.5 51t-30.5 36q-18 -77 -29 -105.5t-13 -35.5q-19 -58 -68.5 -112.5t-159.5 -54.5q-84 0 -84 92q0 31 9 63q13 51 46.5 77t71.5 26q26 0 47 -12
q39 52 85 72q25 133 25 144q-11 -11 -16 -15q-9 -10 -17 -17q-20 -20 -46 -20h-21q-34 0 -49 5q-33 12 -33 40q0 10 5 27q16 39 37 65q20 25 52 38t65 13q17 0 30 -3q14 -4 28 -31q5 1 9 5l6 6q15 14 30 14t25 -16q4 -7 4 -29q0 -26 -4 -62.5t-8 -51.5q-11 -57 -24 -111
q24 -13 37.5 -38zM43 143q31 23 46 39.5t20 42.5q1 4 5 12q3 9 3 18q0 18 -11 29.5t-29 11.5q-9 0 -15 -5t-11 -16q-4 -8 -5 -12q-1 -17 -8 -39l-6 -24q-1 -6 -5.5 -23.5t-4.5 -34.5q0 -8 1 -13q18 13 20 14zM69 18q-42 -19 -79 -68q31 -21 31 -61q0 -11 -3 -23
q-9 -35 -28 -63t-43 -28q-12 0 -18.5 9t-6.5 26q0 28 19 69q20 41 37 65q-17 10 -40 10q-32 0 -59.5 -22t-38.5 -64q-6 -26 -6 -53q0 -40 15.5 -68t52.5 -28q20 0 47 12.5t50 35t34 51.5q7 18 15 64.5t14 97.5q0 3 7 38zM-52 -124q-16 -38 -16 -63q0 -14 5 -22.5t11 -8.5
q22 0 37 27.5t23 56.5q3 12 3 22q0 33 -27 53q-19 -26 -36 -65z" />
    <glyph glyph-name="h.ss01" horiz-adv-x="369" 
d="M356 242q-24 -51 -84.5 -128t-109.5 -117q-26 -22 -51 -22q-24 0 -40 19t-16 49q0 16 3 34q12 66 46 152q10 24 12 36v2q0 4 -3.5 5t-8.5 -2q-16 -9 -29 -27q-70 -87 -80 -163q-4 -20 -15 -31q-14 -14 -28 -14q-9 0 -14 4q-15 10 -15 32q-1 13 -1 38q0 43 4 78
q30 146 48 213q-30 8 -51 28.5t-30 51.5q-49 -39 -97 -39q-42 0 -68.5 28.5t-26.5 74.5q0 30 14 67q12 33 30 60.5t22 27.5q8 0 6 -6t-13 -24q-21 -31 -33 -63q-12 -33 -12 -61q0 -43 24 -70t62 -27q45 0 91 39q-3 15 -3 31q0 40 17 87q11 32 32 58t43 26q11 0 17.5 -8
t6.5 -22q0 -30 -27 -77q-35 -61 -78 -97q14 -58 77 -74q37 141 86 212t122 71q63 0 63 -72q0 -33 -14 -80q-19 -63 -71.5 -102.5t-114.5 -46.5l-17 -74l-18 -74q-10 -39 -10 -61l1 -26q11 10 19 28q30 47 58 78q21 23 47 23l9 -1q32 -3 32 -36q0 -32 -3 -49q-9 -46 -16 -77
q-4 -15 -13 -58q-7 -24 -7 -50q1 -11 10 -11q8 0 20.5 9.5t30.5 26.5q42 40 72.5 81.5t61.5 92.5l19 31q5 7 9 7q7 0 3 -11zM-104 517q0 -8 2 -24q40 37 73 93q24 42 24 71q0 11 -3.5 17.5t-8.5 7.5q-34 5 -68 -79q-19 -48 -19 -86zM113.5 605.5q-31.5 -76.5 -61.5 -197.5
q54 9 99.5 43.5t61.5 87.5q14 44 14 81q0 62 -45 62q-37 0 -68.5 -76.5z" />
    <glyph glyph-name="j.ss01" horiz-adv-x="180" 
d="M-11 345.5q-4 4.5 -3 11.5q1 6 8 10.5t14 4.5q6 0 9.5 -4.5t2.5 -11.5q-1 -5 -7.5 -10t-13.5 -5q-6 0 -10 4.5zM37 -19.5q15 -25.5 15 -60.5q0 -18 -7 -48q-9 -33 -24 -62t-18 -29q-7 0 -7 5t10 25q19 34 27 64q6 22 6 43q0 30 -12 53t-33 36q-23 -101 -39 -143
q-19 -58 -68.5 -112.5t-159.5 -54.5q-84 0 -84 92q0 31 9 63q13 52 46.5 78t71.5 26q28 0 48 -13q38 51 84 72q10 56 27 133q6 36 10 54l5 27q1 14 13 40q5 9 10.5 12.5t13.5 3.5q39 0 44 -31q4 -17 4 -52l-1 -36q-21 -103 -31 -148q25 -12 40 -37.5zM-120 -114q8 51 21 122
q-42 -20 -78 -68q30 -22 30 -61q0 -20 -10 -47.5t-27 -47t-37 -19.5q-11 0 -18 9t-7 25q0 29 20 70q18 37 37 65q-17 10 -40 10q-32 0 -59.5 -22t-38.5 -64q-7 -23 -7 -54q0 -40 15.5 -67.5t52.5 -27.5q20 0 47 12.5t50 35t34 51.5q3 9 15 78zM-219 -134q-16 -35 -16 -63
q0 -14 4.5 -22.5t10.5 -8.5q22 0 37 27.5t23 56.5q3 12 3 22q0 33 -26 52q-20 -28 -36 -64z" />
    <glyph glyph-name="k.ss01" horiz-adv-x="334" 
d="M326 262q-21 -48 -82.5 -124t-110.5 -121q-31 -28 -55 -28q-15 0 -23.5 13t-8.5 39q0 19 2 30q4 36 14 108q3 17 -17 17q-8 0 -17 -3t-13 -7q-7 -7 -7.5 -16.5t-0.5 -12.5q-5 -24 -10 -62l-5 -31q-3 -20 -8.5 -25t-25.5 -7l-22 -2q-10 0 -12 5t-5 24q-2 13 -2 40
q0 37 7 88q25 107 60 210q-31 9 -52 29.5t-29 50.5q-48 -38 -97 -38q-41 0 -68 28.5t-27 74.5q0 30 14 67q12 33 30 60.5t22 27.5q8 0 5.5 -6.5t-12.5 -22.5l-18 -30t-16 -34q-12 -31 -12 -60q0 -43 24 -70.5t62 -27.5q45 0 91 39q-3 15 -3 31q0 40 17 87q11 32 32 58t43 26
q12 0 18.5 -8t6.5 -22q0 -28 -28 -77q-36 -61 -77 -97q7 -30 27.5 -48.5t50.5 -26.5q43 123 96 203.5t113 80.5t60 -71q0 -37 -13 -81q-19 -63 -71 -102t-114 -46q-16 -65 -26 -111l-16 -66q56 19 84 39.5t51 46.5q12 15 18 16q10 -4 10 -12q0 -18 -42 -48.5t-76 -41.5
q32 0 43.5 -15.5t11.5 -40.5q0 -14 -2 -32l-13 -100q-3 -12 2 -12q9 0 31 21l26 25q42 40 72.5 81.5t61.5 92.5l19 31q5 7 9 7q9 0 3 -11zM-94 515q0 -8 2 -24q39 36 72 93q24 40 24 72q0 10 -3.5 16.5t-8.5 7.5q-21 3 -39 -24t-28 -55q-19 -48 -19 -86zM124.5 603.5
q-31.5 -76.5 -61.5 -197.5q54 10 99 44t61 87q14 49 14 80q0 29 -11 46t-35 17q-35 0 -66.5 -76.5z" />
    <glyph glyph-name="l.ss01" horiz-adv-x="251" 
d="M5 93q-4 -20 -4 -43q0 -30 12 -31q16 1 30 11.5t35 30.5q42 40 72.5 81.5t61.5 92.5l19 31q5 7 9 7q9 0 3 -11q-22 -49 -83 -126t-110 -119q-27 -22 -58 -22q-30 0 -53.5 20.5t-28.5 47.5q-3 18 -3 37q0 30 9 79q8 37 28 98.5t45 126.5q-53 21 -69 76q-49 -39 -97 -39
q-42 0 -68.5 28.5t-26.5 74.5q0 30 14 67q12 33 30 60.5t22 27.5q8 0 6 -6t-13 -24q-21 -31 -33 -63q-12 -33 -12 -61q0 -43 24 -70t62 -27q45 0 91 39q-3 15 -3 31q0 40 17 87q11 32 32 58t43 26q11 0 17.5 -8t6.5 -22q0 -30 -27 -77q-35 -61 -78 -97q13 -51 66 -71
q49 121 106 200.5t115 79.5q61 0 61 -71q0 -34 -14 -81q-19 -64 -72 -103.5t-116 -45.5l-28 -117l-20 -80q-11 -41 -20 -103zM-77 517q0 -8 2 -24q40 37 73 93q24 42 24 71q0 11 -3.5 17.5t-8.5 7.5q-34 5 -68 -79q-19 -48 -19 -86zM77 408q55 9 101 43t62 88q14 44 14 81
q0 62 -45 62q-58 0 -132 -274z" />
    <glyph glyph-name="p.ss01" horiz-adv-x="363" 
d="M356 270q1 -3 -2 -8q-30 -45 -70 -80t-78 -42q-20 -60 -73 -111q-17 -15 -35 -21t-41 -8q-28 0 -51 5l-2 -15q27 -12 43.5 -38t16.5 -62q0 -24 -7 -48q-9 -33 -24 -62t-18 -29q-7 0 -7 5t10 25q19 34 27 64q6 22 6 43q0 32 -13 55.5t-35 35.5q-10 -74 -36 -145
q-19 -58 -68.5 -112.5t-159.5 -54.5q-46 0 -65 26t-19 65q0 32 9 64q13 51 46.5 77t72.5 26q26 0 47 -12q35 47 77 69l3 16q7 56 21 148t23 119q1 2 1 5q1 4 3 9.5t4.5 9.5t8.5 5q6 2 9 2q14 0 20 -11q4 -5 12 -26l35 36q23 22 38.5 32t33.5 10q20 0 47 -13q50 -22 52 -89
q1 -11 -1.5 -35.5t-5.5 -45.5q30 6 67.5 39t63.5 73q5 7 9 7t5 -3zM142 259q2 14 2 25q0 10 -1 15q-3 13 -7.5 18.5t-12.5 5.5q-10 0 -26 -9q-44 -23 -80 -80q-4 -7 -4 -17q1 -15 1 -45q0 -41 -3 -89q43 34 87 51q10 3 15 17q2 5 12 33.5t14 54.5q1 6 3 20zM98 117
q-15 -4 -24.5 -8.5t-22.5 -14.5q-28 -21 -28 -45q0 -13 7 -24q3 -6 8 -6q4 0 8 6q30 37 52 92zM-105 -109l11 84q-39 -22 -71 -65q30 -22 30 -59q0 -12 -3 -25q-8 -34 -27.5 -62.5t-43.5 -28.5q-11 0 -18 9t-7 25q0 29 20 70q18 37 37 65q-17 10 -40 10q-32 0 -59.5 -22
t-38.5 -64q-7 -23 -7 -54q0 -40 15.5 -67.5t52.5 -27.5q20 0 47 12.5t50.5 35t34.5 51.5q6 18 17 113zM-207 -164q-16 -35 -16 -63q0 -14 4.5 -22.5t10.5 -8.5q22 0 37 27.5t23 56.5q3 12 3 22q0 33 -26 52q-20 -28 -36 -64z" />
    <glyph glyph-name="q.ss01" 
d="M475 -99q41 0 67.5 -29t26.5 -76q0 -31 -13 -66q-12 -33 -30 -60.5t-22 -27.5q-8 0 -5.5 6.5t12.5 22.5q24 40 33 64q12 33 12 61q0 43 -24 70t-61 27q-42 0 -87 -36q1 -7 1 -21q0 -44 -20 -100q-11 -32 -32 -58t-43 -26q-24 0 -24 29t28 78q37 64 82 101q-6 37 -31 56.5
t-60 19.5q-44 0 -87 -27.5t-67 -75.5q-3 -8 -13 -41q-22 -65 -33 -102q-13 -2 -28.5 5.5t-26 21.5t-10.5 31q0 46 19 121t54 192q4 9 7.5 22.5l5.5 21.5l-17 -14q-16 -12 -30 -26q-26 -28 -58 -25q-26 1 -58 8q-44 9 -44 54l1 12q13 97 85 163q14 13 36 19.5t26 7.5
q32 10 57 10q31 0 52 -18q4 -4 9.5 -15t10.5 -16l42 50q6 8 11.5 12t12.5 2q7 -1 9 -6t2 -14q-2 -52 -21 -138q-5 -21 -19 -69q-14 -44 -15 -49q-18 -67 -49 -164q27 29 61.5 44.5t68.5 15.5q39 0 67 -21.5t36 -62.5q48 36 93 36zM58 94q19 15 50 43q11 8 19 25q19 46 30 64
q5 12 5 19q0 6 -3 12q-9 18 -19 28q-12 14 -28 14q-13 0 -25 -9t-21 -26q-2 -2 -2 -3q-37 -78 -53 -141q-3 -12 -3 -23q0 -16 7 -30q24 12 43 27zM378 -166q0 12 -1 18q-42 -37 -77 -97q-24 -42 -24 -71q0 -11 3.5 -17.5t8.5 -7.5q34 -5 68 79q22 56 22 96z" />
    <glyph glyph-name="s.ss01" horiz-adv-x="299" 
d="M291 262q-26 -46 -89.5 -89.5t-129.5 -71.5q8 -18 10 -47q32 -8 52 -36t20 -68q0 -24 -7 -48q-9 -33 -24 -62t-18 -29q-7 0 -7 5t10 25q19 34 27 64q6 22 6 43q0 34 -16 59.5t-42 35.5q0 -38 -9 -82t-17 -67q-19 -58 -68.5 -112.5t-159.5 -54.5q-84 0 -84 92q0 31 9 63
q13 51 46 77.5t71 26.5q25 0 48 -13q31 41 69 64q-4 39 -12 57q-1 5 -4.5 26.5t-11.5 38.5q-18 43 -16 105q3 80 96 120l4 1q5 2 18 2q26 0 51.5 -15.5t28.5 -35.5q2 -19 -13 -52q-17 -38 -32 -63t-38 -46q-3 -3 -3 -11q0 -10 3.5 -24t6.5 -21q60 22 121 61.5t92 85.5
q5 7 9 7q9 0 3 -11zM38 244q0 -19 5 -42q9 5 16 15q31 47 46 90q4 10 6 28v4q0 8 -5 16t-10 8q-9 0 -17.5 -7.5t-11.5 -9.5q-11 -11 -16 -26q-13 -42 -13 -76zM-16.5 -82.5q8.5 61.5 5.5 112.5q-35 -19 -64 -60q30 -22 30 -61q0 -11 -3 -23q-9 -35 -28 -63t-43 -28
q-12 0 -18.5 9t-6.5 26q0 28 19 69q20 42 38 65q-17 10 -40 10q-32 0 -59.5 -22t-38.5 -64q-7 -23 -7 -54q0 -40 15.5 -67.5t52.5 -27.5q20 0 47 12.5t50 35t34 51.5q8 18 16.5 79.5zM-117 -104q-16 -35 -16 -63q0 -14 4.5 -22.5t10.5 -8.5q22 0 37 27.5t23 56.5q3 12 3 22
q0 33 -27 53q-21 -33 -35 -65z" />
    <glyph glyph-name="y.ss01" horiz-adv-x="409" 
d="M268 1q15 -26 15 -61q0 -22 -6 -47q-9 -33 -24 -62t-18 -29q-7 0 -7 5t10 25q19 34 27 64q6 22 6 43q0 30 -12 53t-33 36q-21 -88 -39 -143q-19 -58 -68.5 -112.5t-159.5 -54.5q-84 0 -84 92q0 31 9 63q13 51 46.5 77t71.5 26q26 0 47 -12q36 49 82 71q6 34 10 52l4 22
q4 19 8 63q3 47 10 78l3.5 10.5t0.5 15.5q-31 -38 -48 -69q-22 -41 -63 -94q-18 -23 -34.5 -33.5t-35.5 -10.5q-14 0 -32 6q-25 8 -36.5 21t-11.5 35q0 15 6 36q21 67 56 118q26 38 59 38q10 0 20 -3q21 -6 21 -27q0 -4 -2 -14q-5 -18 -26 -80l-22 -64q-9 -23 -10 -44
q39 26 68 69l38 56l16.5 25l21.5 31q7 12 10 14q4 5 8 13t9 12.5t13 4.5q19 -1 31 -6.5t15 -21.5q13 -54 12 -92l-6 -69q-4 -34 -16 -88q25 -12 40 -38zM114 -78q8 61 16 106q-40 -19 -76 -67q31 -21 31 -61q0 -11 -3 -23q-9 -35 -28 -63t-43 -28q-12 0 -18.5 9t-6.5 26
q0 28 19 69q20 41 37 65q-17 10 -40 10q-32 0 -59.5 -22t-38.5 -64q-6 -26 -6 -53q0 -40 15.5 -68t52.5 -28q20 0 47 12.5t50 35t34 51.5q5 12 17 93zM12 -113q-16 -35 -16 -64q0 -14 4.5 -22t10.5 -8q22 0 37.5 28t23.5 56q3 12 3 22q0 33 -27 53q-21 -30 -36 -65z" />
    <glyph glyph-name="z.ss01" horiz-adv-x="239" 
d="M119 -27q16 -23 16 -52q0 -16 -4 -29q-9 -33 -24 -62t-18 -29q-7 0 -7 5q0 7 10 25q20 39 26 64q3 13 3 25q0 25 -12.5 45t-34.5 32q-12 -50 -34 -113q-16 -56 -67 -111.5t-161 -55.5q-46 0 -65 26t-19 65q0 32 9 64q13 51 46.5 77.5t71.5 26.5q31 0 53 -16q48 49 104 56
q14 70 14 126q-1 15 -10 15q-8 0 -17 -8l-16 -12q-19 -14 -35 -14q-9 0 -16 3l-18 5q-21 5 -21 12q0 5 11 22q21 32 60 84l13 18q28 36 38 72l2 12q0 8 -8 8q-5 0 -14 -3q-49 -17 -79 -56q-3 -3 -11 -13.5t-18 -19.5l-1 4q0 7 5.5 14.5t7.5 11.5q24 42 77 70q13 7 26 7
q36 0 57.5 -19t21.5 -51q0 -18 -7 -38q-15 -48 -51 -93q26 -7 46 -31q16 -19 16 -61q0 -28 -9 -73q27 -12 43 -35zM-26.5 -115.5q20.5 50.5 36.5 124.5q-54 -7 -97 -53q25 -22 25 -56q0 -21 -10 -48.5t-27 -47t-37 -19.5q-12 0 -18.5 9t-6.5 26q0 29 20 69q17 33 41 62
q-17 13 -44 13q-32 0 -59.5 -22t-38.5 -64q-6 -26 -6 -53q0 -40 15.5 -68t52.5 -28q20 0 46.5 12.5t50 35t34.5 51.5q2 6 22.5 56.5zM-72 -102q0 30 -23 50q-22 -27 -39 -62q-17 -34 -17 -63q0 -14 5 -22.5t11 -8.5q22 0 38 28.5t22 55.5q3 12 3 22z" />
    <glyph glyph-name="b.ss02" horiz-adv-x="315" 
d="M-67 45q-11 31 -9 75l2 27q4 73 11 111q18 85 49 154q23 53 71 101q35 32 79 32q33 0 52 -16q25 -20 25 -48q0 -18 -12 -42q-14 -28 -29 -48q-28 -38 -51.5 -65t-51.5 -49q-21 -17 -29 -47q-18 -76 -22 -141q-1 -7 -1 -21q0 -29 16 -43q27 20 44 43.5t42 65.5q3 4 2 7
t-6 3q-16 2 -27 4q-24 4 -33.5 14t-9.5 32q0 36 20 63q21 30 51 31l14 1q32 0 42 -22q5 -10 5 -26t-4 -29q-10 -34 -17 -49q32 6 73 36t65 67q5 7 9 7t5 -3t-2 -8q-26 -39 -74.5 -74t-81.5 -41q-48 -80 -75 -109q-17 -18 -38.5 -28t-41.5 -10q-19 0 -34 9q-23 14 -28 36z
M104 330q20 23 45 59q28 37 40 73q3 11 3 21q0 15 -7 26.5t-19 17.5q-8 3 -15 3q-16 0 -30 -11.5t-18 -29.5q-16 -64 -27 -119q-4 -18 -5 -27q-1 -7 -4.5 -23.5t-8.5 -30.5q26 18 46 41zM138 173q3 10 11 30q5 14 5 30q0 19 -8 34q-6 12 -18 12q-9 0 -23 -9q-13 -11 -18 -22
q-13 -23 -13 -48q0 -13 2 -20q7 -25 37 -25q20 2 25 18z" />
    <glyph glyph-name="d.ss02" 
d="M82.5 55.5q-4.5 21.5 -5.5 54.5v4q0 5 1 9q-10 0 -17.5 -7t-9.5 -9q-18 -17 -38 -14q-20 2 -30 2l-30 2q-22 3 -33 17.5t-11 35.5l1 10q9 42 39 82t82 59q11 5 27 5q6 0 18 -2q19 -4 31 -7q13 46 28 94q13 45 14 48t1 8q0 9 -11 10q-36 6 -69 21t-69 38l-14 9t-11 7
q-24 17 -51 30q-19 8 -37 8q-39 0 -89 -35q-58 -43 -60 -106q0 -23 6.5 -38.5t24.5 -24.5q7 -4 16 -4q11 0 22 7q31 19 48 48t16 63q0 2 -1.5 7t-1.5 9q0 3 2 9q6 -1 7 -6t2 -7q5 -17 5 -31q0 -19 -9 -50q-8 -26 -33 -43.5t-50 -17.5q-9 0 -13 1q-31 7 -48.5 29t-17.5 51
q0 25 13 51.5t38 49.5q57 52 118 52q20 0 39 -8q21 -9 43.5 -22t43.5 -27l23 -15q58 -36 108 -41q5 -1 12 -1q6 0 8 3t6 16q27 71 78 116q34 31 66 31q15 0 33 -8q28 -14 42 -23q15 -10 15 -25q0 -11 -8 -26q-29 -60 -94 -85q-28 -10 -42 -14q-14 -3 -18 -17
q-12 -42 -43 -165q-15 -57 -28.5 -122t-13.5 -100q0 -27 10 -27q13 1 21 6.5t17 15l15 15.5q42 40 72.5 81.5t61.5 92.5l19 31q5 7 9 7q9 0 3 -11q-22 -49 -83 -126t-110 -119q-18 -21 -45 -21q-28 0 -43 20q-13 18 -17.5 39.5zM302 499q52 35 61 81q1 3 1 9q0 11 -6 17
t-17 6q-8 0 -20 -5q-13 -7 -30 -26q-15 -18 -22.5 -37t-13.5 -38.5t-9 -28.5q36 9 56 22zM66 153q17 19 24 50l13 64q1 3 1 8q0 17 -22 17q-12 1 -18 -3.5t-12 -18.5q-26 -55 -36 -105q-4 -18 -4 -28q0 -9 3 -17q34 14 51 33z" />
    <glyph glyph-name="f.ss02" horiz-adv-x="300" 
d="M-90 -22q-6 35 -6 70q0 13 2 41q11 141 81 319q16 39 34 63q10 15 28.5 25.5t35.5 10.5q13 0 20.5 -6.5t6.5 -19.5q-31 -88 -51 -170l-21 -83q19 22 43 22q15 0 28.5 -9t21.5 -22q10 -17 10 -44q0 -14 -6 -52q41 11 69.5 42.5t48 62l24.5 38.5q5 7 9 7t5 -3t-2 -8
q-41 -63 -77.5 -103.5t-80.5 -49.5q-39 -109 -83 -169q-14 -19 -33 -29.5t-38 -10.5q-23 0 -40 15q-22 21 -29 63zM99 121q16 0 20 18q4 15 4 32q0 37 -25 59q-6 6 -13 6t-14 -7q-27 -25 -22 -45q5 -25 7 -34q7 -24 38 -29h5zM25 -61q28 32 47 68t37 86q1 3 1 7q0 6 -3 8
t-11 4q-25 3 -42 11.5t-26 28.5l-10 -37l-13 -52q-9 -40 -8 -65q0 -27 2 -42t11 -28q6 2 15 11z" />
    <glyph glyph-name="p.ss02" horiz-adv-x="343" 
d="M-108 -150q-12 0 -12 14q-1 8 -1 23q0 16 2 24q5 29 13 87q14 104 29 176q2 11 4.5 20.5l4.5 16.5q1 6 7 32t7 49q1 11 11 33q6 13 17 13q8 0 16.5 -3.5t10.5 -11.5q4 -72 4 -107q11 19 29 47q14 22 23 33q25 31 56 31q10 0 15 -1q52 -11 61 -63q5 -27 5 -63
q0 -29 -3 -46q30 6 67.5 39t63.5 73q5 7 9 7t5 -3t-2 -8q-30 -45 -70 -80t-78 -42q-20 -60 -73 -111q-17 -15 -35 -21t-41 -8q-16 0 -26.5 2.5t-22.5 12.5q-8 -56 -20 -101q-1 -6 -8 -31q-6 -22 -29 -25q-16 -3 -31 -7q-3 -1 -8 -1zM78 134q10 3 15 17l11.5 32t12.5 48
q5 38 5 47q0 7 -2 19q-2 7 -3.5 9.5t-5.5 2.5q-5 0 -12 -4q-18 -9 -39 -35q-24 -30 -41.5 -70.5t-27.5 -116.5q43 34 87 51zM18 19q4 0 8 6q30 37 52 92q-15 -4 -24.5 -8.5t-22.5 -14.5q-28 -21 -28 -45q0 -13 7 -24q3 -6 8 -6z" />
    <glyph glyph-name="s.ss02" horiz-adv-x="299" 
d="M-116 -149q-41 5 -41 40q0 8 1 13q11 68 64 117q7 6 23 21t32 25q16 11 13 27q-1 5 -4.5 26.5t-11.5 38.5q-18 43 -16 105q3 80 96 120l4 1q10 3 23 3q29 0 52 -16t23 -43t-19.5 -52t-40.5 -24q2 5 15 30t14 52v4q0 8 -5 16t-10 8q-9 0 -17.5 -7.5t-11.5 -9.5
q-11 -11 -16 -26q-8 -27 -8 -64q0 -67 23 -137q60 22 121 61.5t92 85.5q5 7 9 7q9 0 3 -11q-26 -46 -89.5 -89.5t-129.5 -71.5q2 -5 7 -30t7 -44q2 -29 -11 -78q-10 -35 -46 -59q-31 -21 -61 -30.5t-67 -9.5q-9 0 -17 1zM-40 -79q11 23 15 46t7 57q1 4 1 12q0 12 -5 22
q-33 -24 -55.5 -47t-35.5 -50q-17 -32 -17 -57q0 -15 6 -28q8 -13 17 -13t19 7q36 23 48 51z" />
    <glyph glyph-name="o_r" horiz-adv-x="577" 
d="M569 262q-33 -56 -91 -131.5t-102 -113.5q-24 -18 -50 -17q-34 2 -55 16.5t-27 44.5q-2 12 -2 19q0 5 2 17q19 76 72 159q8 14 13 21q-8 -1 -27 -5.5t-35 -4.5h-3q0 -1 -2 -5q-34 -53 -72 -90t-84 -46q-5 -12 -20 -34l-17 -29q-20 -39 -59 -70q-14 -13 -31 -13q-5 0 -8 1
l-58 17q-39 13 -39 65q-3 81 60 147q11 11 13 26q6 24 15.5 42.5t26.5 33.5q18 15 40 23t43 8q19 0 35 -8q44 -23 44 -69q0 -22 -9 -49q-12 -39 -32 -78q46 12 76 43t64 84l1 2q-46 4 -75.5 31.5t-29.5 65.5q0 29 17 56q23 35 46.5 57.5t56.5 32.5q39 11 60 11t33 -9
q11 -9 11 -23q0 -7 -3 -15q-11 -53 -33 -87q-11 -19 -27 -53l-12.5 -25t-12.5 -23q14 -1 26 2.5t34 14.5q12 6 17 10q17 11 35 11q17 0 29 -10q7 -6 7 -16q0 -7 -5 -19l-33 -75l-40 -92q-16 -39 -18 -86q0 -5 5 -8q16 1 30 11.5t35 30.5q34 32 59 66t54 80q24 39 40 59
q5 7 9 7q9 0 3 -11zM256 291q7 0 10.5 4.5t8.5 12.5q21 36 39.5 76t26.5 70q1 5 3.5 13.5t3.5 14.5q2 7 -2 10.5t-12 3.5q-15 0 -24 -9q-11 -9 -22 -27q-23 -42 -39 -82q-11 -25 -11 -53q0 -11 1 -17q2 -16 16 -17h1zM110 169q7 12 13 24t7 22q10 31 9 54q-3 34 -23 50
q-12 11 -37 11q-18 0 -37.5 -6.5t-34.5 -19.5q-14 -12 -21 -20t-9 -19q-2 -8 -2 -9q0 -6 12 -6q13 0 18 -3.5t5 -11.5l-2 -16q-2 -5 -4 -13.5t-5 -14.5q-5 -12 -5 -18q0 -12 13 -18q34 -19 73 -18q15 0 21 14zM83 121q0 5 -12 6q-16 0 -28 4t-34 14q-7 3 -13.5 7t-12.5 7
q-25 -41 -32 -93q-3 -38 14 -59q41 13 66 42q10 11 45 58q7 11 7 14z" />
    <glyph glyph-name="o_z" horiz-adv-x="521" 
d="M513 262q-15 -33 -42.5 -58.5t-73.5 -59.5l-19 -14q4 -6 5 -13.5t2 -12.5q3 -15 3 -31q0 -51 -32 -105t-85 -91q-67 -47 -143 -47h-25q-27 0 -43.5 16.5t-16.5 42.5q0 5 2 17q14 56 61 92q49 39 112 69l65 34l28 15q17 10 17 26q-1 15 -10 15q-8 0 -17 -8l-16 -12
q-19 -14 -35 -14q-8 0 -16 3l-18 5q-21 5 -21 12q0 5 11 22q21 32 60 84l13 18l2 2q-37 6 -68 5q-11 -23 -12 -41q0 -2 -1 -9t-3.5 -10t-7.5 -3q-6 0 -6 10l1 9q2 22 9 41l-29 -6q-14 -82 -75 -183q-27 -42 -68 -74q-16 -13 -35 -12q-5 1 -24.5 3.5t-34.5 8.5
q-26 10 -38.5 29.5t-12.5 46.5q0 12 1 18q16 98 82 155q24 22 43 27q13 3 21 2q7 -2 10 -4t3 -6q0 -3 -5 -13l-16 -29l-21 -40q-31 -64 -31 -119q0 -13 1 -20q0 -11 8 -29q3 -9 11 -9q7 0 14 4q39 23 60 49q68 83 89 170q3 12 3 18t-5 7t-25 1q-24 0 -40.5 3t-30.5 13
q-3 4 -6 6t-5 4q-8 9 -8 21q0 11 8.5 20t24.5 14q12 4 25 4q26 0 48 -19q21 -19 25 -42q0 -17 14 -14q7 2 23 4q14 29 37.5 53t43.5 34q13 7 26 7q36 0 57.5 -19t21.5 -51q0 -18 -7 -38q-15 -48 -51 -93q19 -5 29.5 -10.5t16.5 -20.5q58 40 81.5 62.5t48.5 61.5q5 7 9 7
q9 0 3 -11zM319 351q0 8 -8 8q-5 0 -14 -3q-18 -7 -41 -27t-38 -46q28 2 67 -4h3q21 31 29 60zM146 286q-4 38 -42 51q-6 3 -14 3q-15 0 -34 -13q-15 -12 -9 -25q2 -6 13 -17q7 -6 15.5 -8t18 -2.5t14.5 -1.5h25q13 0 13 13zM302 64q8 18 9 36l-114 -58q-28 -15 -72 -47
q-23 -17 -36.5 -41t-13.5 -48q0 -35 29 -55q6 -5 15 -5q8 0 13 2q25 7 42.5 22.5t43.5 44.5q45 51 74 127q2 4 10 22z" />
    <glyph glyph-name="t_h" horiz-adv-x="625" 
d="M612 242q-24 -51 -84.5 -128t-109.5 -117q-26 -22 -51 -22q-24 0 -40 19t-16 49q0 16 3 34q12 66 46 152q10 24 12 36v2q0 4 -3.5 5t-8.5 -2q-16 -9 -29 -27q-70 -87 -80 -163q-4 -20 -15 -31q-14 -14 -28 -14q-9 0 -14 4q-15 10 -15 32q-1 11 -1 32q0 18 2 52
q-31 -41 -64.5 -78t-60.5 -60q-27 -22 -58 -22q-30 0 -53.5 20.5t-28.5 47.5q-6 32 -6 53q0 40 16 100l16 50q13 43 32 97l-75 -6h-1q-4 0 -7.5 2.5t-3.5 5.5q0 5 9 7l84 7q14 38 22 56q9 20 25 52t23 43q8 13 19 21q17 13 30 13t22 -14q6 -9 6 -26q0 -25 -14 -78
q-3 -13 -17 -56l139 12q17 37 42 72q42 60 111 60q21 0 32 -10.5t11 -30.5q0 -5 -2 -15q-6 -31 -21 -59q26 2 40 3.5t20 2.5h4q4 0 5 -2t-2 -6t-6 -5.5t-7 -1.5l-41 -5q-5 0 -21 -2q-20 -32 -35 -51q-24 -31 -63 -64q-31 -29 -32 -58q-2 -18 -4 -27q-6 -28 -5 -45
q11 10 19 28q30 47 58 78q21 23 47 23l9 -1q32 -3 32 -36q0 -32 -3 -49q-9 -46 -16 -77q-4 -15 -13 -58q-7 -24 -7 -50q1 -11 10 -11q8 0 20.5 9.5t30.5 26.5q42 40 72.5 81.5t61.5 92.5l19 31q5 7 9 7q7 0 3 -11zM307 409l88 9q12 23 19 55q1 5 1 13q0 23 -18 34
q-7 4 -15 4q-18 0 -30 -18q-14 -17 -23 -35q-11 -28 -22 -62zM386 401l-83 -8q-16 -60 -23 -113q53 48 78 81q12 15 28 40zM182 180q5 52 20 115q6 27 22 79q2 8 4 12l-138 -12l-52 -158q-14 -42 -23.5 -88.5t-9.5 -75.5q0 -32 13 -33q16 1 30 11.5t35 30.5q52 50 99 119z
" />
    <glyph glyph-name="t_t" horiz-adv-x="400" 
d="M391 262q-15 -33 -59 -93.5t-85 -108.5q-25 -25 -53 -25q-13 0 -24 7t-17 20q-14 30 -14 60q0 17 5 39q2 11 3.5 21t3.5 20q-9 -4 -11.5 -10.5t-3.5 -7.5q-37 -67 -99 -146q-15 -19 -28.5 -28.5t-32.5 -9.5q-22 0 -34.5 8t-19.5 26q-13 33 -13 71q0 31 8 68q9 42 35 126
l6 21q1 6 13 43l-73 -6h-1q-4 0 -7.5 2.5t-3.5 5.5q0 5 9 7l81 7q28 86 35 102q9 19 16.5 29.5t22.5 15.5q5 2 15 2q12 0 20.5 -6t17.5 -17q6 -5 6 -15l-1 -10q-1 -21 -25 -92q55 4 133 11q18 49 33 80q15 26 33 26q7 0 19 -5q29 -13 29 -40q0 -4 -2 -14q-4 -18 -12 -39
l68 5h4q4 0 5 -2t-2 -6q-4 -5 -8 -6t-5 -1l-66 -6q-64 -203 -89 -270q-11 -26 -11 -47q0 -18 14 -13q42 40 72.5 81.5t61.5 92.5l19 31q5 7 9 7q9 0 3 -11zM205 369l5 14q-81 -7 -132 -11l-7 -22q-24 -72 -49 -162q-10 -31 -15.5 -66l-6.5 -41q-3 -27 -9 -57q16 11 26.5 22
t19 21l12.5 15q23 29 66 98l27 43q42 66 63 146z" />
    <glyph glyph-name="t_h.fina" horiz-adv-x="625" 
d="M1289 248q-2 -3 -7 -3.5t-9 0.5q-113 24 -216 24q-50 0 -93.5 -4.5t-99.5 -13.5q-56 -8 -92.5 -12t-76.5 -4q-46 0 -84 5q-24 -52 -84 -128t-109 -115q-26 -22 -51 -22q-24 0 -40 19t-16 49q0 16 3 34q12 66 46 152q10 24 12 36v2q0 4 -3.5 5t-8.5 -2q-16 -9 -29 -27
q-70 -87 -80 -163q-4 -20 -15 -31q-14 -14 -28 -14q-9 0 -14 4q-15 10 -15 32q-1 11 -1 32q0 18 2 52q-31 -41 -64.5 -78t-60.5 -60q-27 -22 -58 -22q-30 0 -53.5 20.5t-28.5 47.5q-6 32 -6 53q0 40 16 100l16 50q13 43 32 97l-75 -6h-1q-4 0 -7.5 2.5t-3.5 5.5q0 5 9 7
l84 7q14 38 22 56q9 20 25 52t23 43q8 13 19 21q17 13 30 13t22 -14q6 -9 6 -26q0 -25 -14 -78q-3 -13 -17 -56l139 12q17 37 42 72q42 60 111 60q21 0 32 -10.5t11 -30.5q0 -5 -2 -15q-6 -31 -21 -59q26 2 40 3.5t20 2.5h4q4 0 5 -2t-2 -6t-6 -5.5t-7 -1.5l-41 -5
q-5 0 -21 -2q-20 -32 -35 -51q-24 -31 -63 -64q-31 -29 -32 -58q-2 -18 -4 -27q-6 -28 -5 -45q11 10 19 28q30 47 58 78q21 23 47 23l9 -1q32 -3 32 -36q0 -32 -3 -49q-9 -46 -16 -77q-4 -15 -13 -58q-7 -24 -7 -50q1 -11 10 -11q8 0 20.5 9.5t30.5 26.5q42 40 72.5 81.5
t61.5 92.5l19 31q4 7 9 7h2q46 -10 91 -10q32 0 70 5t76 11q64 10 110.5 15.5t101.5 5.5q104 0 223 -25q8 -2 6 -7zM307 409l88 9q12 23 19 55q1 5 1 13q0 23 -18 34q-7 4 -15 4q-18 0 -30 -18q-14 -17 -23 -35q-11 -28 -22 -62zM386 401l-83 -8q-16 -60 -23 -113
q53 48 78 81q12 15 28 40zM182 180q5 52 20 115q6 27 22 79q2 8 4 12l-138 -12l-52 -158q-14 -42 -23.5 -88.5t-9.5 -75.5q0 -32 13 -33q16 1 30 11.5t35 30.5q52 50 99 119z" />
    <glyph glyph-name="t_t.fina" horiz-adv-x="400" 
d="M1067.5 272q1.5 -2 0.5 -4q-1 -3 -6.5 -3.5t-9.5 0.5q-113 24 -216 24q-49 0 -92 -4.5t-101 -13.5q-56 -8 -92.5 -12t-76.5 -4q-46 0 -84 5q-16 -33 -59 -93t-84 -107q-25 -25 -53 -25q-13 0 -24 7t-17 20q-14 30 -14 60q0 17 5 39q2 11 3.5 21t3.5 20q-9 -4 -11.5 -10.5
t-3.5 -7.5q-37 -67 -99 -146q-15 -19 -28.5 -28.5t-32.5 -9.5q-22 0 -34.5 8t-19.5 26q-13 33 -13 71q0 31 8 68q9 42 35 126l6 21q1 6 13 43l-73 -6h-1q-4 0 -7.5 2.5t-3.5 5.5q0 5 9 7l81 7q28 86 35 102q9 19 16.5 29.5t22.5 15.5q5 2 15 2q12 0 20.5 -6t17.5 -17
q6 -5 6 -15l-1 -10q-1 -21 -25 -92q55 4 133 11q18 49 33 80q15 26 33 26q7 0 19 -5q29 -13 29 -40q0 -4 -2 -14q-4 -18 -12 -39l68 5h4q4 0 5 -2t-2 -6q-4 -5 -8 -6t-5 -1l-66 -6q-64 -203 -89 -270q-11 -26 -11 -47q0 -18 14 -13q42 40 72.5 81.5t61.5 92.5l19 31q5 7 9 7
h2q46 -10 91 -10q32 0 71 5t77 11q63 10 109.5 15.5t101.5 5.5q102 0 223 -25q3 -1 4.5 -3zM205 369l5 14q-81 -7 -132 -11l-7 -22q-24 -72 -49 -162q-10 -31 -15.5 -66l-6.5 -41q-3 -27 -9 -57q16 11 26.5 22t19 21l12.5 15q23 29 66 98l27 43q42 66 63 146z" />
    <glyph glyph-name="t_h.init" horiz-adv-x="625" 
d="M612 242q-24 -51 -84.5 -128t-109.5 -117q-26 -22 -51 -22q-24 0 -40 19t-16 49q0 16 3 34q12 66 46 152q10 24 12 36v2q0 4 -3.5 5t-8.5 -2q-16 -9 -29 -27q-70 -87 -80 -163q-4 -20 -15 -31q-14 -14 -28 -14q-9 0 -14 4q-15 10 -15 32q-1 11 -1 32q0 18 2 52
q-31 -41 -64.5 -78t-60.5 -60q-27 -22 -58 -22q-30 0 -53.5 20.5t-28.5 47.5q-6 34 -6 54q0 30 10 77q-5 -3 -9 -3q-39 -5 -84 -5q-41 0 -75 4.5t-85 13.5q-51 10 -90.5 15t-87.5 5q-103 0 -232 -28l-6 -1q-8 0 -8 4v1q0 4 8 6q133 25 236 25q55 0 98.5 -5.5t102.5 -15.5
q50 -9 78.5 -12.5t60.5 -3.5q46 0 96 10l3 12l16 50q13 43 32 97l-75 -6h-1q-4 0 -7.5 2.5t-3.5 5.5q0 5 9 7l84 7q14 38 22 56q9 20 25 52t23 43q8 13 19 21q17 13 30 13t22 -14q6 -9 6 -26q0 -25 -14 -78q-3 -13 -17 -56l139 12q17 37 42 72q42 60 111 60q21 0 32 -10.5
t11 -30.5q0 -5 -2 -15q-6 -31 -21 -59q26 2 40 3.5t20 2.5h4q4 0 5 -2t-2 -6t-6 -5.5t-7 -1.5l-41 -5q-5 0 -21 -2q-20 -32 -35 -51q-24 -31 -63 -64q-31 -29 -32 -58q-2 -18 -4 -27q-6 -28 -5 -45q11 10 19 28q30 47 58 78q21 23 47 23l9 -1q32 -3 32 -36q0 -32 -3 -49
q-9 -46 -16 -77q-4 -15 -13 -58q-7 -24 -7 -50q1 -11 10 -11q8 0 20.5 9.5t30.5 26.5q42 40 72.5 81.5t61.5 92.5l19 31q5 7 9 7q7 0 3 -11zM307 409l88 9q12 23 19 55q1 5 1 13q0 23 -18 34q-7 4 -15 4q-18 0 -30 -18q-14 -17 -23 -35q-11 -28 -22 -62zM386 401l-83 -8
q-16 -60 -23 -113q53 48 78 81q12 15 28 40zM182 180q5 52 20 115q6 27 22 79q2 8 4 12l-138 -12l-52 -158q-14 -42 -23.5 -88.5t-9.5 -75.5q0 -32 13 -33q16 1 30 11.5t35 30.5q52 50 99 119z" />
    <glyph glyph-name="t_t.init" horiz-adv-x="400" 
d="M391 262q-15 -33 -59 -93.5t-85 -108.5q-25 -25 -53 -25q-13 0 -24 7t-17 20q-14 30 -14 60q0 17 5 39q2 11 3.5 21t3.5 20q-9 -4 -11.5 -10.5t-3.5 -7.5q-37 -67 -99 -146q-15 -19 -28.5 -28.5t-32.5 -9.5q-22 0 -34.5 8t-19.5 26q-13 33 -13 71q0 31 8 68q1 5 5 22
q-8 -4 -12 -4q-39 -5 -84 -5q-41 0 -75 4.5t-85 13.5q-51 10 -90.5 15t-87.5 5q-103 0 -232 -28l-6 -1q-8 0 -8 4v1q0 4 8 6q133 25 236 25q55 0 98.5 -5.5t102.5 -15.5q50 -9 78.5 -12.5t60.5 -3.5q46 0 96 10h2q8 33 34 116q1 6 13 43l-73 -6h-1q-4 0 -7.5 2.5t-3.5 5.5
q0 5 9 7l81 7q28 86 35 102q9 19 16.5 29.5t22.5 15.5q5 2 15 2q12 0 20.5 -6t17.5 -17q6 -5 6 -15l-1 -10q-1 -21 -25 -92q55 4 133 11q18 49 33 80q15 26 33 26q7 0 19 -5q29 -13 29 -40q0 -4 -2 -14q-4 -18 -12 -39l68 5h4q4 0 5 -2t-2 -6q-4 -5 -8 -6t-5 -1l-66 -6
q-64 -203 -89 -270q-11 -26 -11 -47q0 -18 14 -13q42 40 72.5 81.5t61.5 92.5l19 31q5 7 9 7q9 0 3 -11zM205 369l5 14q-81 -7 -132 -11l-7 -22q-24 -72 -49 -162q-10 -31 -15.5 -66l-6.5 -41q-3 -27 -9 -57q16 11 26.5 22t19 21l12.5 15q23 29 66 98l27 43q42 66 63 146z
" />
    <glyph glyph-name="zero" unicode="0" horiz-adv-x="363" 
d="M40 0q-45 0 -70 24t-25 72q0 53 17 103q26 84 45 126q13 30 40 73q9 15 19.5 24.5t24.5 10.5q7 1 9.5 6l3.5 7q15 27 31.5 37t43.5 8q49 -2 75 -23q33 -28 33 -63l-1 -11q-1 -8 -2 -26.5t-5 -31.5q-7 -30 -18 -50q-13 -22 -21 -47q-4 -17 -14 -35q-17 -34 -53 -100
q-11 -20 -25.5 -36.5t-28.5 -30.5l-18 -18q-17 -16 -35 -17q-18 -2 -26 -2zM85 28q29 26 46.5 44.5t29.5 41.5l21 37q22 39 33 62t17 49q3 8 8 17q13 22 20 58q2 11 4 31l3 24l1 12q0 53 -53 71q-22 6 -30 6q-16 0 -31 -9.5t-32 -31.5q-10 -14 -15.5 -28.5t-11.5 -37.5
q-14 -47 -23 -82q-28 -85 -35 -206q-1 -20 0.5 -34.5t7.5 -26.5q3 -10 11 -10q6 0 13 3q12 6 16 10z" />
    <glyph glyph-name="one" unicode="1" horiz-adv-x="269" 
d="M-27 12q14 2 19 5q-1 36 20 97l12 42q36 137 72 239q-21 -15 -39 -30q-37 -32 -64 -44q3 10 10 16t9 7l52 47q1 1 17 14q29 27 38 43q7 12 17 12q3 0 9 -2q40 -16 36 -52q-2 -46 -10 -76q-15 -60 -34 -119.5t-50 -148.5q-7 -20 -20 -36q5 -1 12.5 0.5t12.5 1.5q6 0 12 -3
q-26 -11 -50 -15t-64 -7q-7 0 -17 -0.5t-24 -2.5q10 10 24 12z" />
    <glyph glyph-name="two" unicode="2" horiz-adv-x="325" 
d="M-25 0q-21 0 -32.5 10t-11.5 28q0 11 4 23q21 69 60 125q83 111 140 177q34 39 46 71l7 23q1 5 1 14q0 14 -7.5 18.5t-26.5 3.5q-60 -7 -106 -64q-15 -21 -17 -47l-1 -12q0 -12 5 -27q-13 0 -18 9q-5 18 -5 33q0 30 20 57q50 66 117 66l13 -1q43 -4 64.5 -23t21.5 -59
q0 -12 -1 -18q-2 -29 -28 -67q-68 -93 -145 -181q-43 -50 -72 -116q-5 -12 -5 -17q0 -10 16 -10q17 0 40 1t35 2l26 2q10 0 13 11q4 14 7 21q1 4 4 13t4 16q0 5 1 7.5t6 3.5h2q4 0 8 -4q4 -8 2 -21q-1 -12 -1 -35q-1 -12 -5 -16t-17 -5q-9 0 -32 -1t-42 -3q-52 -4 -78 -7
q-4 -1 -12 -1z" />
    <glyph glyph-name="three" unicode="3" horiz-adv-x="350" 
d="M-11 0q-23 0 -39 22q-17 24 -17 54q0 29 17 71q12 29 46.5 51.5t65.5 22.5q14 0 21.5 -4.5t12.5 -14.5q-7 -4 -13 -4q-7 0 -17 6q-4 4 -11 4q-5 0 -15 -5q-32 -15 -47 -41.5t-15 -53.5q0 -17 6 -31q10 -21 41 -46q7 -5 12 -5q8 0 19 8q18 15 28 28q28 39 44 78
q16 43 27 91q3 15 2 25q-2 18 -4 24.5t-9 8.5t-25 2l-25 -1l-24 1q-8 0 -8 4q0 5 4 9q8 8 24 26q28 32 35 78v6q0 9 -1 13q-5 12 -11 12q-4 0 -14 -5q-37 -19 -53 -61q-1 -2 -2.5 -9t-8.5 -6q-6 0 -6 6q0 4 2 10q6 23 20.5 41.5t35.5 28.5q19 9 36 9q21 0 38 -14
q25 -21 25 -57q0 -34 -20 -64q-3 -3 -8 -11q31 -4 43.5 -23.5t19.5 -54.5q2 -10 2 -31q0 -50 -27 -95q-37 -64 -101 -81q-14 -4 -34.5 -8.5t-30.5 -6.5l-30 -6q-4 -1 -11 -1z" />
    <glyph glyph-name="four" unicode="4" horiz-adv-x="344" 
d="M96 8q-3 6 -4 16l-1 35q0 28 4 51q1 4 2 9t2 9q3 12 3 18t-4 7.5t-19 3.5q-9 1 -40.5 3.5t-56.5 9.5q-13 3 -18 6.5t-5 10.5t3 19q21 74 48 126q4 7 19 40l15 30.5t22 40.5l14 21q6 10 13 10q12 -2 13 -11q0 -10 -2 -15l-24.5 -88t-25.5 -72q-8 -19 -21 -64l-9 -32
q-1 -3 -1 -7q0 -10 12 -10q24 -2 35 -2l24 1q8 1 12 4.5t6 11.5q9 38 29 114l18 66q9 29 26 45q13 13 24 13q7 0 16 -6q13 -10 17.5 -24.5t4.5 -34.5q2 -95 -24 -168l-17 -60l-24 -82q-8 -25 -25 -39t-40 -14q-6 0 -10 1q-8 1 -11 7z" />
    <glyph glyph-name="five" unicode="5" horiz-adv-x="385" 
d="M27 0q-31 0 -51 34q-12 23 -12 48q0 28 13 57q9 20 19.5 28.5t37.5 15.5q-22 -13 -29.5 -29t-10.5 -38q-4 -31 17 -62q9 -11 21.5 -16t34.5 -9h3q6 0 14 8q28 29 45.5 53t24.5 51l27 94q4 12 4 27q0 21 -12 45q-7 18 -28 18q-5 0 -13 -2q-19 -5 -30.5 -11.5t-17.5 -22.5
q-5 -16 -22 -16q-9 0 -22.5 1.5l-22.5 2.5q-16 1 -16 19q3 51 8.5 86t20.5 70q9 20 18.5 26.5t30.5 7.5q41 0 99 7q4 1 13 1t25 -2q18 -3 34 -2h2q4 0 5.5 -2.5t-1.5 -6.5q-4 -8 -14 -6q-7 1 -20 1q-24 0 -46 -3q-30 -2 -44 -2q-13 0 -19 1l-29 -2q18 -28 18 -71
q0 -11 -2 -35t-2 -36q17 6 48 6q43 0 73 -33q39 -45 39 -113q0 -36 -21.5 -72.5t-54.5 -62.5t-66 -34q-46 -10 -68 -16q-12 -3 -21 -3z" />
    <glyph glyph-name="six" unicode="6" horiz-adv-x="351" 
d="M-51 112q0 43 12.5 89t34.5 100q23 60 66 104t99 65q21 8 47 8t58 -10q11 -4 17 -14.5t6 -24.5q0 -25 -16 -44q-6 -1 -3 7q3 9 3 18q0 17 -14 43q-7 12 -25 12q-14 0 -25 -7q-22 -14 -33 -27q-42 -45 -65 -102q-3 -7 -7.5 -18.5t-12.5 -28.5q30 22 62 22q21 0 42 -8
q31 -12 31 -55q0 -8 -2 -22q-14 -72 -51 -139q-23 -44 -71 -69q-22 -11 -48 -11q-17 0 -35 5q-70 18 -70 107zM156 100q13 23 21.5 48t9.5 29l6 19q5 14 5 31q0 28 -19 52q-9 13 -20 13q-9 0 -24 -10l-16 -14q-18 -16 -28 -22t-15.5 -12.5t-7.5 -16.5q-4 -18 -7 -27
q-11 -46 -11 -86q-1 -34 13 -66q6 -14 14 -14t22 8q36 22 57 68z" />
    <glyph glyph-name="seven" unicode="7" horiz-adv-x="350" 
d="M-78 9q-9 2 -9 9q0 4 3 10l36 57q89 138 192 280q7 9 19 29q18 27 31 43q9 9 35 39h-66h-66q-5 0 -15 2q-12 2 -9 11q2 4 7 5.5t7 2.5q16 3 46 5q6 0 14 0.5t20 2.5q21 3 36.5 4t25.5 2q14 0 21 1q27 1 37.5 -8t10.5 -33q0 -22 -8.5 -42t-24.5 -45q-34 -61 -109 -155
q-50 -63 -90 -121q-8 -12 -20 -27.5t-19 -23.5l-34 -44q-10 -14 -26 -13z" />
    <glyph glyph-name="eight" unicode="8" horiz-adv-x="352" 
d="M-32 18q-19 26 -19 63q0 44 27 87q36 54 72 92l11.5 13.5t4.5 9.5q0 3 -7 19q-24 43 -34 106q-1 5 -1 14t1 13q4 28 32 47q49 31 101 31q8 0 26 -2q38 -4 54 -34q4 -8 4 -15q0 -9 -5 -19t-14 -17q-6 -6 -12 -4q0 1 -0.5 2t0.5 3q6 17 6 30q0 21 -13 33t-36 12t-47 -12
q-16 -9 -24.5 -18.5t-8.5 -22.5q0 -11 5 -21q8 -17 20.5 -32.5t14.5 -17.5q1 -1 16 -19q16 10 36 36q9 12 20 23q-1 -14 -4.5 -23t-14.5 -21q-5 -6 -11 -10.5t-10.5 -10.5t-4.5 -11q0 -8 6.5 -16.5t8.5 -11.5q22 -42 34 -68.5t19 -56.5q2 -10 2 -16q0 -31 -18.5 -70
t-43.5 -58l-7 -4q-42 -20 -79 -30.5t-72 -10.5q-22 0 -35 18zM36 16q20 0 35.5 13.5t23.5 38.5q3 5 4 11q5 28 5 50q0 61 -33 137q-49 -47 -83 -101q-22 -33 -22 -70q0 -23 10 -41.5t30 -29.5q16 -8 30 -8z" />
    <glyph glyph-name="nine" unicode="9" horiz-adv-x="351" 
d="M5 0q-27 0 -57 10q-12 4 -18 14.5t-6 24.5q0 25 16 44q3 1 4 -1.5t-1 -4.5q-3 -9 -3 -18q0 -14 6.5 -27t8.5 -16q6 -13 24 -13q14 0 24 7q22 13 35 28q44 49 64 101q-1 -3 11 27l9 20q-30 -22 -61 -22q-20 0 -43 9q-31 11 -31 54q0 7 2 23q14 70 50 138q24 46 71 69
q23 11 50 11q19 0 34 -4q37 -9 53.5 -36t16.5 -71q0 -43 -12 -87.5t-34 -102.5q-27 -62 -66 -103q-44 -46 -101 -66q-21 -8 -46 -8zM96 212q13 13 26 20q10 6 15.5 12.5t7.5 16.5q1 8 3 15t3 13q10 37 12 85q0 35 -14 66q-6 15 -15 15q-6 0 -20 -9q-19 -11 -32 -27.5
t-26 -40.5q-13 -26 -23.5 -57t-13.5 -39q-4 -13 -4 -28q0 -27 19 -55q9 -12 20 -12q10 0 23 10z" />
    <glyph glyph-name="fraction" unicode="&#x2044;" horiz-adv-x="280" 
d="M-90 9q0 3 2.5 6.5t3.5 4.5l50 81l164 256l24 39q28 48 43 66l12 15q1 2 5.5 8t11.5 4q5 -1 6 -5.5t0 -12.5q0 -3 -3 -9l-11 -23q-34 -70 -53 -100q-80 -115 -205 -312q-4 -8 -7 -11q-11 -16 -28 -16q-7 0 -12 4q-3 3 -3 5z" />
    <glyph glyph-name="asterisk" unicode="*" horiz-adv-x="264" 
d="M153.5 525.5q-11.5 10.5 -16.5 31.5q-6 -6 -10.5 -14t-7.5 -12q-14 -18 -27 -16q-12 2 -12 7q0 4 4 9l1 2q8 18 8 22t-4.5 5.5t-18.5 2.5q-11 0 -11 7q0 12 11 17q13 5 29 5q20 0 26 20q1 5 3.5 11t3.5 9q4 13 13 14h3q11 0 12 -10q4 -18 3 -28q0 -18 20 -18q19 1 42 -2
q8 0 16 -5q6 -3 1 -13q-2 -5 -11 -5q-32 0 -48 -1l-14 -2q3 -26 19 -48q-23 1 -34.5 11.5z" />
    <glyph glyph-name="backslash" unicode="\" horiz-adv-x="288" 
d="M85.5 5.5q-0.5 5.5 -0.5 6.5q-4 52 -8 76q-9 84 -16 134l-16 133q-2 14 -4 42q-2 41 -7 70v12q2 8 7 11t11 1q8 -5 11 -11q28 -46 31 -83l27 -261q3 -33 3 -67l-1 -38q1 -10 -9.5 -20t-20.5 -11q-7 0 -7.5 5.5z" />
    <glyph glyph-name="periodcentered" unicode="&#xb7;" horiz-adv-x="163" 
d="M-27.5 194q-10.5 11 -6.5 27q4 15 20.5 26t32.5 10q15 -2 23 -11.5t7 -27.5q-1 -11 -18.5 -23t-33.5 -12q-14 0 -24.5 11z" />
    <glyph glyph-name="bullet" unicode="&#x2022;" horiz-adv-x="192" 
d="M-21 181.5q-14 11.5 -14 28.5q0 4 2 12q5 19 25.5 33t41.5 14q22 0 33.5 -13t10.5 -38q-1 -16 -24 -32t-46 -16q-15 0 -29 11.5z" />
    <glyph glyph-name="colon" unicode=":" horiz-adv-x="134" 
d="M0.5 309.5q-6.5 5.5 -6.5 14.5q0 10 10.5 19t22.5 9q11 0 16.5 -6.5t4.5 -18.5q0 -7 -11 -15t-22 -8q-8 0 -14.5 5.5zM-56.5 92.5q-6.5 5.5 -6.5 14.5q0 11 11.5 20t23.5 8q10 1 15 -6t4 -19q-2 -8 -12.5 -15.5t-20.5 -7.5q-8 0 -14.5 5.5z" />
    <glyph glyph-name="comma" unicode="," horiz-adv-x="138" 
d="M-98 -50q-2 0 -3.5 3t-0.5 7q6 8 15 14q21 15 28 35h-1q-8 0 -14.5 5.5t-6.5 14.5q0 10 10.5 19t22.5 9q13 0 18.5 -8t3.5 -15q-5 -30 -18 -45t-28.5 -24t-20.5 -13q-4 -2 -5 -2z" />
    <glyph glyph-name="ellipsis" unicode="&#x2026;" horiz-adv-x="314" 
d="M-79.5 5.5q-6.5 5.5 -6.5 14.5q0 11 11.5 20t23.5 8q10 1 15 -6t4 -19q-1 -8 -12 -15.5t-21 -7.5q-8 0 -14.5 5.5zM10.5 5.5q-6.5 5.5 -6.5 14.5q0 10 11 19t22 9q10 0 16 -6.5t5 -18.5q0 -7 -11 -15t-22 -8q-8 0 -14.5 5.5zM100.5 5.5q-6.5 5.5 -6.5 14.5q0 10 11 19
t22 9q10 0 16 -6.5t5 -18.5q0 -7 -11 -15t-22 -8q-8 0 -14.5 5.5z" />
    <glyph glyph-name="exclam" unicode="!" horiz-adv-x="173" 
d="M-14 102q-13 0 -21 11q-7 10 -7 23q0 8 1 14t2 10q25 135 53 243q14 52 26.5 91t30.5 76l3 7q1 2 4 7t6.5 8t8.5 4h3q12 0 15 -14q4 -15 4 -33q0 -17 -2 -25l-7 -47q-5 -36 -14 -94q-15 -90 -30 -153q-3 -19 -21 -75q-7 -24 -29 -43q-13 -10 -26 -10zM-49 4.5
q-4 4.5 -3 11.5q1 6 8 10.5t14 4.5q6 0 9.5 -4.5t2.5 -11.5q-1 -5 -7.5 -10t-13.5 -5q-6 0 -10 4.5z" />
    <glyph glyph-name="exclamdown" unicode="&#xa1;" horiz-adv-x="173" 
d="M48 422.5q-3 4.5 -2 11.5q0 5 7 10t14 5q6 0 10 -4.5t2 -11.5q-1 -6 -8 -10.5t-14 -4.5q-6 0 -9 4.5zM-68 -148q-12 0 -15 14q-4 17 -4 38q0 13 1 20q15 98 23 142q12 79 29 153q3 18 12 43l9 32q5 23 30 43q11 10 25 10q13 0 21 -11q6 -8 6 -23q0 -12 -3 -24
q-23 -132 -53 -243q-15 -56 -27 -93.5t-29 -74.5q-1 -1 -1.5 -3.5t-1.5 -3.5q-4 -9 -8 -13.5t-12 -5.5h-2z" />
    <glyph glyph-name="numbersign" unicode="#" horiz-adv-x="404" 
d="M22 60q0 5 1 8q14 56 15 61q1 7 4.5 17.5t3.5 16.5t-3 10q-4 5 -15 5q-6 0 -13 -1t-14 -1q-21 0 -37 6q-7 2 -6 9q3 7 10 7q17 4 30.5 5.5t22.5 3.5q12 2 18 2q13 2 16 13q0 4 1 7t1 6q5 20 5 26t-3.5 8.5t-12.5 2.5q-10 0 -17 -1l-19 -1q-8 0 -16 3q-4 2 -4 5q0 6 8 9
q15 2 47 8q18 3 21 6.5t6 21.5l11 46q3 9 7 14t13 6h2q12 0 12 -16q0 -26 -3 -55l-1 -11q0 -6 3.5 -7.5t16.5 -1.5l39 3q20 2 24.5 6t11.5 25q2 9 4 21.5t5 21.5q1 3 3 7.5t4.5 7t7.5 3.5h3q10 0 10 -15l3.5 -21t0.5 -29q-1 -3 -1 -7q0 -6 3.5 -8t11.5 -1h31q12 0 15 -9
q1 -2 1 -6q0 -8 -12 -10q-13 -2 -37 -2q-14 -2 -17 -4t-6 -15q0 -2 -1 -3q-1 -7 -4.5 -20t-2.5 -20q2 -5 6.5 -6.5t14.5 -1.5t14 -2q3 -1 8 -1.5t7.5 -2.5t0.5 -7q-2 -6 -6 -8t-9 -2.5t-8 -1.5q-23 -5 -30.5 -8.5t-11.5 -11t-10 -30.5l-16 -61q-4 -10 -9.5 -13t-23.5 -4h-2
q-15 0 -10 17l18 78q3 11 3 14q0 4 -5 5t-13 1l-43 -1q-18 0 -21 -16q-9 -32 -11 -56q-2 -11 -4.5 -19l-4.5 -14q-4 -10 -11.5 -16t-15.5 -6q-3 0 -9 2t-6 9zM152 214q15 1 20 2.5t7.5 6.5t5.5 21q1 1 1 2.5t1 2.5q3 12 3 17q0 6 -4.5 7t-18.5 0h-13q-6 -1 -14.5 0t-13.5 1
q-9 0 -14 -4t-7 -9t-3 -14.5t-3 -14.5q0 -4 -2 -10l-1 -4q0 -7 9 -6z" />
    <glyph glyph-name="period" unicode="." horiz-adv-x="134" 
d="M-79.5 5.5q-6.5 5.5 -6.5 14.5q0 11 11.5 20t23.5 8q10 1 15 -6t4 -19q-1 -8 -12 -15.5t-21 -7.5q-8 0 -14.5 5.5z" />
    <glyph glyph-name="question" unicode="?" horiz-adv-x="343" 
d="M9 147q1 10 1.5 23t2.5 22q9 36 20 64t29 53q70 93 143 179q21 27 21 45q0 10 -4.5 18t-14.5 20q-8 8 -20 5q-31 -10 -52.5 -21.5t-39.5 -31.5q-28 -34 -28 -66q0 -17 8 -36l3.5 -3.5t-0.5 -7.5h-7q-18 0 -25 13q-13 21 -13 42q0 27 25 58q36 44 107 65q10 2 14 2
q6 0 15 -1.5t16 -2.5q47 -4 76 -38q16 -19 16 -43q0 -12 -5 -29q-11 -36 -41 -75q-33 -44 -48 -61q-76 -85 -122 -182q-4 -9 -23 -35q-13 -16 -27 -16q-11 0 -17 8q-11 15 -10 32zM1 4.5q-4 4.5 -3 11.5q1 6 8 10.5t14 4.5q6 0 9.5 -4.5t2.5 -11.5q-1 -5 -7.5 -10t-13.5 -5
q-6 0 -10 4.5z" />
    <glyph glyph-name="questiondown" unicode="&#xbf;" horiz-adv-x="343" 
d="M169 421.5q-4 4.5 -3 11.5q1 6 8 10.5t14 4.5q6 0 9.5 -4.5t2.5 -11.5q-2 -5 -8 -10t-13 -5q-6 0 -10 4.5zM18 -145q-6 0 -15 1.5t-16 2.5q-49 5 -76 38q-16 19 -16 43q0 12 5 29q11 36 41 75q20 28 48 61q76 85 122 182q5 13 23 35q13 16 27 16q10 0 16 -8
q12 -14 11 -32q-1 -10 -1.5 -23t-2.5 -22q-11 -40 -21 -66t-28 -51q-45 -61 -143 -179q-22 -26 -22 -45q0 -10 5 -18.5t15 -19.5q9 -8 20 -5q32 11 53.5 22t38.5 31q27 33 27 66q0 20 -8 36l-3.5 3.5t0.5 7.5h7q19 0 26 -13q13 -21 13 -41q0 -28 -25 -59q-38 -45 -108 -65
q-10 -2 -13 -2z" />
    <glyph glyph-name="quotedbl" unicode="&#x22;" horiz-adv-x="159" 
d="M116 528q-6 0 -9 5q-2 2 -2.5 3.5t-0.5 2.5q5 50 30 88q2 5 6 5t7 -6v-3q0 -2 0.5 -5.5t-1.5 -6.5q-3 -32 -16 -71q0 -1 -2 -6t-9 -6h-3zM63 527q-5 0 -8 5q0 1 -2 7q5 50 29 87q3 5 8 5t7 -5q-1 -4 -0.5 -8t-0.5 -8q-3 -33 -17 -71q-1 -4 -3.5 -7.5t-7.5 -3.5z" />
    <glyph glyph-name="quotesingle" unicode="'" horiz-adv-x="109" 
d="M66 528q-6 0 -9 5q-2 2 -2.5 3.5t-0.5 2.5q5 50 30 88q2 5 6 5t7 -6v-3q0 -2 0.5 -5.5t-1.5 -6.5q-3 -32 -16 -71q0 -1 -2 -6t-9 -6h-3z" />
    <glyph glyph-name="semicolon" unicode=";" horiz-adv-x="138" 
d="M8.5 343.5q-7.5 7.5 -4.5 17.5q3 9 13 16t19 7q23 0 22 -25q-1 -8 -12 -15.5t-21 -7.5q-9 0 -16.5 7.5zM-69 59q-2 0 -4 3t-1 7q1 2 16 14q11 7 17 15.5t11 19.5h-1q-8 0 -14.5 5.5t-6.5 14.5q0 11 11.5 19.5t23.5 8.5q11 -1 16.5 -9t3.5 -14q-5 -30 -18.5 -45
t-28.5 -24.5l-20 -12.5q-4 -2 -5 -2z" />
    <glyph glyph-name="slash" unicode="/" horiz-adv-x="280" 
d="M-90 9q0 3 2.5 6.5t3.5 4.5l50 81l164 256l24 39q28 48 43 66l12 15q1 2 5.5 8t11.5 4q5 -1 6 -5.5t0 -12.5q0 -3 -3 -9l-11 -23q-34 -70 -53 -100q-80 -115 -205 -312q-4 -8 -7 -11q-11 -16 -28 -16q-7 0 -12 4q-3 3 -3 5z" />
    <glyph glyph-name="underscore" unicode="_" horiz-adv-x="291" 
d="M-78 -36q-10 0 -15 1q-8 1 -6 9q2 5 6 6t5 1l36 3q95 0 142 1q5 0 15 -2q9 -4 6 -13t-16 -9q-8 -1 -25 -1h-66q-30 0 -82 4z" />
    <glyph glyph-name="braceleft" unicode="{" horiz-adv-x="264" 
d="M36 3q-28 0 -52 12q-28 14 -26 50q4 55 25 119q8 32 16 56q5 17 5 21q0 6 -4.5 8.5t-18.5 6.5q25 10 36.5 21.5t16.5 34.5q4 15 10 45q9 61 58 113q16 17 31.5 26.5t33.5 9.5q6 0 10 -1q12 -1 22 -0.5t18 0.5q-6 -7 -11.5 -8.5t-10 -1t-6.5 0.5q-18 -1 -25.5 -7
t-10.5 -24q-6 -38 -5 -57q0 -32 -13 -73q-16 -46 -58 -66q-2 -1 -7.5 -4t-9.5 -7q18 -15 18 -46q0 -10 -1 -18t-2 -14q-6 -31 -17 -65l-12 -42q-5 -20 -5 -35q4 -20 14 -27t33 -5q1 0 5 0.5t5 -3.5q0 -6 -8 -10q-4 -1 -13 -4t-17 -4q-16 -2 -24 -2z" />
    <glyph glyph-name="braceright" unicode="}" horiz-adv-x="264" 
d="M-70.5 9q-7.5 3 -10.5 4q-7 4 -4 10q2 4 6.5 3.5t5.5 -0.5q22 -2 35.5 5t27.5 27q5 8 9 18.5t6 16.5l8 35q10 48 19 72q13 31 23.5 48t31.5 30q-1 5 -5.5 7.5t-5.5 3.5q-24 16 -24 46q0 6 2 20q5 34 25 73q11 19 25 57q4 14 4 17q0 7 -5.5 10t-18.5 4h-9q-11 0 -13 9
q8 0 17.5 -0.5t22.5 0.5q4 1 11 1q30 0 44 -36q11 -27 11 -54q0 -26 -11 -59q-10 -30 -14 -45q-4 -12 -4 -23t6.5 -18.5t20.5 -14.5q-23 -6 -28 -10.5t-10 -25.5q-11 -52 -12 -56q-16 -70 -39 -119q-17 -36 -52 -50q-30 -12 -59 -12q-9 0 -23 2q-6 1 -13.5 4z" />
    <glyph glyph-name="bracketleft" unicode="[" horiz-adv-x="252" 
d="M-47 2q-8 0 -11.5 2.5t-3.5 9.5l1 9q4 35 20 112q16 76 20 100q2 9 12.5 66t25.5 110q18 65 40 102q9 15 19.5 23t26.5 9q20 1 62 5l23 3q-10 -7 -20.5 -9.5t-22.5 -4.5t-19 -3q5 -17 5 -32q0 -19 -5 -43.5t-7 -33.5q-23 -117 -43 -180l-43 -144q-13 -40 -21 -56
q-3 -7 -3 -11q0 -5 14 -4q8 1 21.5 1t24.5 2.5t22 10.5q0 -9 -3.5 -13t-10.5 -7q-20 -11 -36 -14q-54 -8 -80 -10h-8z" />
    <glyph glyph-name="bracketright" unicode="]" horiz-adv-x="252" 
d="M-12.5 6.5q-26.5 4.5 -35.5 5.5q-15 3 -28 14q-7 5 -7 10q0 4 3 10q8 -9 18 -11t23 -2t21 -1h6q6 0 8 3t3 12q8 53 9 56q24 96 33 144q9 40 23.5 87.5l29.5 92.5l7 20q10 30 18.5 50t23.5 39l-17.5 3t-20 5t-14.5 9q14 -2 20 -2q32 -5 61 -6q15 -1 21 -8.5t7 -23.5
q1 -6 1 -18q0 -30 -13 -84q-13 -52 -52 -167q-20 -56 -36 -109q-23 -72 -40 -112q-5 -13 -10 -17t-14 -4q-22 0 -48.5 4.5z" />
    <glyph glyph-name="parenleft" unicode="(" horiz-adv-x="178" 
d="M-8 0q-16 0 -23 7q-19 24 -19 51q4 71 7 104q4 33 22 108q21 89 71 179q16 31 57 74l8 8q5 4 11 4q5 0 8 -3q4 -1 4 -6q0 -4 -3 -9q-14 -28 -22 -42q-63 -123 -93 -238q-16 -56 -16 -123q1 -10 0 -24t-1 -24q0 -22 5 -37q2 -6 2 -11q0 -7 -6 -15q-3 -3 -12 -3z" />
    <glyph glyph-name="parenright" unicode=")" horiz-adv-x="178" 
d="M-89 9q0 7 11 20q16 19 36 61l12 24q34 62 50 123q31 127 30 238q2 28 1 42q0 11 8 15q6 3 10 3q5 0 9 -4q3 -2 5 -8q19 -45 19 -84q0 -87 -26 -169q-11 -50 -34 -108q-7 -17 -32 -70l-17 -34q-12 -27 -44 -51q-11 -7 -27 -7q-9 0 -10 3q-1 2 -1 6z" />
    <glyph glyph-name="emdash" unicode="&#x2014;" horiz-adv-x="234" 
d="M-15 203q-11 0 -17 3q-3 3 -3 8q0 4 3 8.5t8 6.5q16 8 31 8h22q15 0 43 0.5t36 -0.5h6q9 0 9 -7q-1 -14 -18 -19l-15.5 -5t-23.5 -4q-54 0 -81 1z" />
    <glyph glyph-name="endash" unicode="&#x2013;" horiz-adv-x="234" 
d="M-15 203q-11 0 -17 3q-3 3 -3 8q0 4 3 8.5t8 6.5q16 8 31 8h22q15 0 43 0.5t36 -0.5h6q9 0 9 -7q-1 -14 -18 -19l-15.5 -5t-23.5 -4q-54 0 -81 1z" />
    <glyph glyph-name="hyphen" unicode="-" horiz-adv-x="234" 
d="M-15 203q-11 0 -17 3q-3 3 -3 8q0 4 3 8.5t8 6.5q16 8 31 8h22q15 0 43 0.5t36 -0.5h6q9 0 9 -7q-1 -14 -18 -19l-15.5 -5t-23.5 -4q-54 0 -81 1z" />
    <glyph glyph-name="guillemotleft" unicode="&#xab;" horiz-adv-x="284" 
d="M12 0q-10 0 -13 7q-16 40 -21 60l-12 46q-4 24 -12 49q-1 2 -1 7t6 14l31 44q13 17 37 53q23 39 74 91q1 1 5 6.5t10 2.5q7 -3 7 -9q0 -3 -2 -9q-5 -12 -18 -29l-107 -149q-10 -11 -10 -23q0 -4 2 -10q6 -13 12 -31.5l9 -27.5q13 -43 23 -66l2.5 -5t1.5 -6q0 -4 -6 -9
q-7 -6 -18 -6zM92 0q-10 0 -13 7q-16 40 -21 60l-12 46q-4 24 -12 49q-1 2 -1 7t6 14l31 44q13 17 37 53q23 39 74 91q1 1 5 6.5t10 2.5q7 -3 7 -9q0 -3 -2 -9q-5 -12 -18 -29l-107 -149q-10 -11 -10 -23q0 -4 2 -10q6 -13 12 -31.5l9 -27.5q13 -43 23 -66l2.5 -5t1.5 -6
q0 -4 -6 -9q-7 -6 -18 -6z" />
    <glyph glyph-name="guillemotright" unicode="&#xbb;" horiz-adv-x="284" 
d="M-88 12q0 6 10 14q21 21 57 65q40 47 53 60q13 14 10 33l-29 149q-3 9 -3 18q0 7 1 11q2 14 13 18l4 1q4 0 5 -4t2 -6q12 -29 18.5 -49t7.5 -42q2 -15 8 -53q6 -26 8 -44q1 -2 1 -7t-6 -14l-47 -60l-27 -35l-53 -60q-6 -7 -16 -7q-11 0 -15 6q-2 2 -2 6zM-9 12q0 4 5 8.5
t6 5.5q27 28 57 65q28 35 52 60q14 14 11 33l-30 149q-2 12 -2 18q0 7 1 11q2 14 13 18l4 1q4 0 5 -4t2 -6q12 -29 18.5 -49t7.5 -42q2 -15 8 -53q6 -26 8 -44q1 -2 1 -7t-6 -14l-47 -60l-27 -35l-53 -60q-6 -7 -16 -7q-11 0 -15 6q-3 3 -3 6z" />
    <glyph glyph-name="guilsinglleft" unicode="&#x2039;" horiz-adv-x="204" 
d="M12 0q-10 0 -13 7q-16 40 -21 60l-12 46q-4 24 -12 49q-1 2 -1 7t6 14l31 44q13 17 37 53q23 39 74 91q1 1 5 6.5t10 2.5q7 -3 7 -9q0 -3 -2 -9q-5 -12 -18 -29l-107 -149q-10 -11 -10 -23q0 -4 2 -10q6 -13 12 -31.5l9 -27.5q13 -43 23 -66l2.5 -5t1.5 -6q0 -4 -6 -9
q-7 -6 -18 -6z" />
    <glyph glyph-name="guilsinglright" unicode="&#x203a;" horiz-adv-x="204" 
d="M-89 12q0 4 5 8.5t6 5.5q27 28 57 65q28 35 52 60q14 14 11 33l-30 149q-2 12 -2 18q0 7 1 11q2 14 13 18l4 1q4 0 5 -4t2 -6q12 -29 18.5 -49t7.5 -42q2 -15 8 -53q6 -26 8 -44q1 -2 1 -7t-6 -14l-47 -60l-27 -35l-53 -60q-6 -7 -16 -7q-11 0 -15 6q-3 3 -3 6z" />
    <glyph glyph-name="quotedblbase" unicode="&#x201e;" horiz-adv-x="158" 
d="M-147 42q0 -4 -2 -8q-12 -30 -29.5 -44.5t-35 -24l-24.5 -13.5l-5 -2q-3 0 -3.5 3t1.5 7q14 11 19 14q24 14 37 35h-1q-6 0 -11 4.5t-5 10.5q0 4 3 10q5 9 16.5 16t21.5 7q18 0 18 -15z" />
    <glyph glyph-name="quotedblleft" unicode="&#x201c;" horiz-adv-x="177" 
d="M100 539v7q23 50 58 81q2 3 5 3q2 0 4 -2.5t2 -6.5q-2 -3 -3.5 -7t-3.5 -8q-16 -37 -40 -68q-7 -10 -13 -8q-7 0 -9 9zM52 539v7q24 50 57 80q3 4 6 4q2 0 4 -2.5t2 -6.5q-2 -2 -3.5 -7t-2.5 -8q-18 -38 -41 -68q-5 -9 -11 -9q-10 0 -11 10z" />
    <glyph glyph-name="quotedblright" unicode="&#x201d;" horiz-adv-x="177" 
d="M52 539v7q23 50 58 81q2 3 5 3q2 0 4 -2.5t2 -6.5q-2 -3 -3.5 -7.5l-2.5 -7.5q-17 -36 -41 -67q-7 -11 -13 -9q-8 2 -9 9zM100 539v7q23 50 58 81q2 3 5 3q2 0 4 -2.5t2 -6.5q-2 -3 -3.5 -7t-3.5 -8q-16 -37 -40 -68q-7 -10 -13 -8q-7 0 -9 9z" />
    <glyph glyph-name="quoteleft" unicode="&#x2018;" horiz-adv-x="129" 
d="M52 539v7q23 50 58 81q2 3 5 3q2 0 4 -2.5t2 -6.5q-2 -3 -3.5 -7.5l-2.5 -7.5q-17 -36 -41 -67q-7 -11 -13 -9q-8 2 -9 9z" />
    <glyph glyph-name="quoteright" unicode="&#x2019;" horiz-adv-x="129" 
d="M52 539v7q23 50 58 81q2 3 5 3q2 0 4 -2.5t2 -6.5q-2 -3 -3.5 -7t-3.5 -8q-16 -37 -40 -68q-7 -10 -13 -8q-7 0 -9 9z" />
    <glyph glyph-name="quotesinglbase" unicode="&#x201a;" horiz-adv-x="158" 
d="M-243 -50q-3 0 -3.5 3t1.5 7q14 11 19 14q24 14 37 35h-1q-6 0 -11 4.5t-5 10.5q0 4 3 10q5 9 16.5 16t21.5 7q13 0 16.5 -8t-0.5 -15q-12 -30 -29.5 -44.5t-35 -24l-24.5 -13.5z" />
    <glyph glyph-name="dollar" unicode="$" horiz-adv-x="309" 
d="M33 0q-5 0 -6 3t0 14l1 13l3 12t-1 12t-10.5 4h-10.5q-20 4 -31 20t-11 39q0 11 1 17l6 20q20 70 91 76q8 0 14 1q5 14 14 49l5 20q1 2 1 5q0 5 -3.5 10l-5.5 8l-31 41q-5 5 -11 17q-8 13 -8 32q0 30 22.5 56t57.5 36q14 3 21 8.5t8 17.5q1 7 3 10.5t8 3.5q12 0 8 -14
q-2 -8 -2 -10q0 -9 5.5 -13.5t18.5 -9.5q22 -7 31 -22q6 -9 6 -20q0 -17 -13 -35q-7 -7 -12 -7q-3 1 -3 5v5q4 13 2 29q-4 21 -32 35q-7 -4 -7 -14q-6 -61 -20 -131q-1 -3 -1 -9q0 -8 8 -22q29 -42 33 -79l1 -31q0 -32 -7 -53q-11 -33 -31 -52t-54 -29q-14 -4 -18 -8t-6 -19
q-2 -12 -2 -20q-1 -9 -5.5 -14t-15.5 -6q-5 -1 -11 -1zM123 411q12 52 13 77q-27 -13 -41 -31t-14 -39q0 -32 32 -57q6 34 10 50zM114.5 137q13.5 31 13.5 63q0 23 -8 45l-43 -162q24 23 37.5 54zM73 206q1 3 1 8q0 7 -7 7q-5 0 -8 -1q-5 -2 -15 -8q-35 -19 -42 -64
q-1 -5 -1 -15q0 -41 39 -54q19 70 33 127z" />
    <glyph glyph-name="plus" unicode="+" horiz-adv-x="328" 
d="M74 90q-26 0 -23 18q2 20 5.5 44t5.5 34l2 13q0 5 -3 6t-15 2q-8 0 -20 0.5t-28 2.5q-8 0 -20 4q-10 3 -10 12q0 8 5.5 10.5t13.5 2.5q18 2 54 4q18 1 24 2t8.5 7t6.5 24q5 30 13 56q1 3 2 8t4.5 8t9.5 3h3q16 0 17 -14q1 -4 1 -13t-1 -14q-1 -18 -5 -47l-1 -10
q0 -8 8 -8q26 0 58 5q12 1 16 0t6 -6t5 -20l-75 -10q-20 -2 -25 -6.5t-8 -23.5l-6 -36q-5 -34 -6 -37q-1 -10 -4 -15t-12 -6h-6z" />
    <glyph glyph-name="minus" unicode="&#x2212;" horiz-adv-x="234" 
d="M-15 203q-11 0 -17 3q-3 3 -3 8q0 4 3 8.5t8 6.5q16 8 31 8h22q15 0 43 0.5t36 -0.5h6q9 0 9 -7q-1 -14 -18 -19l-15.5 -5t-23.5 -4q-54 0 -81 1z" />
    <glyph glyph-name="multiply" unicode="&#xd7;" horiz-adv-x="283" 
d="M-54 139q0 13 10 20l70 54q8 6 12 10t4 7q0 6 -4 14l-8 19t-8 21q-3 6 -5 20v2q0 5 3.5 10t8.5 8q4 2 5 2q4 0 8 -10q12 -18 25 -40q4 -9 8 -14t8 -5q5 0 27 16q33 24 53 35q2 1 7 4t9 3t7 -4q3 -6 3 -11q0 -9 -7 -17t-23 -22l-17 -14l-25 -21q-7 -5 -10.5 -8.5
t-3.5 -6.5q0 -2 2.5 -6t4.5 -6q6 -11 11.5 -19.5t9.5 -15.5q6 -10 6 -15q0 -4 -5 -10.5l-13 -16.5l-37 52q-10 14 -16 14t-23 -13l-67 -50q-2 -1 -7.5 -5t-9.5 -4t-7 5q-6 9 -6 18z" />
    <glyph glyph-name="divide" unicode="&#xf7;" horiz-adv-x="234" 
d="M29.5 255.5q-7.5 7.5 -4.5 17.5q3 9 12.5 16t19.5 7q22 0 22 -25q-1 -8 -12 -15.5t-21 -7.5q-9 0 -16.5 7.5zM-16 201q-11 0 -16 3q-4 4 -4 8t3 8.5t8 6.5q16 8 31 8h22q15 0 43 0.5t36 -0.5h7q8 0 8 -5q0 -16 -18 -21q-4 -1 -16 -5t-22 -4q-54 0 -82 1zM1.5 150.5
q-7.5 7.5 -4.5 17.5q3 9 13 16t19 7q22 0 22 -25q-1 -8 -12 -15.5t-21 -7.5q-9 0 -16.5 7.5z" />
    <glyph glyph-name="equal" unicode="=" horiz-adv-x="236" 
d="M-4 243q-11 0 -16 4q-4 3 -4 8q0 10 10 15q15 7 31 7q17 1 102 1h3q12 0 11 -8v-2q0 -6 -4.5 -9.5t-12.5 -7.5q-26 -8 -39 -9zM-29 166q-13 2 -13 11q0 8 4.5 11t13.5 5q35 9 80 9q31 0 46 -2q14 -2 11 -13q-1 -7 -5.5 -10t-12.5 -5q-35 -11 -66 -11q-28 0 -58 5z" />
    <glyph glyph-name="notequal" unicode="&#x2260;" horiz-adv-x="236" 
d="M126 282q9 0 9 -7q-1 -13 -18 -19q-4 -1 -16 -5t-22 -4q-32 -38 -34 -40q25 1 57 -2q15 -2 12 -14q-1 -6 -4.5 -9t-7.5 -4t-5 -1q-43 -13 -81 -10h-4q-11 -11 -20 -23q-2 -3 -6 -6.5t-6 -5.5q-10 -6 -17 -2q-2 2 -2 5q0 5 6 11q5 8 17 22l1 1l-13 1q-13 2 -13 11
q0 8 4 10.5t8.5 4t5.5 1.5q27 6 37 7l18 21l20 22q-37 0 -55 1q-11 0 -17 3q-3 3 -3 8q0 11 10 15q18 8 31 8h67l12 13l11 12q7 6 13 3q2 -2 2 -4t-1 -4l-2 -4l-12 -16h11h7z" />
    <glyph glyph-name="greater" unicode="&#x3e;" horiz-adv-x="204" 
d="M-88 12q0 6 10 14q21 21 57 65q40 47 53 60q13 14 10 33l-29 149q-3 9 -3 18q0 7 1 11q2 14 13 18l4 1q4 0 5 -4t2 -6q12 -29 18.5 -49t7.5 -42q2 -15 8 -53q6 -26 8 -44q1 -2 1 -7t-6 -14l-47 -60l-27 -35l-53 -60q-6 -7 -16 -7q-11 0 -15 6q-2 2 -2 6z" />
    <glyph glyph-name="less" unicode="&#x3c;" horiz-adv-x="204" 
d="M12 0q-10 0 -13 7q-16 40 -21 60l-12 46q-4 24 -12 49q-1 2 -1 7t6 14l31 44q13 17 37 53q23 39 74 91q1 1 5 6.5t10 2.5q7 -3 7 -9q0 -3 -2 -9q-5 -12 -18 -29l-107 -149q-10 -11 -10 -23q0 -4 2 -10q6 -13 12 -31.5l9 -27.5q13 -43 23 -66l2.5 -5t1.5 -6q0 -4 -6 -9
q-7 -6 -18 -6z" />
    <glyph glyph-name="asciitilde" unicode="~" horiz-adv-x="233" 
d="M67 184q-12 0 -22.5 6t-14.5 16q-2 7 -3.5 15t-3.5 15q-3 9 -8 9q-6 0 -13 -6q-9 -8 -20 -30q-2 -4 -4.5 -6.5t-6.5 -2.5q-9 0 -7 11q2 14 13.5 27.5t25.5 17.5q7 3 16 3q12 0 21 -6t12 -16l8 -31q3 -7 7 -7q5 0 11 6q19 19 30 38l5 10t13 11q4 -34 -29 -67
q-12 -13 -30 -13z" />
    <glyph glyph-name="percent" unicode="%" horiz-adv-x="342" 
d="M66 351q-27 0 -43 18q-5 7 -5 12q-2 12 -2 17q0 25 15 47q19 28 55 38q1 0 4.5 0.5t4.5 3.5q0 2 3 2q26 0 40 -9q9 -6 12 -17q5 -12 5 -21q0 -10 -4 -18q-3 -20 -20 -43q-19 -22 -47 -28q-6 -2 -18 -2zM-50 27q0 5 6 15q18 36 54 91q22 33 70 115q26 48 55.5 91l83.5 118
q-1 -1 19 22q9 7 15 5q4 -1 4 -6q0 -4 -3 -9l-17 -35.5t-27 -50.5l-169 -271l-48 -75q-1 -1 -5.5 -7t-9 -8.5t-10.5 -1.5q-18 0 -18 7zM109 386q16 16 20 35q3 11 3 15q0 6 -3 16q-2 9 -8 13q-5 6 -14 6q-5 0 -13 -3q-30 -10 -44 -33q-7 -9 -8.5 -17t-2.5 -23q0 -10 7 -14
q5 -6 11 -10q12 -5 19 -4q19 5 33 19zM105 4q-25 0 -42 18q-6 8 -6 12q-1 6 -1 16q0 26 15 48q17 28 54 38q1 0 4.5 0.5t4.5 3.5q1 2 4 2q25 0 39 -9q10 -7 13 -17q5 -10 5 -19q0 -8 -5 -20q-4 -9 -9 -22t-11 -21q-19 -22 -46 -28q-7 -2 -19 -2zM148 39q14 13 21 35
q2 7 2 15q0 9 -2 16q-3 10 -9 13q-4 6 -14 6q-5 0 -13 -3q-28 -9 -44 -33q-10 -16 -10 -40v-3q0 -8 6 -11q5 -6 11 -10q2 -1 7.5 -3t11.5 -1q21 5 33 19z" />
    <glyph glyph-name="at" unicode="@" horiz-adv-x="510" 
d="M121 11q-84 0 -138 60q-19 23 -21 40q-3 21 -3 43q0 88 52 166q62 96 175 124q4 1 10.5 1.5t11.5 3t8 9.5q0 1 3.5 2t6.5 1q44 -1 74.5 -6.5t54.5 -22.5q34 -22 45 -55q14 -37 14 -68q0 -30 -13 -62q-14 -68 -68 -135q-60 -73 -149 -93q-35 -8 -63 -8zM284 99
q68 70 81 142q13 42 13 66q0 20 -11 66q-8 34 -32 52q-27 21 -60 21q-25 0 -56 -11q-119 -40 -181 -135q-25 -37 -32.5 -74t-7.5 -85q2 -42 22 -62q23 -23 47 -37q22 -11 35.5 -16t29.5 -5q4 0 16 2q78 15 136 76zM240 122q-12 0 -21.5 6t-13.5 16q-4 9 -4 22q0 11 1 16
q0 13 3 29q-9 -5 -14 -10.5t-7 -7.5q-19 -19 -34 -26.5t-31 -7.5q-14 0 -29 4q-18 4 -25.5 11.5t-7.5 21.5q0 8 3 20q19 73 74 103q19 11 41 11q25 0 40 -16l16 -16q3 2 8 8t8.5 9t9.5 1q10 -4 10 -15q0 -28 -11 -74q-6 -24 -8 -41q-1 -6 -3 -14t-2 -14v-5q0 -11 6 -13h3
q8 0 17 13q2 2 25 31q3 4 5 7.5t4 6.5q2 2 5 7t6 7t7 1t4 -4q0 -2 -2 -6.5t-3 -7.5q-13 -33 -41 -57q-18 -16 -39 -16zM186 225q17 19 24.5 30t7.5 20q0 8 -6 16t-20 20q-8 7 -15 7t-21 -9q-36 -27 -48 -73q-4 -15 -4 -32q0 -10 1 -15q2 -15 12 -15q5 0 15 5q24 12 54 46z
" />
    <glyph glyph-name="ampersand" unicode="&#x26;" horiz-adv-x="377" 
d="M29 0q-23 0 -54 9q-37 13 -39 57q-2 18 4 54q2 14 8 30l8 21q7 15 20 30q43 46 90 62v2q0 2 -5 7q-30 25 -30 74q0 15 1 22q5 30 33.5 60t59.5 37q11 3 21 3l15 -1q23 -3 35.5 -6t23.5 -12q15 -11 15 -36q0 -14 -5.5 -29t-13.5 -26q-4 -4 -8 -3q2 6 4.5 15t4.5 21t2 16
q0 25 -22 41q-10 8 -22 8q-13 0 -25.5 -8t-19.5 -23q-21 -39 -21 -79q4 -56 27 -86l2 -4q-2 -2 0 -4q-4 -5 -8 -4t-5 1q-25 1 -43 -20q-58 -60 -67 -128l-4 -32v-4v-6.5t1 -7.5q6 -19 13.5 -28.5t18.5 -9.5q12 0 35 14q61 39 81 91q5 12 7.5 26.5t3.5 18.5l1 3q0 5 -9 5
q-38 -3 -56 -41l-10 -26q-2 1 -5 1q-2 10 -2 14q0 24 20 50q11 15 31 17q24 2 41 15.5t31 36.5q4 6 9 15t10 15q9 11 18 11q7 0 11 -6q8 -9 8 -23q0 -12 -4 -23q-6 -19 -22 -35q-19 -20 -38 -19q-12 0 -13 -12q-7 -37 -20 -60q-43 -73 -102 -94q-20 -7 -41 -7z" />
    <glyph glyph-name="trademark" unicode="&#x2122;" horiz-adv-x="983" 
d="M-93 20q31 20 58 47t53 74l14 30q41 87 58 137q25 64 50 103q6 10 6 13q0 5 -7 6q-44 15 -95 15q-26 0 -39.5 -6t-26.5 -23q-23 -30 -23 -49q0 -9 4 -14q4 -7 14 -7t26 6q26 9 38 29q1 3 3 8.5t7 10.5q6 -7 6 -15q0 -18 -25 -34q-24 -15 -48 -15q-19 0 -30.5 9t-11.5 24
q0 4 2 12q5 19 21 38q17 24 33.5 31t49.5 7q55 -2 96 -13q8 -3 11 -3q4 0 9 4.5t12 12.5q33 39 89 71q37 23 75 23q24 0 37 -10l7.5 -7.5l7.5 -7.5q6 -7 6 -16q0 -11 -9 -22t-25 -21q-43 -26 -96 -38q-8 -2 -22.5 -4t-19 -8.5t-14.5 -29.5q-15 -38 -28 -82q-16 -53 -22 -68
q-17 -44 -61 -124q-53 -69 -91 -91.5t-86 -22.5q-22 0 -34 1q3 7 21 19zM350 487q11 7 17 15t6 16q0 9 -9 13q-8 4 -19 4q-15 0 -31.5 -8.5t-30.5 -23.5q-21 -21 -44 -57q52 4 111 41zM529 9q0 18 12 45q18 40 56 104l147 240l33 56q0 1 2.5 7t-1.5 9q-1 1 -4 1q-6 0 -16 -6
q-14 -8 -37 -29q-39 -36 -66.5 -68t-45.5 -66q-19 -34 -31 -58q-10 -27 -38 -34q-16 -4 -21 -4q-13 0 -20 10q-4 7 -4 16q0 13 8 31q43 86 67 154l2 4t1 4q3 9 3 14q0 13 -13 13q-8 0 -23 -6q-19 -6 -36 -17.5t-39 -29.5l-6 -6q-22 -19 -22 -33q0 -3 2 -9q1 -2 1 -7t1 -7
q4 -20 4 -32q0 -65 -59 -170q-37 -64 -113 -94q-14 -5 -30 -5q-12 0 -17 1q-11 2 -10 11l-1 7q0 7 5 19l12 28q14 35 25.5 58.5t28.5 46.5l16 23q34 48 55 71q19 21 25 39.5t8 45.5q1 2 -0.5 4t-1.5 4q-2 10 -4.5 14.5t-8.5 4.5q-9 0 -30 -12q-59 -34 -84 -91
q-13 -29 -15 -47q-8 0 -9 3t-0.5 7t0.5 5q14 64 74 114q40 34 72 34q27 0 38 -25q-1 -1 0 -2.5t0 -3.5q5 -9 8 -9q4 0 9.5 5t6.5 6q35 35 67 53q31 20 55 20q10 0 23 -5q43 -19 43 -60q0 -17 -5 -32q0 -3 -2 -10t3 -10l21.5 22t23.5 27q10 13 46 46l16 15q26 24 44 24
q5 0 17 -4q31 -14 31 -46q0 -12 -4 -24q-33 -109 -114 -219q-34 -47 -76 -120q-6 -9 -16 -27q-7 -14 -9.5 -28.5t-3.5 -17.5v-4q0 -5 3 -5q2 0 14 7q39 31 54 54q26 36 37.5 58t9.5 43q-2 6 3 9q3 2 6 2t4 -2q13 -8 13 -21q0 -9 -4 -17q-30 -67 -101 -132q-18 -18 -40 -20
q-6 -1 -15 -2t-21 -1t-17 3q-22 11 -22 36zM276.5 110q12.5 23 31.5 65l15 31q26 51 33 80q-113 -127 -112 -224q20 25 32.5 48z" />
    <glyph glyph-name="degree" unicode="&#xb0;" horiz-adv-x="211" 
d="M108 513q-27 0 -42 18q-6 8 -7 12q-3 36 14 64q20 28 54 38q2 0 5 0.5t5 3.5q1 2 3 2q26 0 40 -9q8 -5 13 -17t5 -21q0 -10 -4 -18q-6 -24 -22 -43q-18 -22 -45 -28q-7 -2 -19 -2zM152 548q13 13 20 35q2 10 2 13q0 6 -3 18q0 9 -7 13q-6 6 -15 6q-6 0 -13 -3
q-31 -10 -43 -33q-11 -15 -11 -40q0 -10 5 -14q7 -7 13 -10q10 -5 18 -4q18 5 34 19z" />
    <glyph glyph-name="bar" unicode="|" horiz-adv-x="125" 
d="M-75 1q-9 0 -7 10l5 20l61 231h-1l34 148l6 27l21 71q4 14 13 15h4q10 0 10 -12v-5q0 -8 -1 -12q-5 -89 -43 -209q-16 -52 -31 -117q-11 -44 -19 -73l-9 -32q-8 -26 -11 -39t-9.5 -17t-20.5 -6h-2z" />
    <glyph glyph-name="asciicircum" unicode="^" horiz-adv-x="245" 
d="M167 515q-27 -1 -30 28q-4 32 -4 50q0 14 1 22q-16 -13 -41 -42q-4 -5 -15.5 -18t-23.5 -21q-4 4 -2 9q12 17 49 61q16 16 33 38q5 7 18 5q29 -3 45 -33q7 -11 10 -23.5t5 -25l3 -18.5q3 -15 -8 -25t-27 -8z" />
  </font>
</defs>
</svg>
